Moderustic-SemiBold.ufo
<glyph name="exclam" format="2">
  <advance width="255"/>
  <unicode hex="0021"/>
  <outline>
    <contour>
      <point x="68" y="249" type="line"/>
      <point x="187" y="249" type="line"/>
      <point x="203" y="750" type="line"/>
      <point x="52" y="750" type="line"/>
    </contour>
    <contour>
      <point x="127" y="-20" type="curve" smooth="yes"/>
      <point x="167.4" y="-20"/>
      <point x="197.924" y="12.32"/>
      <point x="197.924" y="51.822" type="curve" smooth="yes"/>
      <point x="197.924" y="91.324"/>
      <point x="167.4" y="121.849"/>
      <point x="127" y="121.849" type="curve" smooth="yes"/>
      <point x="85.702" y="121.849"/>
      <point x="56.076" y="91.324"/>
      <point x="56.076" y="51.822" type="curve" smooth="yes"/>
      <point x="56.076" y="12.32"/>
      <point x="85.702" y="-20"/>
    </contour>
  </outline>
</glyph>
<glyph name="quotedbl" format="2">
  <advance width="409"/>
  <unicode hex="0022"/>
  <outline>
    <contour>
      <point x="260" y="556" type="line"/>
      <point x="358" y="556" type="line"/>
      <point x="373" y="803" type="line"/>
      <point x="245" y="803" type="line"/>
    </contour>
    <contour>
      <point x="51" y="556" type="line"/>
      <point x="149" y="556" type="line"/>
      <point x="164" y="803" type="line"/>
      <point x="36" y="803" type="line"/>
    </contour>
  </outline>
</glyph>
<glyph name="numbersign" format="2">
  <advance width="830"/>
  <unicode hex="0023"/>
  <outline>
    <contour>
      <point x="112" y="0" type="line"/>
      <point x="260" y="0" type="line"/>
      <point x="302" y="205" type="line"/>
      <point x="456" y="205" type="line"/>
      <point x="414" y="0" type="line"/>
      <point x="562" y="0" type="line"/>
      <point x="604" y="205" type="line"/>
      <point x="755" y="205" type="line"/>
      <point x="755" y="265" type="line"/>
      <point x="616" y="265" type="line"/>
      <point x="651" y="435" type="line"/>
      <point x="802" y="435" type="line"/>
      <point x="802" y="495" type="line"/>
      <point x="663" y="495" type="line"/>
      <point x="705" y="700" type="line"/>
      <point x="557" y="700" type="line"/>
      <point x="515" y="495" type="line"/>
      <point x="361" y="495" type="line"/>
      <point x="403" y="700" type="line"/>
      <point x="255" y="700" type="line"/>
      <point x="214" y="495" type="line"/>
      <point x="74" y="495" type="line"/>
      <point x="74" y="435" type="line"/>
      <point x="201" y="435" type="line"/>
      <point x="166" y="265" type="line"/>
      <point x="28" y="265" type="line"/>
      <point x="28" y="205" type="line"/>
      <point x="154" y="205" type="line"/>
    </contour>
    <contour>
      <point x="314" y="265" type="line"/>
      <point x="349" y="435" type="line"/>
      <point x="503" y="435" type="line"/>
      <point x="468" y="265" type="line"/>
    </contour>
  </outline>
</glyph>
<glyph name="comma" format="2">
  <advance width="262"/>
  <unicode hex="002C"/>
  <outline>
    <contour>
      <point x="52" y="-139" type="curve"/>
      <point x="61" y="-168" type="line"/>
      <point x="154" y="-115"/>
      <point x="210" y="-34"/>
      <point x="210" y="48" type="curve" smooth="yes"/>
      <point x="210" y="106"/>
      <point x="176" y="138"/>
      <point x="131" y="138" type="curve" smooth="yes"/>
      <point x="85" y="138"/>
      <point x="52" y="104"/>
      <point x="52" y="59" type="curve" smooth="yes"/>
      <point x="52" y="1.495"/>
      <point x="94.283" y="-20"/>
      <point x="145" y="-20" type="curve"/>
      <point x="136" y="-62"/>
      <point x="104" y="-104"/>
    </contour>
  </outline>
</glyph>
<glyph name="zero" format="2">
  <advance width="627"/>
  <unicode hex="0030"/>
  <outline>
    <contour>
      <point x="315.995" y="-19" type="curve" smooth="yes"/>
      <point x="492.673" y="-19"/>
      <point x="587.5" y="107"/>
      <point x="587.5" y="350" type="curve" smooth="yes"/>
      <point x="587.5" y="592"/>
      <point x="493.671" y="720"/>
      <point x="319.988" y="720" type="curve" smooth="yes"/>
      <point x="140.316" y="720"/>
      <point x="39.5" y="588"/>
      <point x="39.5" y="350" type="curve" smooth="yes"/>
      <point x="39.5" y="115"/>
      <point x="137.321" y="-19"/>
    </contour>
    <contour>
      <point x="314.002" y="101" type="curve" smooth="yes"/>
      <point x="232.687" y="101"/>
      <point x="184.5" y="184"/>
      <point x="184.5" y="350" type="curve" smooth="yes"/>
      <point x="184.5" y="520"/>
      <point x="234.695" y="600"/>
      <point x="317.014" y="600" type="curve" smooth="yes"/>
      <point x="396.321" y="600"/>
      <point x="442.5" y="522"/>
      <point x="442.5" y="351" type="curve" smooth="yes"/>
      <point x="442.5" y="179"/>
      <point x="395.317" y="101"/>
    </contour>
  </outline>
</glyph>
<glyph name="one" format="2">
  <advance width="456"/>
  <unicode hex="0031"/>
  <outline>
    <contour>
      <point x="233" y="507" type="curve"/>
      <point x="233" y="0" type="line"/>
      <point x="379" y="0" type="line"/>
      <point x="379" y="700" type="line"/>
      <point x="256" y="700" type="line"/>
      <point x="199" y="608"/>
      <point x="125" y="535"/>
      <point x="19" y="515" type="curve"/>
      <point x="19" y="392" type="line"/>
      <point x="147" y="423"/>
      <point x="181" y="453"/>
    </contour>
  </outline>
</glyph>
<glyph name="four" format="2">
  <advance width="665"/>
  <unicode hex="0034"/>
  <outline>
    <contour>
      <point x="368" y="0" type="line"/>
      <point x="514" y="0" type="line"/>
      <point x="514" y="151" type="line"/>
      <point x="646" y="151" type="line"/>
      <point x="646" y="272" type="line"/>
      <point x="514" y="272" type="line"/>
      <point x="514" y="700" type="line"/>
      <point x="344" y="700" type="line"/>
      <point x="18" y="217" type="line"/>
      <point x="18" y="151" type="line"/>
      <point x="368" y="151" type="line"/>
    </contour>
    <contour>
      <point x="201" y="272" type="line"/>
      <point x="368" y="520" type="line"/>
      <point x="368" y="272" type="line"/>
    </contour>
  </outline>
</glyph>
<glyph name="five" format="2">
  <advance width="605"/>
  <unicode hex="0035"/>
  <outline>
    <contour>
      <point x="287.76" y="-20" type="curve" smooth="yes"/>
      <point x="457.603" y="-20"/>
      <point x="569.5" y="75.402"/>
      <point x="569.5" y="232.061" type="curve" smooth="yes"/>
      <point x="569.5" y="370.645"/>
      <point x="482.618" y="455"/>
      <point x="341.81" y="455" type="curve" smooth="yes"/>
      <point x="281.891" y="455"/>
      <point x="237.951" y="439.118"/>
      <point x="202" y="419" type="curve"/>
      <point x="227" y="580" type="line"/>
      <point x="538" y="580" type="line"/>
      <point x="538" y="700" type="line"/>
      <point x="118" y="700" type="line"/>
      <point x="51.409" y="265.892" type="line"/>
      <point x="136.521" y="320.892"/>
      <point x="221.231" y="345"/>
      <point x="303.34" y="345" type="curve" smooth="yes"/>
      <point x="379.44" y="345"/>
      <point x="424.5" y="305"/>
      <point x="424.5" y="232" type="curve" smooth="yes"/>
      <point x="424.5" y="151"/>
      <point x="368.41" y="100"/>
      <point x="280.269" y="100" type="curve" smooth="yes"/>
      <point x="213.162" y="100"/>
      <point x="156.071" y="130"/>
      <point x="112" y="187" type="curve"/>
      <point x="27" y="102" type="line"/>
      <point x="105.927" y="14"/>
      <point x="186.853" y="-20"/>
    </contour>
  </outline>
</glyph>
<glyph name="at" format="2">
  <advance width="885"/>
  <unicode hex="0040"/>
  <outline>
    <contour>
      <point x="423" y="-159" type="curve" smooth="yes"/>
      <point x="463" y="-159"/>
      <point x="499" y="-154"/>
      <point x="534" y="-147" type="curve"/>
      <point x="534" y="-77" type="line"/>
      <point x="503.488" y="-83"/>
      <point x="466.302" y="-89"/>
      <point x="429.116" y="-89" type="curve" smooth="yes"/>
      <point x="258.442" y="-89"/>
      <point x="124" y="30"/>
      <point x="124" y="247.222" type="curve" smooth="yes"/>
      <point x="124" y="477.667"/>
      <point x="274.547" y="591"/>
      <point x="446.734" y="591" type="curve" smooth="yes"/>
      <point x="619.863" y="591"/>
      <point x="761" y="474.717"/>
      <point x="761" y="271.943" type="curve" smooth="yes"/>
      <point x="761" y="143.168"/>
      <point x="714.26" y="98"/>
      <point x="663.624" y="98" type="curve" smooth="yes"/>
      <point x="630.127" y="98"/>
      <point x="620" y="111"/>
      <point x="620" y="151" type="curve" smooth="yes"/>
      <point x="620" y="164" type="line"/>
      <point x="639" y="422" type="line"/>
      <point x="593" y="447"/>
      <point x="545" y="460"/>
      <point x="486" y="460" type="curve" smooth="yes"/>
      <point x="315" y="460"/>
      <point x="234" y="349"/>
      <point x="234" y="220" type="curve" smooth="yes"/>
      <point x="234" y="90"/>
      <point x="319.306" y="21"/>
      <point x="421.056" y="21" type="curve" smooth="yes"/>
      <point x="502.25" y="21"/>
      <point x="533" y="63"/>
      <point x="551" y="118" type="curve"/>
      <point x="548" y="59"/>
      <point x="598" y="23"/>
      <point x="668" y="23" type="curve" smooth="yes"/>
      <point x="793" y="23"/>
      <point x="841" y="136"/>
      <point x="841" y="282" type="curve" smooth="yes"/>
      <point x="841" y="507"/>
      <point x="680" y="661"/>
      <point x="448" y="661" type="curve" smooth="yes"/>
      <point x="216" y="661"/>
      <point x="44" y="507"/>
      <point x="44" y="244" type="curve" smooth="yes"/>
      <point x="44" y="-6"/>
      <point x="199" y="-159"/>
    </contour>
    <contour>
      <point x="420" y="105" type="curve" smooth="yes"/>
      <point x="367" y="105"/>
      <point x="354" y="137"/>
      <point x="354" y="207" type="curve" smooth="yes"/>
      <point x="354" y="316"/>
      <point x="399" y="379"/>
      <point x="466" y="379" type="curve" smooth="yes"/>
      <point x="493" y="379"/>
      <point x="510" y="372"/>
      <point x="531" y="362" type="curve"/>
      <point x="528" y="332"/>
      <point x="521.948" y="290.006"/>
      <point x="519" y="262" type="curve" smooth="yes"/>
      <point x="505.948" y="138.005"/>
      <point x="484" y="105"/>
    </contour>
  </outline>
</glyph>
<glyph name="B" format="2">
  <advance width="634"/>
  <unicode hex="0042"/>
  <anchor x="328" y="-20" name="bottom"/>
  <anchor x="308" y="719" name="top"/>
  <outline>
    <contour>
      <point x="68" y="0" type="line" name="ab01"/>
      <point x="356" y="0" type="line" smooth="yes"/>
      <point x="518" y="0"/>
      <point x="604" y="98"/>
      <point x="604" y="206" type="curve" smooth="yes"/>
      <point x="604" y="329"/>
      <point x="494" y="372"/>
      <point x="365" y="372" type="curve" name="dv02"/>
      <point x="493" y="372"/>
      <point x="558" y="426"/>
      <point x="558" y="518" type="curve" smooth="yes"/>
      <point x="558" y="614"/>
      <point x="487" y="700"/>
      <point x="316" y="700" type="curve" smooth="yes" name="at01"/>
      <point x="68" y="700" type="line"/>
    </contour>
    <contour>
      <point x="325" y="120" type="curve" smooth="yes" name="sv01"/>
      <point x="214" y="120" type="line"/>
      <point x="214" y="580" type="line" name="sv02"/>
      <point x="288" y="580" type="line" smooth="yes"/>
      <point x="375" y="580"/>
      <point x="412" y="564"/>
      <point x="412" y="507" type="curve" smooth="yes" name="sv04"/>
      <point x="412" y="449"/>
      <point x="373" y="426"/>
      <point x="306" y="426" type="curve" smooth="yes" name="sv03"/>
      <point x="100" y="426" type="line"/>
      <point x="100" y="310" type="line"/>
      <point x="310" y="310" type="line" smooth="yes" name="dv01"/>
      <point x="421" y="310"/>
      <point x="458" y="287"/>
      <point x="458" y="217" type="curve" smooth="yes"/>
      <point x="458" y="148"/>
      <point x="422" y="120"/>
    </contour>
  </outline>
</glyph>
<glyph name="D" format="2">
  <advance width="722"/>
  <unicode hex="0044"/>
  <anchor x="318" y="-20" name="bottom"/>
  <anchor x="318" y="719" name="top"/>
  <outline>
    <contour>
      <point x="68" y="0" type="line" name="ab01"/>
      <point x="332" y="0" type="line" smooth="yes"/>
      <point x="545" y="0"/>
      <point x="689" y="141"/>
      <point x="689" y="350" type="curve" smooth="yes"/>
      <point x="689" y="558"/>
      <point x="544" y="700"/>
      <point x="332" y="700" type="curve" smooth="yes" name="at01"/>
      <point x="68" y="700" type="line"/>
    </contour>
    <contour>
      <point x="317.661" y="120" type="curve" smooth="yes"/>
      <point x="213" y="120" type="line" name="sv01"/>
      <point x="213" y="580" type="line" name="sv02"/>
      <point x="317.661" y="580" type="line" smooth="yes"/>
      <point x="454.257" y="580"/>
      <point x="541" y="484"/>
      <point x="541" y="349" type="curve" smooth="yes"/>
      <point x="541" y="209"/>
      <point x="448.274" y="120"/>
    </contour>
  </outline>
</glyph>
<glyph name="E" format="2">
  <advance width="530"/>
  <unicode hex="0045"/>
  <anchor x="276" y="-20" name="bottom"/>
  <anchor x="490" y="-2" name="ogonek"/>
  <anchor x="265" y="719" name="top"/>
  <anchor x="-50" y="500" name="topgr"/>
  <outline>
    <contour>
      <point x="58" y="0" type="line"/>
      <point x="495" y="0" type="line" name="ab01"/>
      <point x="495" y="120" type="line" name="sv01"/>
      <point x="204" y="120" type="line"/>
      <point x="204" y="305" type="line" name="dv01"/>
      <point x="455" y="305" type="line"/>
      <point x="455" y="425" type="line"/>
      <point x="204" y="425" type="line" name="dv02"/>
      <point x="204" y="580" type="line" name="sv02"/>
      <point x="480" y="580" type="line"/>
      <point x="480" y="700" type="line" name="at01"/>
      <point x="58" y="700" type="line"/>
    </contour>
  </outline>
</glyph>
<glyph name="F" format="2">
  <advance width="510"/>
  <unicode hex="0046"/>
  <anchor x="271" y="-20" name="bottom"/>
  <anchor x="260" y="719" name="top"/>
  <outline>
    <contour>
      <point x="58" y="0" type="line"/>
      <point x="204" y="0" type="line" name="ab01"/>
      <point x="204" y="290" type="line" name="dv01"/>
      <point x="442" y="290" type="line"/>
      <point x="442" y="410" type="line"/>
      <point x="204" y="410" type="line" name="dv02"/>
      <point x="204" y="580" type="line" name="sv01"/>
      <point x="482" y="580" type="line"/>
      <point x="482" y="700" type="line" name="at01"/>
      <point x="58" y="700" type="line" name="dh01"/>
    </contour>
  </outline>
</glyph>
<glyph name="G" format="2">
  <advance width="776"/>
  <unicode hex="0047"/>
  <anchor x="383" y="-20" name="bottom"/>
  <anchor x="383" y="719" name="top"/>
  <outline>
    <contour>
      <point x="356" y="-20" type="curve" smooth="yes" name="dv01"/>
      <point x="539" y="-20"/>
      <point x="631" y="90"/>
      <point x="631" y="221" type="curve"/>
      <point x="602" y="316" type="line" name="dv07"/>
      <point x="602" y="179.926"/>
      <point x="505.459" y="104"/>
      <point x="384.035" y="104" type="curve" smooth="yes" name="dv02"/>
      <point x="252.66" y="104"/>
      <point x="181" y="193.904"/>
      <point x="181" y="350.988" type="curve" smooth="yes"/>
      <point x="181" y="508.072"/>
      <point x="252.639" y="596"/>
      <point x="387.957" y="596" type="curve" smooth="yes" name="dv03"/>
      <point x="470.541" y="596"/>
      <point x="530.241" y="564.112"/>
      <point x="578" y="510" type="curve"/>
      <point x="663" y="595" type="line"/>
      <point x="599" y="674"/>
      <point x="500" y="720"/>
      <point x="373" y="720" type="curve" smooth="yes" name="dv04"/>
      <point x="166" y="720"/>
      <point x="33" y="597"/>
      <point x="33" y="344" type="curve" smooth="yes"/>
      <point x="33" y="105"/>
      <point x="160" y="-20"/>
    </contour>
    <contour>
      <point x="597" y="0" type="line"/>
      <point x="720" y="0" type="line"/>
      <point x="720" y="381" type="line" name="dv06"/>
      <point x="341" y="381" type="line" name="av02"/>
      <point x="341" y="261" type="line" name="av03"/>
      <point x="597" y="261" type="line" name="dv05"/>
    </contour>
  </outline>
</glyph>
<glyph name="K" format="2">
  <advance width="670"/>
  <unicode hex="004B"/>
  <anchor x="335" y="-20" name="bottom"/>
  <anchor x="335" y="719" name="top"/>
  <outline>
    <contour>
      <point x="484" y="0" type="line"/>
      <point x="653" y="0" type="line"/>
      <point x="441" y="367" type="line"/>
      <point x="649" y="700" type="line"/>
      <point x="498" y="700" type="line"/>
      <point x="337" y="421" type="line"/>
      <point x="111" y="421" type="line"/>
      <point x="100" y="299" type="line"/>
      <point x="325" y="299" type="line"/>
    </contour>
    <contour>
      <point x="67" y="0" type="line"/>
      <point x="212" y="0" type="line"/>
      <point x="212" y="700" type="line"/>
      <point x="67" y="700" type="line"/>
    </contour>
  </outline>
</glyph>
<glyph name="Q" format="2">
  <advance width="775"/>
  <unicode hex="0051"/>
  <anchor x="388" y="-20" name="bottom"/>
  <anchor x="518" y="-1" name="ogonek"/>
  <anchor x="388" y="719" name="top"/>
  <outline>
    <contour>
      <point x="387" y="-20" type="curve" smooth="yes" name="dv01"/>
      <point x="611" y="-20"/>
      <point x="742" y="124"/>
      <point x="742" y="350" type="curve" smooth="yes" name="dv06"/>
      <point x="742" y="567"/>
      <point x="606" y="720"/>
      <point x="388" y="720" type="curve" smooth="yes" name="dv04"/>
      <point x="170" y="720"/>
      <point x="33" y="570"/>
      <point x="33" y="350" type="curve" smooth="yes"/>
      <point x="33" y="122"/>
      <point x="168" y="-20"/>
    </contour>
    <contour>
      <point x="634" y="-222" type="curve"/>
      <point x="634" y="-102" type="line"/>
      <point x="492" y="-102"/>
      <point x="463" y="-90.81"/>
      <point x="463" y="-3" type="curve" name="ab01"/>
      <point x="340" y="-3" type="line" name="ab02"/>
      <point x="340" y="-182"/>
      <point x="392" y="-222"/>
    </contour>
    <contour>
      <point x="388.986" y="104" type="curve" smooth="yes" name="dv02"/>
      <point x="268.156" y="104"/>
      <point x="181" y="189.952"/>
      <point x="181" y="352.964" type="curve" smooth="yes"/>
      <point x="181" y="510.048"/>
      <point x="262.213" y="596"/>
      <point x="385.024" y="596" type="curve" smooth="yes" name="dv03"/>
      <point x="508.825" y="596"/>
      <point x="594" y="504.12"/>
      <point x="594" y="346.048" type="curve" smooth="yes" name="dv05"/>
      <point x="594" y="183.036"/>
      <point x="510.806" y="104"/>
    </contour>
  </outline>
</glyph>
<glyph name="U" format="2">
  <advance width="675"/>
  <unicode hex="0055"/>
  <anchor x="338" y="-20" name="bottom"/>
  <anchor x="449" y="-1" name="ogonek"/>
  <anchor x="338" y="719" name="top"/>
  <outline>
    <contour>
      <point x="336" y="-20" type="curve" smooth="yes" name="dv01"/>
      <point x="507" y="-20"/>
      <point x="615" y="89"/>
      <point x="615" y="262" type="curve" smooth="yes"/>
      <point x="615" y="700" type="line" name="at02"/>
      <point x="469" y="700" type="line"/>
      <point x="469" y="292" type="line" smooth="yes"/>
      <point x="469" y="157"/>
      <point x="430" y="100"/>
      <point x="337" y="100" type="curve" smooth="yes" name="dv02"/>
      <point x="245" y="100"/>
      <point x="206" y="156"/>
      <point x="206" y="292" type="curve" smooth="yes"/>
      <point x="206" y="700" type="line"/>
      <point x="60" y="700" type="line" name="at01"/>
      <point x="60" y="262" type="line" smooth="yes"/>
      <point x="60" y="88"/>
      <point x="165" y="-20"/>
    </contour>
  </outline>
</glyph>
<glyph name="V" format="2">
  <advance width="655"/>
  <unicode hex="0056"/>
  <anchor x="328" y="-20" name="bottom"/>
  <anchor x="328" y="719" name="top"/>
  <outline>
    <contour>
      <point x="287" y="0" type="line"/>
      <point x="411" y="0" type="line"/>
      <point x="638" y="700" type="line"/>
      <point x="485" y="700" type="line"/>
    </contour>
    <contour>
      <point x="244" y="0" type="line"/>
      <point x="368" y="0" type="line"/>
      <point x="170" y="700" type="line"/>
      <point x="17" y="700" type="line"/>
    </contour>
  </outline>
</glyph>
<glyph name="W" format="2">
  <advance width="960"/>
  <unicode hex="0057"/>
  <anchor x="480" y="-20" name="bottom"/>
  <anchor x="480" y="719" name="top"/>
  <outline>
    <contour>
      <point x="632" y="0" type="line"/>
      <point x="748" y="0" type="line"/>
      <point x="949" y="700" type="line"/>
      <point x="797" y="700" type="line"/>
    </contour>
    <contour>
      <point x="213" y="0" type="line"/>
      <point x="329" y="0" type="line"/>
      <point x="164" y="700" type="line"/>
      <point x="12" y="700" type="line"/>
    </contour>
    <contour>
      <point x="247" y="0" type="line"/>
      <point x="361" y="0" type="line"/>
      <point x="530" y="700" type="line"/>
      <point x="412" y="700" type="line"/>
    </contour>
    <contour>
      <point x="600" y="0" type="line"/>
      <point x="714" y="0" type="line"/>
      <point x="549" y="700" type="line"/>
      <point x="429" y="700" type="line"/>
    </contour>
  </outline>
</glyph>
<glyph name="X" format="2">
  <advance width="648"/>
  <unicode hex="0058"/>
  <anchor x="324" y="-20" name="bottom"/>
  <anchor x="324" y="719" name="top"/>
  <outline>
    <contour>
      <point x="19" y="0" type="line"/>
      <point x="191" y="0" type="line"/>
      <point x="325" y="242" type="line"/>
      <point x="459" y="0" type="line"/>
      <point x="630" y="0" type="line"/>
      <point x="417" y="354" type="line"/>
      <point x="625" y="700" type="line"/>
      <point x="455" y="700" type="line"/>
      <point x="324" y="464" type="line"/>
      <point x="193" y="700" type="line"/>
      <point x="24" y="700" type="line"/>
      <point x="232" y="354" type="line"/>
    </contour>
  </outline>
</glyph>
<glyph name="Y" format="2">
  <advance width="662"/>
  <unicode hex="0059"/>
  <anchor x="331" y="-20" name="bottom"/>
  <anchor x="331" y="719" name="top"/>
  <anchor x="-85" y="500" name="topgr"/>
  <outline>
    <contour>
      <point x="258" y="0" type="line" name="ab01"/>
      <point x="404" y="0" type="line"/>
      <point x="404" y="285" type="line" name="iv04"/>
      <point x="644" y="700" type="line" name="at01"/>
      <point x="479" y="700" type="line"/>
      <point x="334" y="427" type="line" name="iv05"/>
      <point x="186" y="700" type="line" name="at02"/>
      <point x="18" y="700" type="line"/>
      <point x="258" y="285" type="line" name="iv01"/>
    </contour>
  </outline>
</glyph>
<glyph name="Z" format="2">
  <advance width="577"/>
  <unicode hex="005A"/>
  <anchor x="290" y="-20" name="bottom"/>
  <anchor x="300" y="719" name="top"/>
  <outline>
    <contour>
      <point x="20" y="0" type="line" name="ab01"/>
      <point x="560" y="0" type="line"/>
      <point x="560" y="120" type="line" name="sv01"/>
      <point x="194" y="120" type="line"/>
      <point x="558" y="590" type="line"/>
      <point x="558" y="700" type="line" name="at01"/>
      <point x="48" y="700" type="line"/>
      <point x="48" y="580" type="line" name="sv02"/>
      <point x="384" y="580" type="line"/>
      <point x="20" y="110" type="line"/>
    </contour>
  </outline>
</glyph>
<glyph name="bracketleft" format="2">
  <advance width="420"/>
  <unicode hex="005B"/>
  <outline>
    <contour>
      <point x="77" y="-217" type="line"/>
      <point x="377" y="-217" type="line"/>
      <point x="377" y="-127" type="line"/>
      <point x="212" y="-127" type="line"/>
      <point x="212" y="688" type="line"/>
      <point x="377" y="688" type="line"/>
      <point x="377" y="778" type="line"/>
      <point x="77" y="778" type="line"/>
    </contour>
  </outline>
</glyph>
<glyph name="bracketright" format="2">
  <advance width="418"/>
  <unicode hex="005D"/>
  <outline>
    <contour>
      <point x="45" y="-217" type="line"/>
      <point x="346" y="-217" type="line"/>
      <point x="346" y="778" type="line"/>
      <point x="45" y="778" type="line"/>
      <point x="45" y="688" type="line"/>
      <point x="209" y="688" type="line"/>
      <point x="209" y="-127" type="line"/>
      <point x="45" y="-127" type="line"/>
    </contour>
  </outline>
</glyph>
<glyph name="a" format="2">
  <advance width="606"/>
  <unicode hex="0061"/>
  <anchor x="293" y="-20" name="bottom"/>
  <anchor x="538" y="-1" name="ogonek"/>
  <anchor x="293" y="520" name="top"/>
  <outline>
    <contour>
      <point x="241" y="-20" type="curve" smooth="yes" name="dv01"/>
      <point x="365" y="-20"/>
      <point x="430" y="79"/>
      <point x="430" y="248" type="curve" smooth="yes"/>
      <point x="430" y="423"/>
      <point x="360" y="520"/>
      <point x="232" y="520" type="curve" smooth="yes" name="at01"/>
      <point x="97" y="520"/>
      <point x="21" y="411"/>
      <point x="21" y="259" type="curve" smooth="yes"/>
      <point x="21" y="99"/>
      <point x="106" y="-20"/>
    </contour>
    <contour>
      <point x="282" y="90" type="curve" smooth="yes" name="dv02"/>
      <point x="211" y="90"/>
      <point x="166" y="152.194"/>
      <point x="166" y="254.514" type="curve" smooth="yes"/>
      <point x="166" y="353.824"/>
      <point x="209" y="410"/>
      <point x="279" y="410" type="curve" smooth="yes" name="sv01"/>
      <point x="353" y="410"/>
      <point x="398" y="348.809"/>
      <point x="398" y="250.502" type="curve" smooth="yes"/>
      <point x="398" y="153.197"/>
      <point x="354" y="90"/>
    </contour>
    <contour>
      <point x="398" y="0" type="line" name="ab01"/>
      <point x="543" y="0" type="line"/>
      <point x="543" y="500" type="line" name="av01"/>
      <point x="398" y="500" type="line"/>
    </contour>
  </outline>
</glyph>
<glyph name="g" format="2">
  <advance width="605"/>
  <unicode hex="0067"/>
  <anchor x="278" y="-220" name="bottom"/>
  <anchor x="292" y="520" name="top"/>
  <outline>
    <contour>
      <point x="271.452" y="-220" type="curve" smooth="yes" name="at01"/>
      <point x="439.793" y="-220"/>
      <point x="541" y="-124"/>
      <point x="541" y="52" type="curve" smooth="yes"/>
      <point x="541" y="500" type="line" name="av01"/>
      <point x="396" y="500" type="line"/>
      <point x="396" y="64.286" type="line" smooth="yes"/>
      <point x="396" y="-59.918"/>
      <point x="345" y="-110"/>
      <point x="260" y="-110" type="curve" smooth="yes" name="sv01"/>
      <point x="207" y="-110"/>
      <point x="157" y="-90.648"/>
      <point x="126" y="-55" type="curve"/>
      <point x="48" y="-133" type="line"/>
      <point x="98.101" y="-190"/>
      <point x="177.262" y="-220"/>
    </contour>
    <contour>
      <point x="242" y="-20" type="curve" smooth="yes" name="dv01"/>
      <point x="366" y="-20"/>
      <point x="428" y="89"/>
      <point x="428" y="253" type="curve" smooth="yes"/>
      <point x="428" y="423"/>
      <point x="361" y="520"/>
      <point x="236" y="520" type="curve" smooth="yes" name="at01"/>
      <point x="104" y="520"/>
      <point x="30" y="411"/>
      <point x="30" y="259" type="curve" smooth="yes"/>
      <point x="30" y="99"/>
      <point x="113" y="-20"/>
    </contour>
    <contour>
      <point x="284.493" y="90" type="curve" smooth="yes" name="dv02"/>
      <point x="215.181" y="90"/>
      <point x="175" y="151.191"/>
      <point x="175" y="254.514" type="curve" smooth="yes"/>
      <point x="175" y="355.831"/>
      <point x="214.176" y="410"/>
      <point x="281.48" y="410" type="curve" smooth="yes" name="sv01"/>
      <point x="353.805" y="410"/>
      <point x="396" y="348.809"/>
      <point x="396" y="250.502" type="curve" smooth="yes"/>
      <point x="396" y="153.197"/>
      <point x="354.81" y="90"/>
    </contour>
  </outline>
</glyph>
<glyph name="k" format="2">
  <advance width="574"/>
  <unicode hex="006B"/>
  <anchor x="277" y="-20" name="bottom"/>
  <anchor x="126" y="750" name="top"/>
  <outline>
    <contour>
      <point x="392" y="0" type="line" name="ab02"/>
      <point x="557" y="0" type="line"/>
      <point x="416" y="265" type="line"/>
      <point x="541" y="500" type="line" name="av02"/>
      <point x="391" y="500" type="line"/>
      <point x="306" y="317" type="line" name="iv02"/>
      <point x="92" y="317" type="line"/>
      <point x="93" y="207" type="line"/>
      <point x="300" y="207" type="line" name="iv01"/>
    </contour>
    <contour>
      <point x="55" y="0" type="line" name="sv03"/>
      <point x="200" y="0" type="line" name="ab02"/>
      <point x="200" y="750" type="line" name="ab01"/>
      <point x="55" y="750" type="line"/>
    </contour>
  </outline>
</glyph>
<glyph name="l" format="2">
  <advance width="300"/>
  <unicode hex="006C"/>
  <anchor x="180" y="-20" name="bottom"/>
  <anchor x="128" y="750" name="top"/>
  <anchor x="240" y="750" name="topright"/>
  <outline>
    <contour>
      <point x="205.84" y="-20" type="curve" smooth="yes" name="dv01"/>
      <point x="246.72" y="-20"/>
      <point x="273" y="-12"/>
      <point x="318" y="3" type="curve"/>
      <point x="291" y="104" type="line"/>
      <point x="266" y="94.308"/>
      <point x="248.562" y="90"/>
      <point x="234.795" y="90" type="curve" smooth="yes" name="dv02"/>
      <point x="204.507" y="90"/>
      <point x="199" y="110.03"/>
      <point x="199" y="175.129" type="curve" smooth="yes"/>
      <point x="199" y="750" type="line" name="ab01"/>
      <point x="54" y="750" type="line"/>
      <point x="54" y="132" type="line" smooth="yes"/>
      <point x="54" y="30"/>
      <point x="97.8" y="-20"/>
    </contour>
  </outline>
</glyph>
<glyph name="m" format="2">
  <advance width="899"/>
  <unicode hex="006D"/>
  <anchor x="452" y="-20" name="bottom"/>
  <anchor x="452" y="520" name="top"/>
  <outline>
    <contour>
      <point x="704" y="278.68" type="curve" smooth="yes"/>
      <point x="704" y="0" type="line" name="ab01"/>
      <point x="849" y="0" type="line"/>
      <point x="849" y="314" type="line" smooth="yes"/>
      <point x="849" y="462"/>
      <point x="783" y="520"/>
      <point x="694" y="520" type="curve" smooth="yes" name="at01"/>
      <point x="601" y="520"/>
      <point x="533" y="456"/>
      <point x="516" y="361" type="curve"/>
      <point x="517" y="282" type="line"/>
      <point x="524" y="217" type="line" name="iv01"/>
      <point x="524" y="333.604"/>
      <point x="563" y="410"/>
      <point x="635" y="410" type="curve" smooth="yes" name="sv01"/>
      <point x="677" y="410"/>
      <point x="704" y="383.936"/>
    </contour>
    <contour>
      <point x="54" y="0" type="line" name="ab01"/>
      <point x="199" y="0" type="line" name="sh01"/>
      <point x="199" y="500" type="line" name="av01"/>
      <point x="54" y="500" type="line"/>
    </contour>
    <contour>
      <point x="379" y="278.68" type="curve" smooth="yes"/>
      <point x="379" y="0" type="line" name="ab01"/>
      <point x="524" y="0" type="line"/>
      <point x="524" y="314" type="line" smooth="yes"/>
      <point x="524" y="462"/>
      <point x="458" y="520"/>
      <point x="369" y="520" type="curve" smooth="yes" name="at01"/>
      <point x="276" y="520"/>
      <point x="208" y="456"/>
      <point x="191" y="361" type="curve"/>
      <point x="192" y="282" type="line"/>
      <point x="199" y="217" type="line" name="iv01"/>
      <point x="199" y="333.604"/>
      <point x="238" y="410"/>
      <point x="310" y="410" type="curve" smooth="yes" name="sv01"/>
      <point x="352" y="410"/>
      <point x="379" y="383.936"/>
    </contour>
  </outline>
</glyph>
<glyph name="n" format="2">
  <advance width="606"/>
  <unicode hex="006E"/>
  <anchor x="313" y="-20" name="bottom"/>
  <anchor x="313" y="520" name="top"/>
  <outline>
    <contour>
      <point x="411" y="278.68" type="curve" smooth="yes"/>
      <point x="411" y="0" type="line" name="ab01"/>
      <point x="556" y="0" type="line"/>
      <point x="556" y="314" type="line" smooth="yes"/>
      <point x="556" y="462"/>
      <point x="484.082" y="520"/>
      <point x="376.725" y="520" type="curve" smooth="yes" name="at01"/>
      <point x="285.003" y="520"/>
      <point x="211" y="456"/>
      <point x="192" y="361" type="curve"/>
      <point x="193" y="282" type="line"/>
      <point x="200" y="217" type="line" name="iv01"/>
      <point x="200" y="333.604"/>
      <point x="244.985" y="410"/>
      <point x="325.315" y="410" type="curve" smooth="yes" name="sv01"/>
      <point x="378.868" y="410"/>
      <point x="411" y="383.936"/>
    </contour>
    <contour>
      <point x="55" y="0" type="line" name="ab02"/>
      <point x="200" y="0" type="line"/>
      <point x="200" y="500" type="line" name="av01"/>
      <point x="55" y="500" type="line"/>
    </contour>
  </outline>
</glyph>
<glyph name="o" format="2">
  <advance width="578"/>
  <unicode hex="006F"/>
  <anchor x="289" y="-20" name="bottom"/>
  <anchor x="398" y="-3" name="ogonek"/>
  <anchor x="289" y="520" name="top"/>
  <anchor x="289" y="520" name="topgr"/>
  <outline>
    <contour>
      <point x="289" y="-20" type="curve" smooth="yes" name="dv01"/>
      <point x="463" y="-20"/>
      <point x="548" y="84"/>
      <point x="548" y="255" type="curve" smooth="yes"/>
      <point x="548" y="416"/>
      <point x="462" y="520"/>
      <point x="289" y="520" type="curve" smooth="yes" name="at01"/>
      <point x="127" y="520"/>
      <point x="30" y="416"/>
      <point x="30" y="255" type="curve" smooth="yes"/>
      <point x="30" y="84"/>
      <point x="128" y="-20"/>
    </contour>
    <contour>
      <point x="289" y="90" type="curve" smooth="yes" name="dv02"/>
      <point x="217" y="90"/>
      <point x="178" y="146.352"/>
      <point x="178" y="255.031" type="curve" smooth="yes"/>
      <point x="178" y="359.686"/>
      <point x="214" y="410"/>
      <point x="289" y="410" type="curve" smooth="yes" name="sv01"/>
      <point x="365" y="410"/>
      <point x="400" y="357.673"/>
      <point x="400" y="253.019" type="curve" smooth="yes"/>
      <point x="400" y="145.346"/>
      <point x="368" y="90"/>
    </contour>
  </outline>
</glyph>
<glyph name="q" format="2">
  <advance width="635"/>
  <unicode hex="0071"/>
  <anchor x="280" y="-20" name="bottom"/>
  <anchor x="281" y="520" name="top"/>
  <outline>
    <contour>
      <point x="259.226" y="-20" type="curve" smooth="yes" name="dv01"/>
      <point x="376.079" y="-20"/>
      <point x="439" y="89"/>
      <point x="439" y="255" type="curve" smooth="yes"/>
      <point x="439" y="423"/>
      <point x="371.085" y="520"/>
      <point x="253.233" y="520" type="curve" smooth="yes" name="at01"/>
      <point x="114.407" y="520"/>
      <point x="40.5" y="411"/>
      <point x="40.5" y="255" type="curve" smooth="yes"/>
      <point x="40.5" y="99"/>
      <point x="123.396" y="-20"/>
    </contour>
    <contour>
      <point x="295.749" y="90" type="curve" smooth="yes" name="dv02"/>
      <point x="229.6" y="90"/>
      <point x="185.5" y="155.204"/>
      <point x="185.5" y="255.517" type="curve" smooth="yes"/>
      <point x="185.5" y="350.815"/>
      <point x="227.595" y="410"/>
      <point x="296.751" y="410" type="curve" smooth="yes" name="sv01"/>
      <point x="363.903" y="410"/>
      <point x="407" y="348.809"/>
      <point x="407" y="256.52" type="curve" smooth="yes"/>
      <point x="407" y="153.197"/>
      <point x="364.905" y="90"/>
    </contour>
    <contour>
      <point x="407" y="-200" type="line"/>
      <point x="552" y="-200" type="line"/>
      <point x="552" y="500" type="line"/>
      <point x="407" y="500" type="line"/>
    </contour>
  </outline>
</glyph>
<glyph name="s" format="2">
  <advance width="487"/>
  <unicode hex="0073"/>
  <anchor x="243" y="-20" name="bottom"/>
  <anchor x="243" y="520" name="top"/>
  <outline>
    <contour>
      <point x="241" y="-20" type="curve" smooth="yes"/>
      <point x="364" y="-20"/>
      <point x="453" y="42.145"/>
      <point x="453" y="148.392" type="curve" smooth="yes"/>
      <point x="453" y="222.564"/>
      <point x="407.033" y="261.775"/>
      <point x="274" y="298.741" type="curve" smooth="yes"/>
      <point x="205.033" y="317.905"/>
      <point x="185" y="330.816"/>
      <point x="185" y="359.883" type="curve" smooth="yes"/>
      <point x="185" y="388.951"/>
      <point x="205" y="410"/>
      <point x="245" y="410" type="curve" smooth="yes"/>
      <point x="284" y="410"/>
      <point x="329" y="389.63"/>
      <point x="359" y="355" type="curve"/>
      <point x="437" y="433" type="line"/>
      <point x="390" y="487"/>
      <point x="317" y="520"/>
      <point x="233" y="520" type="curve" smooth="yes"/>
      <point x="114" y="520"/>
      <point x="40" y="453.846"/>
      <point x="40" y="363.636" type="curve" smooth="yes"/>
      <point x="40" y="288.462"/>
      <point x="91.067" y="235.601"/>
      <point x="230" y="200.256" type="curve" smooth="yes"/>
      <point x="288.067" y="185.484"/>
      <point x="308" y="173.193"/>
      <point x="308" y="144.126" type="curve" smooth="yes"/>
      <point x="308" y="109.044"/>
      <point x="277" y="90"/>
      <point x="231" y="90" type="curve" smooth="yes"/>
      <point x="184" y="90"/>
      <point x="139" y="110.37"/>
      <point x="109" y="145" type="curve"/>
      <point x="31" y="67" type="line"/>
      <point x="78" y="13"/>
      <point x="151" y="-20"/>
    </contour>
  </outline>
</glyph>
<glyph name="t" format="2">
  <advance width="395"/>
  <unicode hex="0074"/>
  <anchor x="230" y="-20" name="bottom"/>
  <anchor x="175" y="630" name="top"/>
  <anchor x="272" y="700" name="topright"/>
  <outline>
    <contour>
      <point x="254" y="-20" type="curve" smooth="yes" name="dv01"/>
      <point x="299.58" y="-20"/>
      <point x="327.49" y="-10.57"/>
      <point x="379.93" y="6.99" type="curve"/>
      <point x="352.72" y="108.75" type="line"/>
      <point x="321.82" y="95.7"/>
      <point x="299.26" y="90"/>
      <point x="282" y="90" type="curve" smooth="yes" name="dv02"/>
      <point x="249" y="90"/>
      <point x="243" y="110.03"/>
      <point x="243" y="175.12" type="curve" smooth="yes"/>
      <point x="243" y="620" type="line" name="ab01"/>
      <point x="98" y="620" type="line"/>
      <point x="98" y="132" type="line" smooth="yes"/>
      <point x="98" y="30"/>
      <point x="143" y="-20"/>
    </contour>
    <contour>
      <point x="11" y="390" type="line" name="dv03"/>
      <point x="368" y="390" type="line"/>
      <point x="368" y="500" type="line"/>
      <point x="11" y="500" type="line" name="dv04"/>
    </contour>
  </outline>
</glyph>
<glyph name="v" format="2">
  <advance width="530"/>
  <unicode hex="0076"/>
  <anchor x="265" y="-20" name="bottom"/>
  <anchor x="265" y="520" name="top"/>
  <outline>
    <contour>
      <point x="197" y="0" type="line"/>
      <point x="333" y="0" type="line"/>
      <point x="525" y="500" type="line"/>
      <point x="371" y="500" type="line"/>
      <point x="265" y="179" type="line"/>
      <point x="159" y="500" type="line"/>
      <point x="5" y="500" type="line"/>
    </contour>
  </outline>
</glyph>
<glyph name="x" format="2">
  <advance width="574"/>
  <unicode hex="0078"/>
  <anchor x="287" y="-20" name="bottom"/>
  <anchor x="287" y="520" name="top"/>
  <outline>
    <contour>
      <point x="32" y="0" type="line" name="ab01"/>
      <point x="189" y="0" type="line"/>
      <point x="287" y="184" type="line" name="iv01"/>
      <point x="385" y="0" type="line" name="ab02"/>
      <point x="544" y="0" type="line"/>
      <point x="392.491" y="261.985" type="line"/>
      <point x="382.497" y="236.012" type="line"/>
      <point x="535" y="500" type="line" name="av02"/>
      <point x="376" y="500" type="line"/>
      <point x="270.949" y="302.761" type="line" name="iv02"/>
      <point x="305.051" y="302.761" type="line"/>
      <point x="200" y="500" type="line"/>
      <point x="41" y="500" type="line" name="av01"/>
      <point x="193.503" y="236.012" type="line"/>
      <point x="183.509" y="261.985" type="line"/>
    </contour>
  </outline>
</glyph>
<glyph name="y" format="2">
  <advance width="526"/>
  <unicode hex="0079"/>
  <anchor x="441" y="-63" name="bottom"/>
  <anchor x="263" y="520" name="top"/>
  <outline>
    <contour>
      <point x="160" y="-221" type="curve" smooth="yes" name="dv01"/>
      <point x="250" y="-221"/>
      <point x="300" y="-180"/>
      <point x="335" y="-78" type="curve" smooth="yes"/>
      <point x="534" y="500" type="line" name="av01"/>
      <point x="382" y="500" type="line"/>
      <point x="218" y="-35" type="line" smooth="yes"/>
      <point x="200.76" y="-91.239"/>
      <point x="170" y="-108"/>
      <point x="118" y="-108" type="curve" smooth="yes" name="dv02"/>
      <point x="103" y="-108"/>
      <point x="75" y="-105"/>
      <point x="56" y="-96" type="curve"/>
      <point x="31" y="-198" type="line"/>
      <point x="78" y="-212"/>
      <point x="92" y="-221"/>
    </contour>
    <contour>
      <point x="164" y="0" type="line"/>
      <point x="296" y="0" type="line"/>
      <point x="144" y="500" type="line" name="av02"/>
      <point x="-8" y="500" type="line"/>
    </contour>
  </outline>
</glyph>
<glyph name="z" format="2">
  <advance width="473"/>
  <unicode hex="007A"/>
  <anchor x="236" y="-20" name="bottom"/>
  <anchor x="246" y="520" name="top"/>
  <outline>
    <contour>
      <point x="23" y="0" type="line" name="ab01"/>
      <point x="450" y="0" type="line"/>
      <point x="450" y="110" type="line" name="sv01"/>
      <point x="198" y="110" type="line"/>
      <point x="450" y="414" type="line"/>
      <point x="450" y="500" type="line"/>
      <point x="43" y="500" type="line" name="dv02"/>
      <point x="43" y="390" type="line" name="dv01"/>
      <point x="275" y="390" type="line"/>
      <point x="23" y="86" type="line"/>
    </contour>
  </outline>
</glyph>
<glyph name="braceleft" format="2">
  <advance width="366"/>
  <unicode hex="007B"/>
  <outline>
    <contour>
      <point x="331" y="-336" type="curve"/>
      <point x="344" y="-303" type="line"/>
      <point x="282.392" y="-272.686"/>
      <point x="265.5" y="-202.279"/>
      <point x="265.5" y="-82.978" type="curve" smooth="yes"/>
      <point x="265.5" y="139" type="line" smooth="yes"/>
      <point x="265.5" y="203"/>
      <point x="256.458" y="261"/>
      <point x="159" y="289" type="curve"/>
      <point x="253.443" y="315"/>
      <point x="265.5" y="365"/>
      <point x="265.5" y="429" type="curve" smooth="yes"/>
      <point x="265.5" y="609.378" type="line" smooth="yes"/>
      <point x="265.5" y="732.363"/>
      <point x="282.392" y="809.229"/>
      <point x="344" y="841" type="curve"/>
      <point x="331" y="874" type="line"/>
      <point x="194.626" y="803.439"/>
      <point x="148.5" y="700.154"/>
      <point x="148.5" y="604.027" type="curve" smooth="yes"/>
      <point x="148.5" y="422" type="line" smooth="yes"/>
      <point x="148.5" y="372"/>
      <point x="110.673" y="310"/>
      <point x="39" y="299" type="curve"/>
      <point x="39" y="282" type="line"/>
      <point x="90.764" y="272"/>
      <point x="148.5" y="236"/>
      <point x="148.5" y="165" type="curve" smooth="yes"/>
      <point x="148.5" y="-75.205" type="line" smooth="yes"/>
      <point x="148.5" y="-174.229"/>
      <point x="194.626" y="-268.35"/>
    </contour>
  </outline>
</glyph>
<glyph name="braceright" format="2">
  <advance width="366"/>
  <unicode hex="007D"/>
  <outline>
    <contour>
      <point x="39" y="-303" type="curve"/>
      <point x="52" y="-336" type="line"/>
      <point x="188.374" y="-268.35"/>
      <point x="234.5" y="-174.229"/>
      <point x="234.5" y="-75.205" type="curve" smooth="yes"/>
      <point x="234.5" y="165" type="line" smooth="yes"/>
      <point x="234.5" y="236"/>
      <point x="292.236" y="272"/>
      <point x="344" y="282" type="curve"/>
      <point x="344" y="299" type="line"/>
      <point x="272.327" y="310"/>
      <point x="234.5" y="372"/>
      <point x="234.5" y="422" type="curve" smooth="yes"/>
      <point x="234.5" y="604.027" type="line" smooth="yes"/>
      <point x="234.5" y="700.154"/>
      <point x="188.374" y="803.439"/>
      <point x="52" y="874" type="curve"/>
      <point x="39" y="841" type="line"/>
      <point x="100.608" y="809.229"/>
      <point x="117.5" y="732.363"/>
      <point x="117.5" y="609.378" type="curve" smooth="yes"/>
      <point x="117.5" y="429" type="line" smooth="yes"/>
      <point x="117.5" y="365"/>
      <point x="129.557" y="315"/>
      <point x="224" y="289" type="curve"/>
      <point x="126.542" y="261"/>
      <point x="117.5" y="203"/>
      <point x="117.5" y="139" type="curve" smooth="yes"/>
      <point x="117.5" y="-82.978" type="line" smooth="yes"/>
      <point x="117.5" y="-202.279"/>
      <point x="100.608" y="-272.686"/>
    </contour>
  </outline>
</glyph>
<glyph name="cent" format="2">
  <advance width="563"/>
  <unicode hex="00A2"/>
  <outline>
    <contour>
      <point x="292" y="80" type="curve" smooth="yes" name="dv01"/>
      <point x="395" y="80"/>
      <point x="471" y="110"/>
      <point x="521" y="167" type="curve"/>
      <point x="443" y="245" type="line"/>
      <point x="414" y="211.389"/>
      <point x="370" y="190"/>
      <point x="314" y="190" type="curve" smooth="yes" name="dv02"/>
      <point x="209" y="190"/>
      <point x="184" y="263.459"/>
      <point x="184" y="355.031" type="curve" smooth="yes"/>
      <point x="184" y="459.686"/>
      <point x="222" y="510"/>
      <point x="297" y="510" type="curve" smooth="yes" name="sv01"/>
      <point x="352" y="510"/>
      <point x="404" y="490.648"/>
      <point x="435" y="455" type="curve"/>
      <point x="513" y="533" type="line"/>
      <point x="463" y="590"/>
      <point x="386" y="620"/>
      <point x="293" y="620" type="curve" smooth="yes" name="at01"/>
      <point x="131" y="620"/>
      <point x="39" y="516"/>
      <point x="39" y="355" type="curve" smooth="yes"/>
      <point x="39" y="184"/>
      <point x="131" y="80"/>
    </contour>
    <contour>
      <point x="278" y="-31" type="line"/>
      <point x="326" y="-31" type="line"/>
      <point x="326" y="90" type="line"/>
      <point x="278" y="89" type="line"/>
    </contour>
    <contour>
      <point x="277" y="610" type="line"/>
      <point x="327" y="610" type="line"/>
      <point x="327" y="730" type="line"/>
      <point x="277" y="730" type="line"/>
    </contour>
  </outline>
</glyph>
<glyph name="ordfeminine" format="2">
  <advance width="549"/>
  <unicode hex="00AA"/>
  <outline>
    <contour>
      <point x="250" y="320" type="curve" smooth="yes"/>
      <point x="354" y="320"/>
      <point x="411" y="396"/>
      <point x="411" y="520" type="curve" smooth="yes"/>
      <point x="411" y="644"/>
      <point x="354" y="720"/>
      <point x="249" y="720" type="curve" smooth="yes"/>
      <point x="142" y="720"/>
      <point x="63" y="642"/>
      <point x="63" y="522" type="curve" smooth="yes"/>
      <point x="63" y="401"/>
      <point x="142" y="320"/>
    </contour>
    <contour>
      <point x="278" y="400" type="curve" smooth="yes"/>
      <point x="209" y="400"/>
      <point x="168" y="446.78"/>
      <point x="168" y="520" type="curve" smooth="yes"/>
      <point x="168" y="593.22"/>
      <point x="210" y="640"/>
      <point x="277" y="640" type="curve" smooth="yes"/>
      <point x="344" y="640"/>
      <point x="384" y="594.237"/>
      <point x="384" y="518.983" type="curve" smooth="yes"/>
      <point x="384" y="443.729"/>
      <point x="344" y="400"/>
    </contour>
    <contour>
      <point x="384" y="335" type="line"/>
      <point x="489" y="335" type="line"/>
      <point x="489" y="702" type="line"/>
      <point x="384" y="702" type="line"/>
    </contour>
  </outline>
</glyph>
<glyph name="uni00B2" format="2">
  <advance width="432"/>
  <unicode hex="00B2"/>
  <outline>
    <contour>
      <point x="31" y="473" type="curve"/>
      <point x="31" y="389" type="line"/>
      <point x="303" y="451.327"/>
      <point x="402" y="543.052"/>
      <point x="402" y="673.427" type="curve" smooth="yes"/>
      <point x="402" y="780.986"/>
      <point x="334" y="834"/>
      <point x="220" y="834" type="curve" smooth="yes"/>
      <point x="137" y="834"/>
      <point x="78" y="803"/>
      <point x="35" y="751" type="curve"/>
      <point x="95" y="691" type="line"/>
      <point x="128" y="731"/>
      <point x="167" y="752"/>
      <point x="216" y="752" type="curve" smooth="yes"/>
      <point x="266" y="752"/>
      <point x="297" y="727.912"/>
      <point x="297" y="672.853" type="curve" smooth="yes"/>
      <point x="297" y="579.941"/>
      <point x="211" y="508"/>
    </contour>
    <contour>
      <point x="31" y="344" type="line"/>
      <point x="402" y="344" type="line"/>
      <point x="402" y="426" type="line"/>
      <point x="31" y="426" type="line"/>
    </contour>
  </outline>
</glyph>
<glyph name="uni00B9" format="2">
  <advance width="333"/>
  <unicode hex="00B9"/>
  <outline>
    <contour>
      <point x="186" y="709" type="curve"/>
      <point x="186" y="343" type="line"/>
      <point x="291" y="343" type="line"/>
      <point x="291" y="828" type="line"/>
      <point x="206" y="828" type="line"/>
      <point x="171" y="768"/>
      <point x="96" y="715"/>
      <point x="27" y="700" type="curve"/>
      <point x="27" y="617" type="line"/>
      <point x="105" y="635"/>
      <point x="159" y="666"/>
    </contour>
  </outline>
</glyph>
<glyph name="Eth" format="2">
  <advance width="732"/>
  <unicode hex="00D0"/>
  <outline>
    <contour>
      <point x="68" y="0" type="line" name="ab01"/>
      <point x="342" y="0" type="line" smooth="yes"/>
      <point x="555" y="0"/>
      <point x="699" y="141"/>
      <point x="699" y="350" type="curve" smooth="yes"/>
      <point x="699" y="558"/>
      <point x="554" y="700"/>
      <point x="342" y="700" type="curve" smooth="yes" name="at01"/>
      <point x="68" y="700" type="line"/>
    </contour>
    <contour>
      <point x="-0.28" y="336" type="line"/>
      <point x="398.082" y="336" type="line"/>
      <point x="398.082" y="370" type="line"/>
      <point x="-0.28" y="370" type="line"/>
    </contour>
    <contour>
      <point x="327.661" y="120" type="curve" smooth="yes"/>
      <point x="213" y="120" type="line" name="sv01"/>
      <point x="213" y="580" type="line" name="sv02"/>
      <point x="327.661" y="580" type="line" smooth="yes"/>
      <point x="464.257" y="580"/>
      <point x="551" y="484"/>
      <point x="551" y="349" type="curve" smooth="yes"/>
      <point x="551" y="209"/>
      <point x="458.274" y="120"/>
    </contour>
  </outline>
</glyph>
<glyph name="Thorn" format="2">
  <advance width="617"/>
  <unicode hex="00DE"/>
  <outline>
    <contour>
      <point x="140" y="153" type="line"/>
      <point x="307" y="153" type="line" smooth="yes"/>
      <point x="475" y="153"/>
      <point x="578" y="213"/>
      <point x="578" y="363" type="curve" smooth="yes"/>
      <point x="578" y="511"/>
      <point x="477" y="568"/>
      <point x="307" y="568" type="curve" smooth="yes"/>
      <point x="128" y="568" type="line"/>
      <point x="128" y="448" type="line"/>
      <point x="277" y="448" type="line" smooth="yes"/>
      <point x="392" y="448"/>
      <point x="432" y="425"/>
      <point x="432" y="364" type="curve" smooth="yes"/>
      <point x="432" y="299"/>
      <point x="387" y="273"/>
      <point x="277" y="273" type="curve" smooth="yes"/>
      <point x="140" y="273" type="line"/>
    </contour>
    <contour>
      <point x="68" y="0" type="line"/>
      <point x="214" y="0" type="line"/>
      <point x="214" y="700" type="line"/>
      <point x="68" y="700" type="line"/>
    </contour>
  </outline>
</glyph>
<glyph name="germandbls" format="2">
  <advance width="725"/>
  <unicode hex="00DF"/>
  <outline>
    <contour>
      <point x="471.501" y="-20" type="curve" smooth="yes"/>
      <point x="593.205" y="-20"/>
      <point x="677" y="48"/>
      <point x="677" y="147" type="curve" smooth="yes"/>
      <point x="677" y="303"/>
      <point x="501.5" y="297"/>
      <point x="501.5" y="384" type="curve" smooth="yes"/>
      <point x="501.5" y="445"/>
      <point x="572.5" y="468"/>
      <point x="572.5" y="579" type="curve" smooth="yes"/>
      <point x="572.5" y="687"/>
      <point x="474.93" y="749"/>
      <point x="328.061" y="749" type="curve" smooth="yes"/>
      <point x="174.003" y="749"/>
      <point x="60" y="680"/>
      <point x="60" y="545" type="curve" smooth="yes"/>
      <point x="60" y="0" type="line"/>
      <point x="205" y="0" type="line"/>
      <point x="205" y="495" type="line" smooth="yes"/>
      <point x="205" y="587"/>
      <point x="249.886" y="639"/>
      <point x="333.246" y="639" type="curve" smooth="yes"/>
      <point x="386.682" y="639"/>
      <point x="430.5" y="617.962"/>
      <point x="430.5" y="569.874" type="curve" smooth="yes"/>
      <point x="430.5" y="493.735"/>
      <point x="356.5" y="455.666"/>
      <point x="356.5" y="373.516" type="curve" smooth="yes"/>
      <point x="356.5" y="256.303"/>
      <point x="535" y="223.243"/>
      <point x="535" y="142.095" type="curve" smooth="yes"/>
      <point x="535" y="111.038"/>
      <point x="503.342" y="90"/>
      <point x="461.791" y="90" type="curve" smooth="yes"/>
      <point x="422.219" y="90"/>
      <point x="383.636" y="110.308"/>
      <point x="350" y="156" type="curve"/>
      <point x="268" y="74" type="line"/>
      <point x="313.112" y="11"/>
      <point x="388.297" y="-20"/>
    </contour>
  </outline>
</glyph>
<glyph name="ae" format="2">
  <advance width="935"/>
  <unicode hex="00E6"/>
  <anchor x="467" y="0" name="bottom"/>
  <anchor x="467" y="520" name="top"/>
  <outline>
    <contour>
      <point x="669.476" y="-20" type="curve" smooth="yes" name="at01"/>
      <point x="760.601" y="-20"/>
      <point x="838.008" y="10"/>
      <point x="887" y="67" type="curve"/>
      <point x="809" y="145" type="line"/>
      <point x="778.684" y="109.352"/>
      <point x="730.765" y="90"/>
      <point x="673.066" y="90" type="curve" smooth="yes" name="sv01"/>
      <point x="586.029" y="90"/>
      <point x="543" y="134.336"/>
      <point x="543" y="222" type="curve" name="sv04"/>
      <point x="904" y="222" type="line" name="dv03"/>
      <point x="904" y="419"/>
      <point x="814.556" y="520"/>
      <point x="657.79" y="520" type="curve" smooth="yes" name="at01"/>
      <point x="503.908" y="520"/>
      <point x="401" y="422"/>
      <point x="401" y="251" type="curve" smooth="yes" name="sv03"/>
      <point x="401" y="85"/>
      <point x="498.984" y="-20"/>
    </contour>
    <contour>
      <point x="241" y="-20" type="curve" smooth="yes" name="dv01"/>
      <point x="365" y="-20"/>
      <point x="430" y="79"/>
      <point x="430" y="248" type="curve" smooth="yes"/>
      <point x="430" y="423"/>
      <point x="360" y="520"/>
      <point x="232" y="520" type="curve" smooth="yes" name="at01"/>
      <point x="97" y="520"/>
      <point x="21" y="411"/>
      <point x="21" y="259" type="curve" smooth="yes"/>
      <point x="21" y="99"/>
      <point x="106" y="-20"/>
    </contour>
    <contour>
      <point x="282" y="90" type="curve" smooth="yes" name="dv02"/>
      <point x="211" y="90"/>
      <point x="166" y="152.194"/>
      <point x="166" y="254.514" type="curve" smooth="yes"/>
      <point x="166" y="353.824"/>
      <point x="209" y="410"/>
      <point x="279" y="410" type="curve" smooth="yes" name="sv01"/>
      <point x="353" y="410"/>
      <point x="398" y="348.809"/>
      <point x="398" y="250.502" type="curve" smooth="yes"/>
      <point x="398" y="153.197"/>
      <point x="354" y="90"/>
    </contour>
    <contour>
      <point x="398" y="0" type="line" name="ab01"/>
      <point x="543" y="0" type="line"/>
      <point x="543" y="500" type="line" name="av01"/>
      <point x="398" y="500" type="line"/>
    </contour>
    <contour>
      <point x="756" y="322" type="curve" name="dv04"/>
      <point x="543" y="322" type="line" name="sv02"/>
      <point x="550.621" y="376.621"/>
      <point x="594.247" y="410"/>
      <point x="652.713" y="410" type="curve" smooth="yes" name="sv01"/>
      <point x="710.251" y="410"/>
      <point x="750.182" y="382.621"/>
    </contour>
  </outline>
</glyph>
<glyph name="eth" format="2">
  <advance width="578"/>
  <unicode hex="00F0"/>
  <outline>
    <contour>
      <point x="291.048" y="-20" type="curve" smooth="yes"/>
      <point x="442.364" y="-20"/>
      <point x="548" y="88.778"/>
      <point x="548" y="263.035" type="curve" smooth="yes"/>
      <point x="548" y="504.931"/>
      <point x="349.528" y="673.715"/>
      <point x="145" y="760" type="curve"/>
      <point x="103" y="669" type="line"/>
      <point x="226.409" y="617.83"/>
      <point x="347.897" y="545.741"/>
      <point x="409.883" y="409.257" type="curve"/>
      <point x="384.963" y="446.928"/>
      <point x="333.319" y="471"/>
      <point x="274.699" y="471" type="curve" smooth="yes"/>
      <point x="132.94" y="471"/>
      <point x="36" y="374"/>
      <point x="36" y="231" type="curve" smooth="yes"/>
      <point x="36" y="85"/>
      <point x="138.781" y="-20"/>
    </contour>
    <contour>
      <point x="289.315" y="91" type="curve" smooth="yes"/>
      <point x="224.863" y="91"/>
      <point x="181" y="139"/>
      <point x="181" y="225" type="curve" smooth="yes"/>
      <point x="181" y="309"/>
      <point x="222.177" y="361"/>
      <point x="291.105" y="361" type="curve" smooth="yes"/>
      <point x="357.347" y="361"/>
      <point x="403" y="314"/>
      <point x="403" y="231" type="curve" smooth="yes"/>
      <point x="403" y="150"/>
      <point x="360.032" y="91"/>
    </contour>
    <contour>
      <point x="128" y="513" type="line"/>
      <point x="302.071" y="591.655" type="line"/>
      <point x="467" y="652" type="line"/>
      <point x="449" y="697" type="line"/>
      <point x="276.98" y="620.068" type="line"/>
      <point x="110" y="558" type="line"/>
    </contour>
  </outline>
</glyph>
<glyph name="oslash" format="2">
  <advance width="616"/>
  <unicode hex="00F8"/>
  <anchor x="308" y="-20" name="bottom"/>
  <anchor x="417" y="-3" name="ogonek"/>
  <anchor x="308" y="520" name="top"/>
  <anchor x="376" y="520" name="topgr"/>
  <outline>
    <contour>
      <point x="308" y="-20" type="curve" smooth="yes" name="dv01"/>
      <point x="482" y="-20"/>
      <point x="567" y="84"/>
      <point x="567" y="255" type="curve" smooth="yes"/>
      <point x="567" y="416"/>
      <point x="481" y="520"/>
      <point x="308" y="520" type="curve" smooth="yes" name="at01"/>
      <point x="146" y="520"/>
      <point x="49" y="416"/>
      <point x="49" y="255" type="curve" smooth="yes"/>
      <point x="49" y="84"/>
      <point x="147" y="-20"/>
    </contour>
    <contour>
      <point x="129.456" y="-77" type="line"/>
      <point x="156.114" y="-77" type="line"/>
      <point x="486.673" y="578.06" type="line"/>
      <point x="460.015" y="578.06" type="line"/>
    </contour>
    <contour>
      <point x="308" y="90" type="curve" smooth="yes" name="dv02"/>
      <point x="236" y="90"/>
      <point x="197" y="146.352"/>
      <point x="197" y="255.031" type="curve" smooth="yes"/>
      <point x="197" y="359.686"/>
      <point x="233" y="410"/>
      <point x="308" y="410" type="curve" smooth="yes" name="sv01"/>
      <point x="384" y="410"/>
      <point x="419" y="357.673"/>
      <point x="419" y="253.019" type="curve" smooth="yes"/>
      <point x="419" y="145.346"/>
      <point x="387" y="90"/>
    </contour>
  </outline>
</glyph>
<glyph name="thorn" format="2">
  <advance width="635"/>
  <unicode hex="00FE"/>
  <outline>
    <contour>
      <point x="73" y="-200" type="line" name="av01"/>
      <point x="218" y="-200" type="line"/>
      <point x="218" y="89.69" type="line"/>
      <point x="248.76" y="22.2"/>
      <point x="300.23" y="-20"/>
      <point x="366" y="-20" type="curve" smooth="yes" name="dv01"/>
      <point x="502" y="-20"/>
      <point x="585" y="99"/>
      <point x="585" y="255" type="curve" smooth="yes"/>
      <point x="585" y="411"/>
      <point x="511" y="520"/>
      <point x="372" y="520" type="curve" smooth="yes" name="at01"/>
      <point x="304.35" y="520"/>
      <point x="250.08" y="480.24"/>
      <point x="218" y="413.42" type="curve"/>
      <point x="217.94" y="750" type="line"/>
      <point x="73.28" y="750" type="line"/>
    </contour>
    <contour>
      <point x="329.5" y="90" type="curve" smooth="yes" name="dv02"/>
      <point x="260.19" y="90"/>
      <point x="218" y="153.19"/>
      <point x="218" y="256.52" type="curve" smooth="yes"/>
      <point x="218" y="348.8"/>
      <point x="261.19" y="410"/>
      <point x="328.49" y="410" type="curve" smooth="yes" name="sv01"/>
      <point x="395.8" y="410"/>
      <point x="440" y="348.8"/>
      <point x="440" y="255.51" type="curve" smooth="yes"/>
      <point x="440" y="158.21"/>
      <point x="393.79" y="90"/>
    </contour>
  </outline>
</glyph>
<glyph name="aogonek" format="2">
  <advance width="606"/>
  <unicode hex="0105"/>
  <anchor x="293" y="-20" name="bottom"/>
  <anchor x="293" y="520" name="top"/>
  <outline>
    <contour>
      <point x="241" y="-20" type="curve" smooth="yes" name="dv01"/>
      <point x="365" y="-20"/>
      <point x="430" y="79"/>
      <point x="430" y="248" type="curve" smooth="yes"/>
      <point x="430" y="423"/>
      <point x="360" y="520"/>
      <point x="232" y="520" type="curve" smooth="yes" name="at01"/>
      <point x="97" y="520"/>
      <point x="21" y="411"/>
      <point x="21" y="259" type="curve" smooth="yes"/>
      <point x="21" y="99"/>
      <point x="106" y="-20"/>
    </contour>
    <contour>
      <point x="482" y="-204" type="curve"/>
      <point x="539" y="-181" type="line"/>
      <point x="496" y="-167"/>
      <point x="475" y="-136"/>
      <point x="475" y="-102" type="curve" smooth="yes"/>
      <point x="475" y="-65"/>
      <point x="499" y="-23"/>
      <point x="538" y="1" type="curve"/>
      <point x="505" y="4" type="line"/>
      <point x="416" y="-12"/>
      <point x="365" y="-54"/>
      <point x="365" y="-107" type="curve" smooth="yes"/>
      <point x="365" y="-157"/>
      <point x="409" y="-194"/>
    </contour>
    <contour>
      <point x="282" y="90" type="curve" smooth="yes" name="dv02"/>
      <point x="211" y="90"/>
      <point x="166" y="152.194"/>
      <point x="166" y="254.514" type="curve" smooth="yes"/>
      <point x="166" y="353.824"/>
      <point x="209" y="410"/>
      <point x="279" y="410" type="curve" smooth="yes" name="sv01"/>
      <point x="353" y="410"/>
      <point x="398" y="348.809"/>
      <point x="398" y="250.502" type="curve" smooth="yes"/>
      <point x="398" y="153.197"/>
      <point x="354" y="90"/>
    </contour>
    <contour>
      <point x="398" y="0" type="line" name="ab01"/>
      <point x="543" y="0" type="line"/>
      <point x="543" y="500" type="line" name="av01"/>
      <point x="398" y="500" type="line"/>
    </contour>
  </outline>
</glyph>
<glyph name="Eogonek" format="2">
  <advance width="550"/>
  <unicode hex="0118"/>
  <anchor x="286" y="-20" name="bottom"/>
  <anchor x="275" y="719" name="top"/>
  <anchor x="-40" y="500" name="topgr"/>
  <outline>
    <contour>
      <point x="68" y="0" type="line"/>
      <point x="505" y="0" type="line"/>
      <point x="505" y="120" type="line" name="sv01"/>
      <point x="214" y="120" type="line"/>
      <point x="214" y="305" type="line" name="dv01"/>
      <point x="465" y="305" type="line"/>
      <point x="465" y="425" type="line"/>
      <point x="214" y="425" type="line" name="dv02"/>
      <point x="214" y="580" type="line" name="sv02"/>
      <point x="490" y="580" type="line"/>
      <point x="490" y="700" type="line" name="at01"/>
      <point x="68" y="700" type="line"/>
    </contour>
    <contour>
      <point x="449" y="-205" type="curve"/>
      <point x="506" y="-182" type="line"/>
      <point x="463" y="-168"/>
      <point x="442" y="-137"/>
      <point x="442" y="-103" type="curve" smooth="yes"/>
      <point x="442" y="-66"/>
      <point x="466" y="-24"/>
      <point x="505" y="0" type="curve" name="ab01"/>
      <point x="472" y="3" type="line"/>
      <point x="383" y="-13"/>
      <point x="332" y="-55"/>
      <point x="332" y="-108" type="curve" smooth="yes"/>
      <point x="332" y="-158"/>
      <point x="376" y="-195"/>
    </contour>
  </outline>
</glyph>
<glyph name="hbar" format="2">
  <advance width="641"/>
  <unicode hex="0127"/>
  <outline>
    <contour>
      <point x="422" y="258.68" type="curve" smooth="yes"/>
      <point x="422" y="0" type="line" name="ab01"/>
      <point x="567" y="0" type="line"/>
      <point x="567" y="294" type="line" smooth="yes"/>
      <point x="567" y="442"/>
      <point x="498" y="500"/>
      <point x="395" y="500" type="curve" smooth="yes" name="at01"/>
      <point x="307" y="500"/>
      <point x="236" y="436"/>
      <point x="217" y="341" type="curve"/>
      <point x="218" y="262" type="line"/>
      <point x="225" y="197" type="line" name="iv01"/>
      <point x="225" y="313.604"/>
      <point x="267" y="390"/>
      <point x="342" y="390" type="curve" smooth="yes" name="sv01"/>
      <point x="392" y="390"/>
      <point x="422" y="363.936"/>
    </contour>
    <contour>
      <point x="80" y="0" type="line" name="ab03"/>
      <point x="225" y="0" type="line"/>
      <point x="225" y="750" type="line" name="ab01"/>
      <point x="80" y="750" type="line"/>
    </contour>
    <contour>
      <point x="16.8" y="631" type="line"/>
      <point x="408.464" y="631" type="line"/>
      <point x="408.464" y="665" type="line"/>
      <point x="16.8" y="665" type="line"/>
    </contour>
  </outline>
</glyph>
<glyph name="iogonek" format="2">
  <advance width="272"/>
  <unicode hex="012F"/>
  <anchor x="136" y="-20" name="bottom"/>
  <anchor x="136" y="703" name="top"/>
  <outline>
    <contour>
      <point x="64" y="0" type="line"/>
      <point x="209" y="0" type="line"/>
      <point x="209" y="500" type="line"/>
      <point x="64" y="500" type="line"/>
    </contour>
    <contour>
      <point x="153" y="-205" type="curve"/>
      <point x="210" y="-182" type="line"/>
      <point x="167" y="-168"/>
      <point x="146" y="-137"/>
      <point x="146" y="-103" type="curve" smooth="yes"/>
      <point x="146" y="-66"/>
      <point x="170" y="-24"/>
      <point x="209" y="0" type="curve"/>
      <point x="176" y="3" type="line"/>
      <point x="87" y="-13"/>
      <point x="36" y="-55"/>
      <point x="36" y="-108" type="curve" smooth="yes"/>
      <point x="36" y="-158"/>
      <point x="80" y="-195"/>
    </contour>
    <contour>
      <point x="138" y="560" type="curve" smooth="yes"/>
      <point x="189" y="560"/>
      <point x="212" y="598"/>
      <point x="212" y="635" type="curve" smooth="yes"/>
      <point x="212" y="672"/>
      <point x="187" y="706"/>
      <point x="139" y="706" type="curve" smooth="yes"/>
      <point x="87" y="706"/>
      <point x="61" y="668"/>
      <point x="61" y="634" type="curve" smooth="yes"/>
      <point x="61" y="600"/>
      <point x="87" y="560"/>
    </contour>
  </outline>
</glyph>
<glyph name="dotlessi" format="2">
  <advance width="272"/>
  <unicode hex="0131"/>
  <anchor x="136" y="-20" name="bottom"/>
  <anchor x="204" y="-2" name="ogonek"/>
  <anchor x="136" y="520" name="top"/>
  <outline>
    <contour>
      <point x="64" y="0" type="line"/>
      <point x="209" y="0" type="line"/>
      <point x="209" y="500" type="line"/>
      <point x="64" y="500" type="line"/>
    </contour>
  </outline>
</glyph>
<glyph name="kgreenlandic" format="2">
  <advance width="594"/>
  <unicode hex="0138"/>
  <outline>
    <contour>
      <point x="409" y="0" type="line" name="ab02"/>
      <point x="574" y="0" type="line"/>
      <point x="433" y="265" type="line"/>
      <point x="558" y="500" type="line" name="av02"/>
      <point x="418" y="500" type="line"/>
      <point x="336" y="316" type="line" name="iv02"/>
      <point x="109" y="316" type="line"/>
      <point x="110" y="207" type="line"/>
      <point x="317" y="207" type="line" name="iv01"/>
    </contour>
    <contour>
      <point x="69" y="0" type="line"/>
      <point x="214" y="0" type="line"/>
      <point x="214" y="500" type="line"/>
      <point x="69" y="500" type="line"/>
    </contour>
  </outline>
</glyph>
<glyph name="OE" format="2">
  <advance width="968"/>
  <unicode hex="0152"/>
  <anchor x="484" y="-20" name="bottom"/>
  <anchor x="484" y="719" name="top"/>
  <outline>
    <contour>
      <point x="400" y="0" type="curve" smooth="yes"/>
      <point x="624.334" y="0" type="line" name="ab01"/>
      <point x="624.334" y="700" type="line"/>
      <point x="400" y="700" type="line" smooth="yes" name="at01"/>
      <point x="188" y="700"/>
      <point x="43" y="558"/>
      <point x="43" y="350" type="curve" smooth="yes"/>
      <point x="43" y="141"/>
      <point x="187" y="0"/>
    </contour>
    <contour>
      <point x="414.339" y="120" type="line"/>
      <point x="283.726" y="120"/>
      <point x="191" y="209"/>
      <point x="191" y="349" type="curve" smooth="yes"/>
      <point x="191" y="484"/>
      <point x="277.743" y="580"/>
      <point x="414.339" y="580" type="curve" smooth="yes"/>
      <point x="484.334" y="580" type="line" name="sv02"/>
      <point x="484.334" y="120" type="line" name="sv01"/>
    </contour>
    <contour>
      <point x="490.334" y="0" type="line"/>
      <point x="922.334" y="0" type="line" name="ab01"/>
      <point x="922.334" y="120" type="line" name="sv01"/>
      <point x="631.334" y="120" type="line"/>
      <point x="631.334" y="305" type="line" name="dv01"/>
      <point x="882.334" y="305" type="line"/>
      <point x="882.334" y="425" type="line"/>
      <point x="631.334" y="425" type="line" name="dv02"/>
      <point x="631.334" y="580" type="line" name="sv02"/>
      <point x="907.334" y="580" type="line"/>
      <point x="907.334" y="700" type="line" name="at01"/>
      <point x="490.334" y="700" type="line"/>
    </contour>
  </outline>
</glyph>
<glyph name="oe" format="2">
  <advance width="938"/>
  <unicode hex="0153"/>
  <anchor x="460" y="-20" name="bottom"/>
  <anchor x="460" y="520" name="top"/>
  <outline>
    <contour>
      <point x="658.64" y="-20" type="curve" smooth="yes" name="at01"/>
      <point x="748.85" y="-20"/>
      <point x="825.48" y="10"/>
      <point x="873.98" y="67" type="curve"/>
      <point x="798.32" y="145" type="line"/>
      <point x="768.471" y="109.352"/>
      <point x="721.291" y="90"/>
      <point x="664.481" y="90" type="curve" smooth="yes" name="sv01"/>
      <point x="578.786" y="90"/>
      <point x="536.42" y="134.336"/>
      <point x="536.42" y="222" type="curve" name="sv04"/>
      <point x="900.17" y="222" type="line" name="dv03"/>
      <point x="900.17" y="419"/>
      <point x="809.96" y="520"/>
      <point x="651.85" y="520" type="curve" smooth="yes" name="at01"/>
      <point x="496.65" y="520"/>
      <point x="392.86" y="422"/>
      <point x="392.86" y="251" type="curve" smooth="yes" name="sv03"/>
      <point x="392.86" y="85"/>
      <point x="489.86" y="-20"/>
    </contour>
    <contour>
      <point x="281.76" y="-20" type="curve" smooth="yes" name="dv01"/>
      <point x="450.54" y="-20"/>
      <point x="532.99" y="84"/>
      <point x="532.99" y="255" type="curve" smooth="yes"/>
      <point x="532.99" y="416"/>
      <point x="449.57" y="520"/>
      <point x="281.76" y="520" type="curve" smooth="yes" name="at01"/>
      <point x="124.62" y="520"/>
      <point x="30.53" y="416"/>
      <point x="30.53" y="255" type="curve" smooth="yes"/>
      <point x="30.53" y="84"/>
      <point x="125.59" y="-20"/>
    </contour>
    <contour>
      <point x="281.76" y="90" type="curve" smooth="yes" name="dv02"/>
      <point x="211.92" y="90"/>
      <point x="174.09" y="146.352"/>
      <point x="174.09" y="255.031" type="curve" smooth="yes"/>
      <point x="174.09" y="359.686"/>
      <point x="209.01" y="410"/>
      <point x="281.76" y="410" type="curve" smooth="yes" name="sv01"/>
      <point x="355.48" y="410"/>
      <point x="389.43" y="357.673"/>
      <point x="389.43" y="253.019" type="curve" smooth="yes"/>
      <point x="389.43" y="145.346"/>
      <point x="358.39" y="90"/>
    </contour>
    <contour>
      <point x="756.61" y="322" type="curve" name="dv04"/>
      <point x="536.42" y="322" type="line" name="sv02"/>
      <point x="545.15" y="376.621"/>
      <point x="589.364" y="410"/>
      <point x="649.919" y="410" type="curve" smooth="yes" name="sv01"/>
      <point x="709.512" y="410"/>
      <point x="747.959" y="376.621"/>
    </contour>
  </outline>
</glyph>
<glyph name="Scedilla" format="2">
  <advance width="600"/>
  <unicode hex="015E"/>
  <anchor x="290" y="-218" name="bottom"/>
  <anchor x="286" y="719" name="top"/>
  <outline>
    <contour>
      <point x="303" y="-20" type="curve" smooth="yes"/>
      <point x="465" y="-20"/>
      <point x="561" y="63.134"/>
      <point x="561" y="195.347" type="curve" smooth="yes"/>
      <point x="561" y="303.522"/>
      <point x="496.844" y="361.683"/>
      <point x="315.35" y="399.677" type="curve" smooth="yes"/>
      <point x="224.123" y="418.775"/>
      <point x="183" y="443.748"/>
      <point x="183" y="500.84" type="curve" smooth="yes"/>
      <point x="183" y="557.932"/>
      <point x="225.147" y="600"/>
      <point x="302.416" y="600" type="curve" smooth="yes"/>
      <point x="369.65" y="600"/>
      <point x="424.843" y="563.596"/>
      <point x="470" y="510" type="curve"/>
      <point x="555" y="595" type="line"/>
      <point x="492" y="672"/>
      <point x="406" y="720"/>
      <point x="289" y="720" type="curve" smooth="yes"/>
      <point x="134" y="720"/>
      <point x="38" y="634.863"/>
      <point x="38" y="501.648" type="curve" smooth="yes"/>
      <point x="38" y="384.459"/>
      <point x="112.102" y="317.843"/>
      <point x="297" y="279.289" type="curve" smooth="yes"/>
      <point x="381.104" y="261.752"/>
      <point x="416" y="243.231"/>
      <point x="416" y="194.152" type="curve" smooth="yes"/>
      <point x="416" y="136.058"/>
      <point x="368" y="100"/>
      <point x="293" y="100" type="curve" smooth="yes"/>
      <point x="218" y="100"/>
      <point x="163" y="136.404"/>
      <point x="118" y="190" type="curve"/>
      <point x="33" y="105" type="line"/>
      <point x="95" y="28"/>
      <point x="180" y="-20"/>
    </contour>
    <contour>
      <point x="270" y="-218" type="curve" smooth="yes"/>
      <point x="365" y="-218"/>
      <point x="414" y="-188"/>
      <point x="414" y="-135" type="curve" smooth="yes"/>
      <point x="414" y="-89"/>
      <point x="378" y="-64"/>
      <point x="316" y="-64" type="curve"/>
      <point x="360.665" y="16.274" type="line"/>
      <point x="274.665" y="16.274" type="line"/>
      <point x="217" y="-96" type="line"/>
      <point x="233" y="-94"/>
      <point x="246" y="-92"/>
      <point x="260" y="-92" type="curve" smooth="yes"/>
      <point x="294" y="-92"/>
      <point x="314" y="-105"/>
      <point x="314" y="-132" type="curve" smooth="yes"/>
      <point x="314" y="-158"/>
      <point x="294" y="-172"/>
      <point x="261" y="-172" type="curve" smooth="yes"/>
      <point x="241" y="-172"/>
      <point x="213" y="-167"/>
      <point x="193" y="-161" type="curve"/>
      <point x="173" y="-205" type="line"/>
      <point x="197" y="-213"/>
      <point x="231" y="-218"/>
    </contour>
  </outline>
</glyph>
<glyph name="uni0163" format="2">
  <advance width="395"/>
  <unicode hex="0163"/>
  <anchor x="210" y="-218" name="bottom"/>
  <anchor x="175" y="630" name="top"/>
  <anchor x="272" y="700" name="topright"/>
  <outline>
    <contour>
      <point x="254" y="-20" type="curve" smooth="yes" name="dv01"/>
      <point x="299.58" y="-20"/>
      <point x="327.49" y="-10.57"/>
      <point x="379.93" y="6.99" type="curve"/>
      <point x="352.72" y="108.75" type="line"/>
      <point x="321.82" y="95.7"/>
      <point x="299.26" y="90"/>
      <point x="282" y="90" type="curve" smooth="yes" name="dv02"/>
      <point x="249" y="90"/>
      <point x="243" y="110.03"/>
      <point x="243" y="175.12" type="curve" smooth="yes"/>
      <point x="243" y="620" type="line" name="ab01"/>
      <point x="98" y="620" type="line"/>
      <point x="98" y="132" type="line" smooth="yes"/>
      <point x="98" y="30"/>
      <point x="143" y="-20"/>
    </contour>
    <contour>
      <point x="190" y="-218" type="curve" smooth="yes"/>
      <point x="285" y="-218"/>
      <point x="334" y="-188"/>
      <point x="334" y="-135" type="curve" smooth="yes"/>
      <point x="334" y="-89"/>
      <point x="298" y="-64"/>
      <point x="236" y="-64" type="curve"/>
      <point x="280.665" y="16.274" type="line"/>
      <point x="194.665" y="16.274" type="line"/>
      <point x="137" y="-96" type="line"/>
      <point x="153" y="-94"/>
      <point x="166" y="-92"/>
      <point x="180" y="-92" type="curve" smooth="yes"/>
      <point x="214" y="-92"/>
      <point x="234" y="-105"/>
      <point x="234" y="-132" type="curve" smooth="yes"/>
      <point x="234" y="-158"/>
      <point x="214" y="-172"/>
      <point x="181" y="-172" type="curve" smooth="yes"/>
      <point x="161" y="-172"/>
      <point x="133" y="-167"/>
      <point x="113" y="-161" type="curve"/>
      <point x="93" y="-205" type="line"/>
      <point x="117" y="-213"/>
      <point x="151" y="-218"/>
    </contour>
    <contour>
      <point x="11" y="390" type="line" name="dv03"/>
      <point x="368" y="390" type="line"/>
      <point x="368" y="500" type="line"/>
      <point x="11" y="500" type="line" name="dv04"/>
    </contour>
  </outline>
</glyph>
<glyph name="Tbar" format="2">
  <advance width="648"/>
  <unicode hex="0166"/>
  <anchor x="324" y="-20" name="bottom"/>
  <anchor x="324" y="719" name="top"/>
  <outline>
    <contour>
      <point x="251" y="0" type="line" name="ab01"/>
      <point x="397" y="0" type="line"/>
      <point x="397" y="580" type="line" name="sv02"/>
      <point x="627" y="580" type="line" name="sv03"/>
      <point x="627" y="700" type="line"/>
      <point x="21" y="700" type="line" name="at01"/>
      <point x="21" y="580" type="line" name="sv01"/>
      <point x="251" y="580" type="line"/>
    </contour>
    <contour>
      <point x="74" y="338" type="line"/>
      <point x="574" y="338" type="line"/>
      <point x="574" y="374" type="line"/>
      <point x="74" y="374" type="line"/>
    </contour>
  </outline>
</glyph>
<glyph name="uni018F" format="2">
  <advance width="759"/>
  <unicode hex="018F"/>
  <anchor x="380" y="-20" name="bottom"/>
  <anchor x="380" y="719" name="top"/>
  <outline>
    <contour>
      <point x="380" y="-20" type="curve" smooth="yes" name="dv01"/>
      <point x="589" y="-20"/>
      <point x="726" y="129"/>
      <point x="726" y="355" type="curve" smooth="yes" name="sh03"/>
      <point x="726" y="581"/>
      <point x="590" y="720"/>
      <point x="369" y="720" type="curve" smooth="yes" name="dv04"/>
      <point x="242" y="720"/>
      <point x="153" y="674"/>
      <point x="89" y="595" type="curve"/>
      <point x="174" y="510" type="line"/>
      <point x="222" y="566.629"/>
      <point x="284" y="600"/>
      <point x="371" y="600" type="curve" smooth="yes" name="dv03"/>
      <point x="504" y="600"/>
      <point x="577" y="521.687"/>
      <point x="577" y="356.024" type="curve" smooth="yes"/>
      <point x="577" y="194.378"/>
      <point x="507" y="100"/>
      <point x="382" y="100" type="curve" smooth="yes" name="dv02"/>
      <point x="270" y="100"/>
      <point x="194" y="175.389"/>
      <point x="185" y="294" type="curve" name="sh02"/>
      <point x="589" y="294" type="line" name="dv05"/>
      <point x="590" y="409" type="line" name="dv06"/>
      <point x="37" y="409" type="line" name="sh04"/>
      <point x="35" y="394"/>
      <point x="33" y="371"/>
      <point x="33" y="345" type="curve" smooth="yes" name="sh01"/>
      <point x="33" y="130"/>
      <point x="171" y="-20"/>
    </contour>
  </outline>
</glyph>
<glyph name="florin" format="2">
  <advance width="533"/>
  <unicode hex="0192"/>
  <outline>
    <contour>
      <point x="51" y="-17" type="curve" smooth="yes"/>
      <point x="221" y="-17"/>
      <point x="289" y="79"/>
      <point x="289" y="378" type="curve" smooth="yes"/>
      <point x="289" y="563"/>
      <point x="319" y="608"/>
      <point x="393" y="608" type="curve" smooth="yes"/>
      <point x="430" y="608"/>
      <point x="469" y="597"/>
      <point x="513" y="579" type="curve"/>
      <point x="534" y="696" type="line"/>
      <point x="472" y="713"/>
      <point x="436" y="719"/>
      <point x="391" y="719" type="curve" smooth="yes"/>
      <point x="217" y="719"/>
      <point x="144" y="629"/>
      <point x="144" y="365" type="curve" smooth="yes"/>
      <point x="144" y="172"/>
      <point x="105" y="94"/>
      <point x="40" y="94" type="curve" smooth="yes"/>
      <point x="21" y="94"/>
      <point x="-14" y="101"/>
      <point x="-71" y="120" type="curve"/>
      <point x="-90" y="6" type="line"/>
      <point x="-28" y="-11"/>
      <point x="8" y="-17"/>
    </contour>
    <contour>
      <point x="19" y="380" type="line"/>
      <point x="485" y="380" type="line"/>
      <point x="485" y="490" type="line"/>
      <point x="19" y="490" type="line"/>
    </contour>
  </outline>
</glyph>
<glyph name="uni0237" format="2">
  <advance width="290"/>
  <unicode hex="0237"/>
  <anchor x="100" y="-217" name="bottom"/>
  <anchor x="160" y="520" name="top"/>
  <outline>
    <contour>
      <point x="95.87" y="-221" type="curve" smooth="yes" name="dv01"/>
      <point x="182.609" y="-221"/>
      <point x="231" y="-174"/>
      <point x="231" y="-68" type="curve" smooth="yes"/>
      <point x="231" y="500" type="line"/>
      <point x="86" y="500" type="line" name="av01"/>
      <point x="86" y="-22" type="line" smooth="yes"/>
      <point x="86" y="-87"/>
      <point x="79.818" y="-108"/>
      <point x="51.227" y="-108" type="curve" smooth="yes" name="dv02"/>
      <point x="39.636" y="-108"/>
      <point x="23" y="-105"/>
      <point x="4" y="-96" type="curve"/>
      <point x="-26" y="-198" type="line"/>
      <point x="21" y="-212"/>
      <point x="33.783" y="-221"/>
    </contour>
  </outline>
</glyph>
<glyph name="uni0259" format="2">
  <advance width="613"/>
  <unicode hex="0259"/>
  <anchor x="306" y="-20" name="bottom"/>
  <anchor x="306" y="520" name="top"/>
  <outline>
    <contour>
      <point x="306" y="-20" type="curve" smooth="yes" name="dv01"/>
      <point x="466" y="-20"/>
      <point x="564" y="89"/>
      <point x="564" y="254" type="curve" smooth="yes" name="sh02"/>
      <point x="564" y="421"/>
      <point x="463" y="520"/>
      <point x="300" y="520" type="curve" smooth="yes" name="at01"/>
      <point x="210" y="520"/>
      <point x="131" y="490"/>
      <point x="80" y="433" type="curve"/>
      <point x="158" y="355" type="line"/>
      <point x="187" y="387.593"/>
      <point x="238" y="410"/>
      <point x="290" y="410" type="curve" smooth="yes" name="sv01"/>
      <point x="362" y="410"/>
      <point x="414" y="365.6"/>
      <point x="420" y="299" type="curve" name="sh03"/>
      <point x="53" y="299" type="line" name="dv04"/>
      <point x="51" y="284"/>
      <point x="50" y="275"/>
      <point x="50" y="258" type="curve" smooth="yes" name="sh01"/>
      <point x="50" y="85"/>
      <point x="149" y="-20"/>
    </contour>
    <contour>
      <point x="307" y="90" type="curve" smooth="yes" name="dv02"/>
      <point x="246" y="90"/>
      <point x="207" y="129"/>
      <point x="199" y="209" type="curve" name="dv03"/>
      <point x="418" y="209" type="line" name="ah01"/>
      <point x="411" y="133.398"/>
      <point x="372" y="90"/>
    </contour>
  </outline>
</glyph>
<glyph name="acutecomb" format="2">
  <advance width="0"/>
  <unicode hex="0301"/>
  <anchor x="123" y="500" name="_top"/>
  <anchor x="139" y="700" name="top"/>
  <outline>
    <contour>
      <point x="78" y="550" type="line"/>
      <point x="169" y="550" type="line"/>
      <point x="273" y="701" type="line"/>
      <point x="149" y="701" type="line"/>
    </contour>
  </outline>
</glyph>
<glyph name="uni0304" format="2">
  <advance width="0"/>
  <unicode hex="0304"/>
  <anchor x="180" y="500" name="_top"/>
  <anchor x="180" y="640" name="top"/>
  <outline>
    <contour>
      <point x="20.5" y="597" type="line"/>
      <point x="339.5" y="597" type="line"/>
      <point x="339.5" y="645" type="line"/>
      <point x="20.5" y="645" type="line"/>
    </contour>
  </outline>
</glyph>
<glyph name="uni0307" format="2">
  <advance width="0"/>
  <unicode hex="0307"/>
  <anchor x="105" y="500" name="_top"/>
  <anchor x="105" y="683" name="top"/>
  <outline>
    <contour>
      <point x="107" y="540" type="curve" smooth="yes"/>
      <point x="158" y="540"/>
      <point x="181" y="578"/>
      <point x="181" y="615" type="curve" smooth="yes"/>
      <point x="181" y="652"/>
      <point x="156" y="686"/>
      <point x="108" y="686" type="curve" smooth="yes"/>
      <point x="56" y="686"/>
      <point x="30" y="648"/>
      <point x="30" y="614" type="curve" smooth="yes"/>
      <point x="30" y="580"/>
      <point x="56" y="540"/>
    </contour>
  </outline>
</glyph>
<glyph name="uni0308" format="2">
  <advance width="0"/>
  <unicode hex="0308"/>
  <anchor x="204" y="500" name="_top"/>
  <anchor x="204" y="500" name="_topgr"/>
  <anchor x="204" y="657" name="top"/>
  <outline>
    <contour>
      <point x="101.434" y="544.793" type="curve" smooth="yes"/>
      <point x="147.217" y="544.793"/>
      <point x="169.576" y="579.363"/>
      <point x="169.576" y="613" type="curve" smooth="yes"/>
      <point x="169.576" y="649.44"/>
      <point x="147.217" y="681.207"/>
      <point x="101.434" y="681.207" type="curve" smooth="yes"/>
      <point x="53.782" y="681.207"/>
      <point x="30.489" y="644.768"/>
      <point x="30.489" y="613" type="curve" smooth="yes"/>
      <point x="30.489" y="582.166"/>
      <point x="53.782" y="544.793"/>
    </contour>
    <contour>
      <point x="308.369" y="544.793" type="curve" smooth="yes"/>
      <point x="354.152" y="544.793"/>
      <point x="376.511" y="579.363"/>
      <point x="376.511" y="613" type="curve" smooth="yes"/>
      <point x="376.511" y="649.44"/>
      <point x="354.152" y="681.207"/>
      <point x="308.369" y="681.207" type="curve" smooth="yes"/>
      <point x="260.717" y="681.207"/>
      <point x="237.424" y="644.768"/>
      <point x="237.424" y="613" type="curve" smooth="yes"/>
      <point x="237.424" y="582.166"/>
      <point x="260.717" y="544.793"/>
    </contour>
  </outline>
</glyph>
<glyph name="uni030A" format="2">
  <advance width="0"/>
  <unicode hex="030A"/>
  <anchor x="135" y="500" name="_top"/>
  <anchor x="135" y="723" name="top"/>
  <outline>
    <contour>
      <point x="135" y="517" type="curve" smooth="yes"/>
      <point x="200" y="517"/>
      <point x="243" y="557.219"/>
      <point x="243" y="620" type="curve" smooth="yes"/>
      <point x="243" y="681.8"/>
      <point x="200" y="723"/>
      <point x="135" y="723" type="curve" smooth="yes"/>
      <point x="70" y="723"/>
      <point x="27" y="681.8"/>
      <point x="27" y="620" type="curve" smooth="yes"/>
      <point x="27" y="557.219"/>
      <point x="70" y="517"/>
    </contour>
    <contour>
      <point x="135" y="568" type="curve" smooth="yes"/>
      <point x="104" y="568"/>
      <point x="84" y="586.296"/>
      <point x="84" y="620" type="curve" smooth="yes"/>
      <point x="84" y="652.741"/>
      <point x="104" y="672"/>
      <point x="135" y="672" type="curve" smooth="yes"/>
      <point x="166" y="672"/>
      <point x="186" y="652.741"/>
      <point x="186" y="620" type="curve" smooth="yes"/>
      <point x="186" y="587.259"/>
      <point x="166" y="568"/>
    </contour>
  </outline>
</glyph>
<glyph name="uni030B" format="2">
  <advance width="0"/>
  <unicode hex="030B"/>
  <anchor x="141" y="500" name="_top"/>
  <anchor x="207" y="702" name="top"/>
  <outline>
    <contour>
      <point x="200" y="551" type="line"/>
      <point x="266" y="551" type="line"/>
      <point x="366" y="702" type="line"/>
      <point x="260" y="702" type="line"/>
    </contour>
    <contour>
      <point x="20" y="551" type="line"/>
      <point x="86" y="551" type="line"/>
      <point x="186" y="702" type="line"/>
      <point x="80" y="702" type="line"/>
    </contour>
  </outline>
</glyph>
<glyph name="uni030C" format="2">
  <advance width="0"/>
  <unicode hex="030C"/>
  <anchor x="173" y="500" name="_top"/>
  <anchor x="173" y="702" name="top"/>
  <outline>
    <contour>
      <point x="124" y="550" type="line"/>
      <point x="222" y="550" type="line"/>
      <point x="324" y="701" type="line"/>
      <point x="225" y="701" type="line"/>
      <point x="173" y="603" type="line"/>
      <point x="121" y="701" type="line"/>
      <point x="22" y="701" type="line"/>
    </contour>
  </outline>
</glyph>
<glyph name="uni0326" format="2">
  <advance width="0"/>
  <unicode hex="0326"/>
  <anchor x="123" y="0" name="_bottom"/>
  <anchor x="123" y="-248" name="bottom"/>
  <outline>
    <contour>
      <point x="71" y="-255" type="curve"/>
      <point x="84" y="-277" type="line"/>
      <point x="141" y="-260"/>
      <point x="183" y="-204"/>
      <point x="183" y="-141" type="curve" smooth="yes"/>
      <point x="183" y="-95"/>
      <point x="161" y="-67"/>
      <point x="121" y="-67" type="curve" smooth="yes"/>
      <point x="86" y="-67"/>
      <point x="63" y="-88"/>
      <point x="63" y="-119" type="curve" smooth="yes"/>
      <point x="63" y="-151"/>
      <point x="88" y="-173"/>
      <point x="119" y="-173" type="curve" smooth="yes"/>
      <point x="135" y="-173"/>
      <point x="148" y="-167"/>
      <point x="151" y="-163" type="curve"/>
      <point x="148" y="-198"/>
      <point x="116" y="-234"/>
    </contour>
  </outline>
</glyph>
<glyph name="uni0327" format="2">
  <advance width="0"/>
  <unicode hex="0327"/>
  <anchor x="171" y="-10" name="_bottom"/>
  <anchor x="151" y="-208" name="bottom"/>
  <outline>
    <contour>
      <point x="131" y="-208" type="curve" smooth="yes"/>
      <point x="226" y="-208"/>
      <point x="275" y="-178"/>
      <point x="275" y="-125" type="curve" smooth="yes"/>
      <point x="275" y="-79"/>
      <point x="239" y="-54"/>
      <point x="177" y="-54" type="curve"/>
      <point x="221.665" y="26.274" type="line"/>
      <point x="135.665" y="26.274" type="line"/>
      <point x="78" y="-86" type="line"/>
      <point x="94" y="-84"/>
      <point x="107" y="-82"/>
      <point x="121" y="-82" type="curve" smooth="yes"/>
      <point x="155" y="-82"/>
      <point x="175" y="-95"/>
      <point x="175" y="-122" type="curve" smooth="yes"/>
      <point x="175" y="-148"/>
      <point x="155" y="-162"/>
      <point x="122" y="-162" type="curve" smooth="yes"/>
      <point x="102" y="-162"/>
      <point x="74" y="-157"/>
      <point x="54" y="-151" type="curve"/>
      <point x="34" y="-195" type="line"/>
      <point x="58" y="-203"/>
      <point x="92" y="-208"/>
    </contour>
  </outline>
</glyph>
<glyph name="uni0328" format="2">
  <advance width="0"/>
  <unicode hex="0328"/>
  <anchor x="203" y="0" name="_ogonek"/>
  <outline>
    <contour>
      <point x="147" y="-203" type="curve"/>
      <point x="204" y="-180" type="line"/>
      <point x="161" y="-166"/>
      <point x="140" y="-135"/>
      <point x="140" y="-101" type="curve" smooth="yes"/>
      <point x="140" y="-64"/>
      <point x="164" y="-22"/>
      <point x="203" y="2" type="curve"/>
      <point x="170" y="5" type="line"/>
      <point x="81" y="-11"/>
      <point x="30" y="-53"/>
      <point x="30" y="-106" type="curve" smooth="yes"/>
      <point x="30" y="-156"/>
      <point x="74" y="-193"/>
    </contour>
  </outline>
</glyph>
<glyph name="uni0374" format="2">
  <advance width="243"/>
  <unicode hex="0374"/>
  <outline>
    <contour>
      <point x="20" y="498" type="line"/>
      <point x="139" y="498" type="line"/>
      <point x="218" y="715" type="line"/>
      <point x="141" y="715" type="line"/>
    </contour>
  </outline>
</glyph>
<glyph name="uni037E" format="2">
  <advance width="277"/>
  <unicode hex="037E"/>
  <outline>
    <contour>
      <point x="-14" y="-149" type="line"/>
      <point x="101" y="-149" type="line"/>
      <point x="173" y="119" type="line"/>
      <point x="95" y="119" type="line"/>
    </contour>
    <component base="period" xOffset="7" yOffset="381" identifier="A7A32960"/>
  </outline>
</glyph>
<glyph name="anoteleia" format="2">
  <advance width="262"/>
  <unicode hex="0387"/>
  <outline>
    <contour>
      <point x="131" y="361" type="curve" smooth="yes"/>
      <point x="176" y="361"/>
      <point x="210" y="397"/>
      <point x="210" y="441" type="curve" smooth="yes"/>
      <point x="210" y="485"/>
      <point x="176" y="519"/>
      <point x="131" y="519" type="curve" smooth="yes"/>
      <point x="85" y="519"/>
      <point x="52" y="485"/>
      <point x="52" y="441" type="curve" smooth="yes"/>
      <point x="52" y="397"/>
      <point x="85" y="361"/>
    </contour>
  </outline>
</glyph>
<glyph name="uni0394" format="2">
  <advance width="655"/>
  <unicode hex="0394"/>
  <outline>
    <contour>
      <point x="485" y="0" type="line"/>
      <point x="638" y="0" type="line"/>
      <point x="411" y="700" type="line"/>
      <point x="284" y="700" type="line"/>
    </contour>
    <contour>
      <point x="153" y="0" type="line" name="dv01"/>
      <point x="539.893" y="0" type="line"/>
      <point x="505.893" y="120" type="line" name="dv03"/>
      <point x="187" y="120" type="line" name="dv02"/>
    </contour>
    <contour>
      <point x="17" y="0" type="line"/>
      <point x="170" y="0" type="line"/>
      <point x="371" y="700" type="line"/>
      <point x="244" y="700" type="line"/>
    </contour>
  </outline>
</glyph>
<glyph name="Xi" format="2">
  <advance width="593"/>
  <unicode hex="039E"/>
  <outline>
    <contour>
      <point x="65" y="580" type="line"/>
      <point x="548" y="580" type="line"/>
      <point x="548" y="700" type="line"/>
      <point x="65" y="700" type="line"/>
    </contour>
    <contour>
      <point x="65" y="0" type="line"/>
      <point x="548" y="0" type="line"/>
      <point x="548" y="120" type="line"/>
      <point x="65" y="120" type="line"/>
    </contour>
    <contour>
      <point x="121" y="291" type="line"/>
      <point x="493" y="291" type="line"/>
      <point x="493" y="407" type="line"/>
      <point x="121" y="407" type="line"/>
    </contour>
  </outline>
</glyph>
<glyph name="Sigma" format="2">
  <advance width="570"/>
  <unicode hex="03A3"/>
  <outline>
    <contour>
      <point x="31" y="0" type="line"/>
      <point x="524" y="0" type="line"/>
      <point x="524" y="120" type="line"/>
      <point x="238" y="120" type="line"/>
      <point x="445" y="350" type="line"/>
      <point x="238" y="580" type="line"/>
      <point x="524" y="580" type="line"/>
      <point x="524" y="700" type="line"/>
      <point x="31" y="700" type="line"/>
      <point x="31" y="610" type="line"/>
      <point x="265" y="350" type="line"/>
      <point x="31" y="90" type="line"/>
    </contour>
  </outline>
</glyph>
<glyph name="beta" format="2">
  <advance width="630"/>
  <unicode hex="03B2"/>
  <anchor x="315" y="721" name="topgr"/>
  <outline>
    <contour>
      <point x="74" y="516" type="curve" smooth="yes"/>
      <point x="74" y="-200" type="line"/>
      <point x="219" y="-200" type="line"/>
      <point x="219" y="463" type="line" smooth="yes"/>
      <point x="219" y="568"/>
      <point x="254.913" y="609"/>
      <point x="325.74" y="609" type="curve" smooth="yes"/>
      <point x="387.59" y="609"/>
      <point x="424.5" y="585"/>
      <point x="424.5" y="516" type="curve" smooth="yes"/>
      <point x="424.5" y="456"/>
      <point x="396.584" y="408"/>
      <point x="344.74" y="408" type="curve" smooth="yes"/>
      <point x="258" y="408" type="line"/>
      <point x="258" y="308" type="line"/>
      <point x="344.219" y="308" type="line" smooth="yes"/>
      <point x="416.403" y="308"/>
      <point x="454.5" y="270.345"/>
      <point x="454.5" y="199" type="curve" smooth="yes"/>
      <point x="454.5" y="127.655"/>
      <point x="404.394" y="90"/>
      <point x="335.247" y="90" type="curve" smooth="yes"/>
      <point x="266.1" y="90"/>
      <point x="219" y="134.174"/>
      <point x="219" y="197" type="curve"/>
      <point x="187" y="99" type="line"/>
      <point x="217.962" y="20"/>
      <point x="291.873" y="-20"/>
      <point x="380.765" y="-20" type="curve" smooth="yes"/>
      <point x="512.605" y="-20"/>
      <point x="599.5" y="64"/>
      <point x="599.5" y="189" type="curve" smooth="yes"/>
      <point x="599.5" y="286"/>
      <point x="541.5" y="345"/>
      <point x="424.5" y="366" type="curve"/>
      <point x="520.16" y="385"/>
      <point x="569.5" y="441"/>
      <point x="569.5" y="531" type="curve" smooth="yes"/>
      <point x="569.5" y="648"/>
      <point x="485.415" y="719"/>
      <point x="327.256" y="719" type="curve" smooth="yes"/>
      <point x="169.096" y="719"/>
      <point x="74" y="648"/>
    </contour>
  </outline>
</glyph>
<glyph name="gamma" format="2">
  <advance width="543"/>
  <unicode hex="03B3"/>
  <anchor x="272" y="520" name="topgr"/>
  <outline>
    <contour>
      <point x="199" y="-200" type="line"/>
      <point x="344" y="-200" type="line"/>
      <point x="344" y="70" type="line"/>
      <point x="337" y="-16" type="line"/>
      <point x="528" y="500" type="line"/>
      <point x="372" y="500" type="line"/>
      <point x="267" y="165" type="line"/>
      <point x="276" y="165" type="line"/>
      <point x="171" y="500" type="line"/>
      <point x="15" y="500" type="line"/>
      <point x="206" y="-16" type="line"/>
      <point x="199" y="70" type="line"/>
    </contour>
  </outline>
</glyph>
<glyph name="delta" format="2">
  <advance width="578"/>
  <unicode hex="03B4"/>
  <anchor x="289" y="721" name="topgr"/>
  <outline>
    <contour>
      <point x="290" y="-20" type="curve" smooth="yes"/>
      <point x="451" y="-20"/>
      <point x="548" y="75"/>
      <point x="548" y="226" type="curve" smooth="yes"/>
      <point x="548" y="376"/>
      <point x="452" y="467"/>
      <point x="291" y="467" type="curve" smooth="yes"/>
      <point x="123" y="467"/>
      <point x="30" y="369"/>
      <point x="30" y="226" type="curve" smooth="yes"/>
      <point x="30" y="82"/>
      <point x="124" y="-20"/>
    </contour>
    <contour>
      <point x="287" y="90" type="curve" smooth="yes"/>
      <point x="211" y="90"/>
      <point x="175" y="138"/>
      <point x="175" y="220" type="curve" smooth="yes"/>
      <point x="175" y="308"/>
      <point x="217" y="357"/>
      <point x="288" y="357" type="curve" smooth="yes"/>
      <point x="359" y="357"/>
      <point x="403" y="308"/>
      <point x="403" y="220" type="curve" smooth="yes"/>
      <point x="403" y="136"/>
      <point x="362" y="90"/>
    </contour>
    <contour>
      <point x="286" y="438" type="curve"/>
      <point x="411" y="446" type="line"/>
      <point x="325" y="482.222"/>
      <point x="242" y="512.407"/>
      <point x="242" y="562.716" type="curve" smooth="yes"/>
      <point x="242" y="587.87"/>
      <point x="262" y="609"/>
      <point x="304" y="609" type="curve" smooth="yes"/>
      <point x="341" y="609"/>
      <point x="381" y="592.636"/>
      <point x="416" y="564" type="curve"/>
      <point x="494" y="642" type="line"/>
      <point x="442" y="690"/>
      <point x="374" y="719"/>
      <point x="293" y="719" type="curve" smooth="yes"/>
      <point x="171" y="719"/>
      <point x="97" y="653"/>
      <point x="97" y="573" type="curve" smooth="yes"/>
      <point x="97" y="483"/>
      <point x="191" y="444"/>
    </contour>
  </outline>
</glyph>
<glyph name="zeta" format="2">
  <advance width="560"/>
  <unicode hex="03B6"/>
  <anchor x="280" y="721" name="topgr"/>
  <outline>
    <contour>
      <point x="334" y="-200" type="curve"/>
      <point x="465.567" y="-200" type="line"/>
      <point x="486.39" y="-180"/>
      <point x="511" y="-139"/>
      <point x="511" y="-82" type="curve" smooth="yes"/>
      <point x="511" y="10"/>
      <point x="451" y="91"/>
      <point x="339" y="91" type="curve" smooth="yes"/>
      <point x="244" y="91"/>
      <point x="209" y="131"/>
      <point x="209" y="221" type="curve" smooth="yes"/>
      <point x="209" y="347"/>
      <point x="278" y="451"/>
      <point x="492" y="597" type="curve"/>
      <point x="492" y="700" type="line"/>
      <point x="49" y="700" type="line"/>
      <point x="49" y="590" type="line"/>
      <point x="339" y="590" type="line"/>
      <point x="141" y="465"/>
      <point x="64" y="349"/>
      <point x="64" y="212" type="curve" smooth="yes"/>
      <point x="64" y="80"/>
      <point x="137.351" y="-20"/>
      <point x="274.755" y="-20" type="curve" smooth="yes"/>
      <point x="357.404" y="-20"/>
      <point x="376" y="-56"/>
      <point x="376" y="-101" type="curve" smooth="yes"/>
      <point x="376" y="-143"/>
      <point x="359" y="-166"/>
    </contour>
  </outline>
</glyph>
<glyph name="eta" format="2">
  <advance width="601"/>
  <unicode hex="03B7"/>
  <anchor x="290" y="520" name="topgr"/>
  <outline>
    <contour>
      <point x="406" y="285.796" type="curve" smooth="yes"/>
      <point x="406" y="-200" type="line"/>
      <point x="551" y="-200" type="line"/>
      <point x="551" y="304" type="line" smooth="yes"/>
      <point x="551" y="448"/>
      <point x="500.275" y="520"/>
      <point x="390.71" y="520" type="curve" smooth="yes"/>
      <point x="281.145" y="520"/>
      <point x="220.275" y="448"/>
      <point x="201" y="370" type="curve"/>
      <point x="203" y="287" type="line"/>
      <point x="224" y="217" type="line"/>
      <point x="224" y="309.479"/>
      <point x="245.593" y="410"/>
      <point x="326.825" y="410" type="curve" smooth="yes"/>
      <point x="371.04" y="410"/>
      <point x="406" y="380.952"/>
    </contour>
    <contour>
      <point x="79" y="337" type="curve" smooth="yes"/>
      <point x="79" y="0" type="line"/>
      <point x="224" y="0" type="line"/>
      <point x="224" y="384" type="line" smooth="yes"/>
      <point x="224" y="482"/>
      <point x="168" y="520"/>
      <point x="13" y="520" type="curve"/>
      <point x="13" y="410" type="line"/>
      <point x="50" y="410"/>
      <point x="79" y="396"/>
    </contour>
  </outline>
</glyph>
<glyph name="theta" format="2">
  <advance width="606"/>
  <unicode hex="03B8"/>
  <anchor x="303" y="721" name="topgr"/>
  <outline>
    <contour>
      <point x="305" y="-20" type="curve" smooth="yes"/>
      <point x="481" y="-20"/>
      <point x="576" y="109"/>
      <point x="576" y="348" type="curve" smooth="yes"/>
      <point x="576" y="586"/>
      <point x="478" y="720"/>
      <point x="305" y="720" type="curve" smooth="yes"/>
      <point x="130" y="720"/>
      <point x="30" y="585"/>
      <point x="30" y="348" type="curve" smooth="yes"/>
      <point x="30" y="110"/>
      <point x="127" y="-20"/>
    </contour>
    <contour>
      <point x="305" y="90" type="curve" smooth="yes"/>
      <point x="216" y="90"/>
      <point x="176" y="168"/>
      <point x="176" y="346" type="curve" smooth="yes"/>
      <point x="176" y="532"/>
      <point x="214" y="610"/>
      <point x="305" y="610" type="curve" smooth="yes"/>
      <point x="394" y="610"/>
      <point x="431" y="532"/>
      <point x="431" y="346" type="curve" smooth="yes"/>
      <point x="431" y="164"/>
      <point x="395" y="90"/>
    </contour>
    <contour>
      <point x="172" y="300" type="line"/>
      <point x="435" y="300" type="line"/>
      <point x="435" y="400" type="line"/>
      <point x="172" y="400" type="line"/>
    </contour>
  </outline>
</glyph>
<glyph name="nu" format="2">
  <advance width="566"/>
  <unicode hex="03BD"/>
  <outline>
    <contour>
      <point x="194" y="-19" type="line"/>
      <point x="284" y="-19" type="line" smooth="yes"/>
      <point x="448" y="-19"/>
      <point x="536" y="89"/>
      <point x="536" y="266" type="curve" smooth="yes"/>
      <point x="536" y="362"/>
      <point x="510" y="448"/>
      <point x="475" y="500" type="curve"/>
      <point x="335" y="500" type="line"/>
      <point x="370" y="439"/>
      <point x="391" y="359"/>
      <point x="391" y="270" type="curve" smooth="yes"/>
      <point x="391" y="154"/>
      <point x="356" y="104"/>
      <point x="291" y="93" type="curve"/>
      <point x="159" y="500" type="line"/>
      <point x="5" y="500" type="line"/>
    </contour>
  </outline>
</glyph>
<glyph name="xi" format="2">
  <advance width="520"/>
  <unicode hex="03BE"/>
  <outline>
    <contour>
      <point x="322" y="-200" type="curve"/>
      <point x="453.567" y="-200" type="line"/>
      <point x="474.39" y="-180.137"/>
      <point x="499" y="-139.419"/>
      <point x="499" y="-82.811" type="curve" smooth="yes"/>
      <point x="499" y="8.557"/>
      <point x="432.898" y="89"/>
      <point x="299.692" y="89" type="curve" smooth="yes"/>
      <point x="217.565" y="89"/>
      <point x="175.5" y="115"/>
      <point x="175.5" y="164.484" type="curve" smooth="yes"/>
      <point x="175.5" y="234.935"/>
      <point x="259.669" y="271"/>
      <point x="424" y="271" type="curve"/>
      <point x="424" y="371" type="line"/>
      <point x="288.682" y="371"/>
      <point x="211.5" y="409.174"/>
      <point x="211.5" y="474.472" type="curve" smooth="yes"/>
      <point x="211.5" y="537.761"/>
      <point x="285.674" y="578.95"/>
      <point x="425" y="590" type="curve"/>
      <point x="409" y="633" type="line"/>
      <point x="195.312" y="625.827"/>
      <point x="66.5" y="561.269"/>
      <point x="66.5" y="459.82" type="curve" smooth="yes"/>
      <point x="66.5" y="389.113"/>
      <point x="129.317" y="343"/>
      <point x="238" y="326" type="curve"/>
      <point x="105.32" y="321"/>
      <point x="30.5" y="258.093"/>
      <point x="30.5" y="150.886" type="curve" smooth="yes"/>
      <point x="30.5" y="41.907"/>
      <point x="109.758" y="-21"/>
      <point x="246.657" y="-21" type="curve" smooth="yes"/>
      <point x="344.443" y="-21"/>
      <point x="364" y="-57"/>
      <point x="364" y="-101" type="curve" smooth="yes"/>
      <point x="364" y="-143"/>
      <point x="347" y="-166"/>
    </contour>
    <contour>
      <point x="63" y="590" type="line"/>
      <point x="426" y="590" type="line"/>
      <point x="426" y="700" type="line"/>
      <point x="63" y="700" type="line"/>
    </contour>
  </outline>
</glyph>
<glyph name="uni03C2" format="2">
  <advance width="572"/>
  <unicode hex="03C2"/>
  <anchor x="286" y="520" name="topgr"/>
  <outline>
    <contour>
      <point x="362" y="-200" type="curve"/>
      <point x="493.567" y="-200" type="line"/>
      <point x="514.39" y="-180.069"/>
      <point x="539" y="-139.21"/>
      <point x="539" y="-82.405" type="curve" smooth="yes"/>
      <point x="539" y="9.278"/>
      <point x="473" y="90"/>
      <point x="329" y="90" type="curve" smooth="yes"/>
      <point x="214" y="90"/>
      <point x="175" y="142.327"/>
      <point x="175" y="244.969" type="curve" smooth="yes"/>
      <point x="175" y="356.667"/>
      <point x="222" y="410"/>
      <point x="311" y="410" type="curve" smooth="yes" name="sv01"/>
      <point x="366" y="410"/>
      <point x="409" y="389.63"/>
      <point x="436" y="355" type="curve"/>
      <point x="514" y="433" type="line"/>
      <point x="464" y="490"/>
      <point x="386" y="520"/>
      <point x="295" y="520" type="curve" smooth="yes" name="at01"/>
      <point x="131" y="520"/>
      <point x="30" y="423"/>
      <point x="30" y="248" type="curve" smooth="yes"/>
      <point x="30" y="86"/>
      <point x="119.39" y="-20"/>
      <point x="285.841" y="-20" type="curve" smooth="yes"/>
      <point x="383.451" y="-20"/>
      <point x="404" y="-56"/>
      <point x="404" y="-101" type="curve" smooth="yes"/>
      <point x="404" y="-143"/>
      <point x="387" y="-166"/>
    </contour>
  </outline>
</glyph>
<glyph name="sigma" format="2">
  <advance width="629"/>
  <unicode hex="03C3"/>
  <anchor x="289" y="-20" name="bottom"/>
  <anchor x="398" y="-3" name="ogonek"/>
  <anchor x="289" y="520" name="topgr"/>
  <outline>
    <contour>
      <point x="289" y="-20" type="curve" smooth="yes" name="dv01"/>
      <point x="463" y="-20"/>
      <point x="548" y="80.148"/>
      <point x="548" y="244.815" type="curve" smooth="yes"/>
      <point x="548" y="399.852"/>
      <point x="462" y="500"/>
      <point x="289" y="500" type="curve" smooth="yes" name="at01"/>
      <point x="127" y="500"/>
      <point x="30" y="399.852"/>
      <point x="30" y="244.815" type="curve" smooth="yes"/>
      <point x="30" y="80.148"/>
      <point x="128" y="-20"/>
    </contour>
    <contour>
      <point x="289" y="85.926" type="curve" smooth="yes" name="dv02"/>
      <point x="217" y="85.926"/>
      <point x="178" y="140.191"/>
      <point x="178" y="244.845" type="curve" smooth="yes"/>
      <point x="178" y="345.623"/>
      <point x="214" y="394.074"/>
      <point x="289" y="394.074" type="curve" smooth="yes" name="sv01"/>
      <point x="365" y="394.074"/>
      <point x="400" y="343.685"/>
      <point x="400" y="242.907" type="curve" smooth="yes"/>
      <point x="400" y="139.222"/>
      <point x="368" y="85.926"/>
    </contour>
    <contour>
      <point x="327" y="390" type="line"/>
      <point x="602" y="390" type="line"/>
      <point x="602" y="500" type="line"/>
      <point x="285" y="500" type="line"/>
    </contour>
  </outline>
</glyph>
<glyph name="tau" format="2">
  <advance width="421"/>
  <unicode hex="03C4"/>
  <anchor x="210" y="520" name="topgr"/>
  <outline>
    <contour>
      <point x="301" y="0" type="curve" smooth="yes"/>
      <point x="339" y="0" type="line"/>
      <point x="339" y="110" type="line"/>
      <point x="292" y="110"/>
      <point x="283" y="115"/>
      <point x="283" y="167" type="curve" smooth="yes"/>
      <point x="283" y="500" type="line"/>
      <point x="138" y="500" type="line"/>
      <point x="138" y="153" type="line" smooth="yes"/>
      <point x="138" y="47"/>
      <point x="182" y="0"/>
    </contour>
    <contour>
      <point x="35" y="390" type="line"/>
      <point x="379" y="390" type="line"/>
      <point x="379" y="500" type="line"/>
      <point x="35" y="500" type="line"/>
    </contour>
  </outline>
</glyph>
<glyph name="upsilon" format="2">
  <advance width="589"/>
  <unicode hex="03C5"/>
  <anchor x="283" y="520" name="topgr"/>
  <outline>
    <contour>
      <point x="306" y="-20" type="curve" smooth="yes"/>
      <point x="477" y="-20"/>
      <point x="559" y="77"/>
      <point x="559" y="252" type="curve" smooth="yes"/>
      <point x="559" y="349"/>
      <point x="534" y="434"/>
      <point x="492" y="500" type="curve"/>
      <point x="353" y="500" type="line"/>
      <point x="388" y="426.175"/>
      <point x="414" y="347"/>
      <point x="414" y="254" type="curve" smooth="yes"/>
      <point x="414" y="147"/>
      <point x="380" y="90"/>
      <point x="304" y="90" type="curve" smooth="yes"/>
      <point x="245" y="90"/>
      <point x="211" y="131"/>
      <point x="211" y="222" type="curve" smooth="yes"/>
      <point x="211" y="500" type="line"/>
      <point x="66" y="500" type="line"/>
      <point x="66" y="185" type="line" smooth="yes"/>
      <point x="66" y="54"/>
      <point x="157" y="-20"/>
    </contour>
  </outline>
</glyph>
<glyph name="phi" format="2">
  <advance width="712"/>
  <unicode hex="03C6"/>
  <anchor x="356" y="520" name="topgr"/>
  <outline>
    <contour>
      <point x="281.5" y="-20" type="curve"/>
      <point x="281.5" y="-200" type="line"/>
      <point x="426.5" y="-200" type="line"/>
      <point x="426.5" y="-20" type="line"/>
      <point x="584.81" y="-20"/>
      <point x="681.5" y="84"/>
      <point x="681.5" y="250" type="curve" smooth="yes"/>
      <point x="681.5" y="421"/>
      <point x="582.747" y="520"/>
      <point x="429.131" y="520" type="curve" smooth="yes"/>
      <point x="334.368" y="520"/>
      <point x="281.5" y="470.886"/>
      <point x="281.5" y="375.664" type="curve" smooth="yes"/>
      <point x="281.5" y="90" type="line"/>
      <point x="205.786" y="91.003"/>
      <point x="175.5" y="155.204"/>
      <point x="175.5" y="253.511" type="curve" smooth="yes"/>
      <point x="175.5" y="328.746"/>
      <point x="197.683" y="384.922"/>
      <point x="236" y="410" type="curve"/>
      <point x="146" y="500" type="line"/>
      <point x="80.284" y="460"/>
      <point x="30.5" y="365"/>
      <point x="30.5" y="251" type="curve" smooth="yes"/>
      <point x="30.5" y="94"/>
      <point x="117.173" y="-20"/>
    </contour>
    <contour>
      <point x="426.5" y="90" type="curve"/>
      <point x="426.5" y="376.905" type="line" smooth="yes"/>
      <point x="426.5" y="396.968"/>
      <point x="432.555" y="407"/>
      <point x="451.729" y="407" type="curve" smooth="yes"/>
      <point x="496.133" y="407"/>
      <point x="536.5" y="349.82"/>
      <point x="536.5" y="251.509" type="curve" smooth="yes"/>
      <point x="536.5" y="152.196"/>
      <point x="493.106" y="90"/>
    </contour>
  </outline>
</glyph>
<glyph name="chi" format="2">
  <advance width="646"/>
  <unicode hex="03C7"/>
  <anchor x="323" y="520" name="topgr"/>
  <outline>
    <contour>
      <point x="607" y="-219" type="curve"/>
      <point x="607" y="-109" type="line"/>
      <point x="486.907" y="-109"/>
      <point x="429.636" y="-38.113"/>
      <point x="376.701" y="176.053" type="curve" smooth="yes"/>
      <point x="313.627" y="431.239"/>
      <point x="231.639" y="520"/>
      <point x="59" y="520" type="curve"/>
      <point x="59" y="410" type="line"/>
      <point x="158.529" y="410"/>
      <point x="207.213" y="345.694"/>
      <point x="258.051" y="147.077" type="curve" smooth="yes"/>
      <point x="326.967" y="-122.166"/>
      <point x="419.27" y="-219"/>
    </contour>
    <contour>
      <point x="36" y="-200" type="line" name="ab01"/>
      <point x="195" y="-200" type="line"/>
      <point x="609" y="500" type="line" name="at01"/>
      <point x="450" y="500" type="line"/>
    </contour>
  </outline>
</glyph>
<glyph name="psi" format="2">
  <advance width="774"/>
  <unicode hex="03C8"/>
  <anchor x="387" y="656" name="topgr"/>
  <outline>
    <contour>
      <point x="387" y="-20" type="curve" smooth="yes"/>
      <point x="575" y="-20"/>
      <point x="707" y="70"/>
      <point x="707" y="206" type="curve" smooth="yes"/>
      <point x="707" y="500" type="line"/>
      <point x="562" y="500" type="line"/>
      <point x="562" y="232" type="line" smooth="yes"/>
      <point x="562" y="149"/>
      <point x="486" y="91"/>
      <point x="387" y="91" type="curve" smooth="yes"/>
      <point x="293" y="91"/>
      <point x="211" y="142"/>
      <point x="211" y="232" type="curve" smooth="yes"/>
      <point x="211" y="500" type="line"/>
      <point x="66" y="500" type="line"/>
      <point x="66" y="206" type="line" smooth="yes"/>
      <point x="66" y="70"/>
      <point x="197" y="-20"/>
    </contour>
    <contour>
      <point x="314" y="-200" type="line"/>
      <point x="459" y="-200" type="line"/>
      <point x="459" y="656" type="line"/>
      <point x="314" y="656" type="line"/>
    </contour>
  </outline>
</glyph>
<glyph name="uni03D7" format="2">
  <advance width="594"/>
  <unicode hex="03D7"/>
  <outline>
    <contour>
      <point x="409" y="0" type="line" name="ab02"/>
      <point x="574" y="0" type="line"/>
      <point x="433" y="265" type="line"/>
      <point x="558" y="500" type="line" name="av02"/>
      <point x="418" y="500" type="line"/>
      <point x="336" y="316" type="line" name="iv02"/>
      <point x="109" y="316" type="line"/>
      <point x="110" y="207" type="line"/>
      <point x="317" y="207" type="line" name="iv01"/>
    </contour>
    <contour>
      <point x="211" y="-87" type="curve"/>
      <point x="211" y="-197" type="line"/>
      <point x="429.651" y="-197"/>
      <point x="547" y="-134"/>
      <point x="574" y="0" type="curve"/>
      <point x="409" y="1" type="line"/>
      <point x="409" y="-53"/>
      <point x="337.64" y="-87"/>
    </contour>
    <contour>
      <point x="69" y="0" type="line"/>
      <point x="214" y="0" type="line"/>
      <point x="214" y="500" type="line"/>
      <point x="69" y="500" type="line"/>
    </contour>
  </outline>
</glyph>
<glyph name="uni0402" format="2">
  <advance width="770"/>
  <unicode hex="0402"/>
  <outline>
    <contour>
      <point x="513" y="-21" type="curve" smooth="yes" name="dv01"/>
      <point x="644" y="-21"/>
      <point x="721" y="78"/>
      <point x="721" y="226" type="curve" smooth="yes"/>
      <point x="721" y="379"/>
      <point x="638.895" y="466"/>
      <point x="513.736" y="466" type="curve" smooth="yes"/>
      <point x="426.625" y="466"/>
      <point x="364.546" y="424"/>
      <point x="328.5" y="352" type="curve"/>
      <point x="328.5" y="580" type="line"/>
      <point x="564" y="580" type="line"/>
      <point x="564" y="700" type="line"/>
      <point x="21" y="700" type="line"/>
      <point x="21" y="580" type="line"/>
      <point x="183.5" y="580" type="line"/>
      <point x="183.5" y="0" type="line"/>
      <point x="328.5" y="0" type="line"/>
      <point x="328.5" y="190" type="line" smooth="yes"/>
      <point x="328.5" y="281"/>
      <point x="388.621" y="356"/>
      <point x="470.787" y="356" type="curve" smooth="yes"/>
      <point x="536.921" y="356"/>
      <point x="576" y="307"/>
      <point x="576" y="221" type="curve" smooth="yes"/>
      <point x="576" y="146"/>
      <point x="547" y="102"/>
      <point x="499" y="102" type="curve" smooth="yes" name="dv02"/>
      <point x="486" y="102"/>
      <point x="461" y="105"/>
      <point x="442" y="114" type="curve"/>
      <point x="413" y="2" type="line"/>
      <point x="460" y="-12"/>
      <point x="473" y="-21"/>
    </contour>
  </outline>
</glyph>
<glyph name="uni0404" format="2">
  <advance width="694"/>
  <unicode hex="0404"/>
  <anchor x="361" y="719" name="top"/>
  <outline>
    <contour>
      <point x="389" y="-20" type="curve" smooth="yes" name="dv01"/>
      <point x="502" y="-20"/>
      <point x="583" y="22"/>
      <point x="658" y="106" type="curve"/>
      <point x="573" y="191" type="line"/>
      <point x="525.244" y="135.549"/>
      <point x="468.533" y="104"/>
      <point x="389.934" y="104" type="curve" smooth="yes" name="dv02"/>
      <point x="255.619" y="104"/>
      <point x="181" y="199.639"/>
      <point x="181" y="355.423" type="curve" smooth="yes"/>
      <point x="181" y="508.249"/>
      <point x="253.629" y="596"/>
      <point x="384.957" y="596" type="curve" smooth="yes" name="dv03"/>
      <point x="465.545" y="596"/>
      <point x="524.244" y="564.112"/>
      <point x="572" y="510" type="curve"/>
      <point x="657" y="595" type="line"/>
      <point x="593" y="674"/>
      <point x="504" y="720"/>
      <point x="380" y="720" type="curve" smooth="yes" name="dv04"/>
      <point x="163" y="720"/>
      <point x="33" y="580"/>
      <point x="33" y="360" type="curve" smooth="yes"/>
      <point x="33" y="130"/>
      <point x="175" y="-20"/>
    </contour>
    <contour>
      <point x="484" y="298" type="line"/>
      <point x="484" y="418" type="line"/>
      <point x="149" y="418" type="line"/>
      <point x="149" y="298" type="line"/>
    </contour>
  </outline>
</glyph>
<glyph name="uni0409" format="2">
  <advance width="974"/>
  <unicode hex="0409"/>
  <outline>
    <contour>
      <point x="119" y="-20" type="curve" smooth="yes"/>
      <point x="241.702" y="-20"/>
      <point x="282.609" y="44.611"/>
      <point x="293.009" y="355.05" type="curve" smooth="yes"/>
      <point x="295.153" y="419.054"/>
      <point x="296" y="493.508"/>
      <point x="296" y="580" type="curve"/>
      <point x="477" y="580" type="line"/>
      <point x="477" y="0" type="line"/>
      <point x="696" y="0" type="line" smooth="yes"/>
      <point x="864" y="0"/>
      <point x="945" y="80.39"/>
      <point x="945" y="225.502" type="curve" smooth="yes"/>
      <point x="945" y="374.946"/>
      <point x="859" y="444"/>
      <point x="696" y="444" type="curve" smooth="yes"/>
      <point x="623" y="444" type="line"/>
      <point x="623" y="700" type="line"/>
      <point x="150" y="700" type="line"/>
      <point x="150" y="616.942"/>
      <point x="149.655" y="544.547"/>
      <point x="148.776" y="481.644" type="curve" smooth="yes"/>
      <point x="144.693" y="189.355"/>
      <point x="129.083" y="102"/>
      <point x="83" y="102" type="curve" smooth="yes"/>
      <point x="67" y="102"/>
      <point x="53" y="112"/>
      <point x="27" y="130" type="curve"/>
      <point x="1" y="9" type="line"/>
      <point x="42" y="-9"/>
      <point x="68" y="-20"/>
    </contour>
    <contour>
      <point x="657" y="120" type="curve" smooth="yes"/>
      <point x="623" y="120" type="line"/>
      <point x="623" y="324" type="line"/>
      <point x="663" y="324" type="line" smooth="yes"/>
      <point x="762" y="324"/>
      <point x="800" y="295.2"/>
      <point x="800" y="219.6" type="curve" smooth="yes"/>
      <point x="800" y="145.2"/>
      <point x="763" y="120"/>
    </contour>
  </outline>
</glyph>
<glyph name="uni040A" format="2">
  <advance width="970"/>
  <unicode hex="040A"/>
  <outline>
    <contour>
      <point x="68" y="0" type="line" name="ab01"/>
      <point x="214" y="0" type="line"/>
      <point x="214" y="325" type="line" name="dv01"/>
      <point x="472" y="325" type="line"/>
      <point x="472" y="0" type="line" name="ab02"/>
      <point x="618" y="0" type="line"/>
      <point x="618" y="700" type="line" name="at01"/>
      <point x="472" y="700" type="line"/>
      <point x="472" y="445" type="line"/>
      <point x="214" y="445" type="line" name="dv02"/>
      <point x="214" y="700" type="line" name="at02"/>
      <point x="68" y="700" type="line"/>
    </contour>
    <contour>
      <point x="495" y="0" type="line"/>
      <point x="692" y="0" type="line" smooth="yes"/>
      <point x="880" y="0"/>
      <point x="941" y="91.171"/>
      <point x="941" y="221.415" type="curve" smooth="yes"/>
      <point x="941" y="350.573"/>
      <point x="880" y="445"/>
      <point x="692" y="445" type="curve" smooth="yes"/>
      <point x="515" y="445" type="line"/>
      <point x="530" y="325" type="line"/>
      <point x="653" y="325" type="line" smooth="yes"/>
      <point x="769" y="325"/>
      <point x="796" y="297.265"/>
      <point x="796" y="224.912" type="curve" smooth="yes"/>
      <point x="796" y="146.529"/>
      <point x="765" y="120"/>
      <point x="645" y="120" type="curve" smooth="yes"/>
      <point x="607" y="120" type="line"/>
    </contour>
  </outline>
</glyph>
<glyph name="uni040F" format="2">
  <advance width="683"/>
  <unicode hex="040F"/>
  <outline>
    <contour>
      <point x="287" y="-158" type="curve"/>
      <point x="402" y="-158" type="line"/>
      <point x="415" y="-105"/>
      <point x="414" y="-52"/>
      <point x="398" y="0" type="curve"/>
      <point x="606" y="0" type="line"/>
      <point x="606" y="700" type="line"/>
      <point x="460" y="700" type="line"/>
      <point x="460" y="121" type="line"/>
      <point x="223" y="121" type="line"/>
      <point x="223" y="700" type="line"/>
      <point x="77" y="700" type="line"/>
      <point x="77" y="0" type="line"/>
      <point x="285" y="0" type="line"/>
      <point x="297" y="-38"/>
      <point x="298" y="-119"/>
    </contour>
  </outline>
</glyph>
<glyph name="uni0411" format="2">
  <advance width="613"/>
  <unicode hex="0411"/>
  <outline>
    <contour>
      <point x="67" y="0" type="line"/>
      <point x="333" y="0" type="line" smooth="yes"/>
      <point x="486" y="0"/>
      <point x="584" y="87.982"/>
      <point x="584" y="225.069" type="curve" smooth="yes"/>
      <point x="584" y="361.134"/>
      <point x="486" y="444"/>
      <point x="333" y="444" type="curve" smooth="yes"/>
      <point x="213" y="444" type="line"/>
      <point x="213" y="700" type="line"/>
      <point x="67" y="700" type="line"/>
    </contour>
    <contour>
      <point x="330" y="120" type="curve" smooth="yes"/>
      <point x="213" y="120" type="line"/>
      <point x="213" y="323" type="line"/>
      <point x="330" y="323" type="line" smooth="yes"/>
      <point x="407" y="323"/>
      <point x="438" y="288.29"/>
      <point x="438" y="224.13" type="curve" smooth="yes"/>
      <point x="438" y="159.969"/>
      <point x="407" y="120"/>
    </contour>
    <contour>
      <point x="108" y="579" type="line"/>
      <point x="535" y="579" type="line"/>
      <point x="535" y="700" type="line"/>
      <point x="75" y="700" type="line"/>
      <point x="75" y="693" type="line"/>
    </contour>
  </outline>
</glyph>
<glyph name="uni0414" format="2">
  <advance width="864"/>
  <unicode hex="0414"/>
  <outline>
    <contour>
      <point x="20" y="-140" type="curve"/>
      <point x="140" y="-140" type="line"/>
      <point x="140" y="-47"/>
      <point x="137" y="0"/>
      <point x="196" y="0" type="curve" smooth="yes"/>
      <point x="661" y="0" type="line" smooth="yes"/>
      <point x="732" y="0"/>
      <point x="724" y="-42"/>
      <point x="724" y="-140" type="curve"/>
      <point x="844" y="-140" type="line"/>
      <point x="844" y="101"/>
      <point x="812" y="119"/>
      <point x="712" y="119" type="curve"/>
      <point x="712" y="700" type="line"/>
      <point x="227" y="700" type="line"/>
      <point x="227" y="671" type="line" smooth="yes"/>
      <point x="227" y="235"/>
      <point x="213" y="194"/>
      <point x="148" y="121" type="curve"/>
      <point x="59" y="121"/>
      <point x="20" y="101"/>
    </contour>
    <contour>
      <point x="288" y="120" type="line"/>
      <point x="359.58" y="187.91"/>
      <point x="371.36" y="229.72"/>
      <point x="372.82" y="580" type="curve"/>
      <point x="566" y="580" type="line"/>
      <point x="566" y="120" type="line"/>
    </contour>
  </outline>
</glyph>
<glyph name="uni041F" format="2">
  <advance width="680"/>
  <unicode hex="041F"/>
  <anchor x="340" y="-20" name="bottom"/>
  <anchor x="340" y="719" name="top"/>
  <outline>
    <contour>
      <point x="67" y="0" type="line"/>
      <point x="213" y="0" type="line"/>
      <point x="213" y="580" type="line"/>
      <point x="467" y="580" type="line"/>
      <point x="467" y="0" type="line"/>
      <point x="613" y="0" type="line"/>
      <point x="613" y="700" type="line"/>
      <point x="67" y="700" type="line"/>
    </contour>
  </outline>
</glyph>
<glyph name="uni0423" format="2">
  <advance width="612"/>
  <unicode hex="0423"/>
  <anchor x="317" y="-20" name="bottom"/>
  <anchor x="306" y="719" name="top"/>
  <outline>
    <contour>
      <point x="81" y="40" type="curve"/>
      <point x="81" y="-80" type="line"/>
      <point x="224" y="-80"/>
      <point x="305" y="-54"/>
      <point x="339" y="36" type="curve" smooth="yes"/>
      <point x="594" y="700" type="line"/>
      <point x="437" y="700" type="line"/>
      <point x="235" y="118" type="line" smooth="yes"/>
      <point x="210.936" y="48.668"/>
      <point x="151" y="41"/>
    </contour>
    <contour>
      <point x="223" y="138" type="line"/>
      <point x="304" y="138" type="line"/>
      <point x="355" y="142" type="line"/>
      <point x="173" y="700" type="line"/>
      <point x="18" y="700" type="line"/>
    </contour>
  </outline>
</glyph>
<glyph name="uni0426" format="2">
  <advance width="760"/>
  <unicode hex="0426"/>
  <outline>
    <contour>
      <point x="619" y="-140" type="curve"/>
      <point x="739" y="-140" type="line"/>
      <point x="739" y="96"/>
      <point x="707" y="120"/>
      <point x="607" y="120" type="curve"/>
      <point x="607" y="701" type="line"/>
      <point x="461" y="701" type="line"/>
      <point x="461" y="120" type="line"/>
      <point x="223" y="120" type="line"/>
      <point x="223" y="701" type="line"/>
      <point x="77" y="701" type="line"/>
      <point x="77" y="0" type="line"/>
      <point x="556" y="0" type="line" smooth="yes"/>
      <point x="627" y="0"/>
      <point x="619" y="-42"/>
    </contour>
  </outline>
</glyph>
<glyph name="uni0427" format="2">
  <advance width="674"/>
  <unicode hex="0427"/>
  <anchor x="337" y="719" name="top"/>
  <outline>
    <contour>
      <point x="267" y="200" type="curve" smooth="yes"/>
      <point x="389" y="200"/>
      <point x="454" y="269"/>
      <point x="464" y="358" type="curve"/>
      <point x="451" y="464" type="line"/>
      <point x="451" y="375"/>
      <point x="391" y="320"/>
      <point x="313" y="320" type="curve" smooth="yes"/>
      <point x="242" y="320"/>
      <point x="206" y="365"/>
      <point x="206" y="464" type="curve" smooth="yes"/>
      <point x="206" y="700" type="line"/>
      <point x="60" y="700" type="line"/>
      <point x="60" y="421" type="line" smooth="yes"/>
      <point x="60" y="275"/>
      <point x="139" y="200"/>
    </contour>
    <contour>
      <point x="451" y="0" type="line"/>
      <point x="597" y="0" type="line"/>
      <point x="597" y="700" type="line"/>
      <point x="451" y="700" type="line"/>
    </contour>
  </outline>
</glyph>
<glyph name="uni0428" format="2">
  <advance width="970"/>
  <unicode hex="0428"/>
  <outline>
    <contour>
      <point x="77" y="0" type="line"/>
      <point x="893" y="0" type="line"/>
      <point x="893" y="700" type="line"/>
      <point x="747" y="700" type="line"/>
      <point x="747" y="120" type="line"/>
      <point x="558" y="120" type="line"/>
      <point x="558" y="700" type="line"/>
      <point x="412" y="700" type="line"/>
      <point x="412" y="120" type="line"/>
      <point x="223" y="120" type="line"/>
      <point x="223" y="700" type="line"/>
      <point x="77" y="700" type="line"/>
    </contour>
  </outline>
</glyph>
<glyph name="uni0429" format="2">
  <advance width="1060"/>
  <unicode hex="0429"/>
  <outline>
    <contour>
      <point x="907" y="-140" type="curve"/>
      <point x="1027" y="-140" type="line"/>
      <point x="1027" y="96"/>
      <point x="995" y="120"/>
      <point x="895" y="120" type="curve"/>
      <point x="895" y="700" type="line"/>
      <point x="749" y="700" type="line"/>
      <point x="749" y="120" type="line"/>
      <point x="559" y="120" type="line"/>
      <point x="559" y="700" type="line"/>
      <point x="413" y="700" type="line"/>
      <point x="413" y="120" type="line"/>
      <point x="223" y="120" type="line"/>
      <point x="223" y="700" type="line"/>
      <point x="77" y="700" type="line"/>
      <point x="77" y="0" type="line"/>
      <point x="844" y="0" type="line" smooth="yes"/>
      <point x="915" y="0"/>
      <point x="907" y="-42"/>
    </contour>
  </outline>
</glyph>
<glyph name="uni042A" format="2">
  <advance width="735"/>
  <unicode hex="042A"/>
  <outline>
    <contour>
      <point x="179" y="0" type="line"/>
      <point x="445" y="0" type="line" smooth="yes"/>
      <point x="598" y="0"/>
      <point x="696" y="89.963"/>
      <point x="696" y="230.138" type="curve" smooth="yes"/>
      <point x="696" y="369.267"/>
      <point x="598" y="454"/>
      <point x="445" y="454" type="curve" smooth="yes"/>
      <point x="325" y="454" type="line"/>
      <point x="325" y="700" type="line"/>
      <point x="179" y="700" type="line"/>
    </contour>
    <contour>
      <point x="21" y="579" type="line"/>
      <point x="194" y="579" type="line"/>
      <point x="227" y="693" type="line"/>
      <point x="227" y="700" type="line"/>
      <point x="21" y="700" type="line"/>
    </contour>
    <contour>
      <point x="442" y="120" type="curve" smooth="yes"/>
      <point x="325" y="120" type="line"/>
      <point x="325" y="333" type="line"/>
      <point x="442" y="333" type="line" smooth="yes"/>
      <point x="519" y="333"/>
      <point x="550" y="299.58"/>
      <point x="550" y="232.259" type="curve" smooth="yes"/>
      <point x="550" y="164.938"/>
      <point x="519" y="120"/>
    </contour>
  </outline>
</glyph>
<glyph name="uni042D" format="2">
  <advance width="694"/>
  <unicode hex="042D"/>
  <anchor x="330" y="719" name="top"/>
  <outline>
    <contour>
      <point x="302" y="-20" type="curve" smooth="yes" name="dv01"/>
      <point x="516" y="-20"/>
      <point x="658" y="130"/>
      <point x="658" y="360" type="curve" smooth="yes"/>
      <point x="658" y="580"/>
      <point x="528" y="720"/>
      <point x="311" y="720" type="curve" smooth="yes" name="dv04"/>
      <point x="187" y="720"/>
      <point x="98" y="674"/>
      <point x="34" y="595" type="curve"/>
      <point x="119" y="510" type="line"/>
      <point x="166.756" y="564.112"/>
      <point x="225.455" y="596"/>
      <point x="306.043" y="596" type="curve" smooth="yes" name="dv03"/>
      <point x="437.371" y="596"/>
      <point x="510" y="508.249"/>
      <point x="510" y="355.423" type="curve" smooth="yes"/>
      <point x="510" y="199.639"/>
      <point x="435.381" y="104"/>
      <point x="301.066" y="104" type="curve" smooth="yes" name="dv02"/>
      <point x="222.467" y="104"/>
      <point x="165.756" y="135.549"/>
      <point x="118" y="191" type="curve"/>
      <point x="33" y="106" type="line"/>
      <point x="108" y="22"/>
      <point x="189" y="-20"/>
    </contour>
    <contour>
      <point x="207" y="298" type="line"/>
      <point x="542" y="298" type="line"/>
      <point x="542" y="418" type="line"/>
      <point x="207" y="418" type="line"/>
    </contour>
  </outline>
</glyph>
<glyph name="uni042F" format="2">
  <advance width="648"/>
  <unicode hex="042F"/>
  <anchor x="324" y="-20" name="bottom"/>
  <anchor x="324" y="719" name="top"/>
  <outline>
    <contour>
      <point x="444.5" y="0" type="line" name="dv01"/>
      <point x="589.5" y="0" type="line"/>
      <point x="589.5" y="700" type="line"/>
      <point x="302.254" y="700" type="line" smooth="yes" name="at01"/>
      <point x="135.036" y="700"/>
      <point x="34.5" y="615"/>
      <point x="34.5" y="476" type="curve" smooth="yes"/>
      <point x="34.5" y="334"/>
      <point x="139.406" y="244"/>
      <point x="302.935" y="244" type="curve" smooth="yes"/>
      <point x="558" y="244" type="line" name="ab01"/>
      <point x="558" y="364" type="line" name="sv01"/>
      <point x="351.545" y="364" type="line" smooth="yes"/>
      <point x="229.55" y="364"/>
      <point x="179.5" y="396"/>
      <point x="179.5" y="472" type="curve" smooth="yes"/>
      <point x="179.5" y="548"/>
      <point x="230.584" y="580"/>
      <point x="355.102" y="580" type="curve" smooth="yes"/>
      <point x="444.5" y="580" type="line" name="dv02"/>
    </contour>
    <contour>
      <point x="31" y="0" type="line" name="ab02"/>
      <point x="189" y="0" type="line"/>
      <point x="352" y="281" type="line"/>
      <point x="221" y="333" type="line"/>
    </contour>
  </outline>
</glyph>
<glyph name="uni0431" format="2">
  <advance width="582"/>
  <unicode hex="0431"/>
  <outline>
    <contour>
      <point x="296.327" y="-20" type="curve" smooth="yes"/>
      <point x="461.933" y="-20"/>
      <point x="552" y="70.818"/>
      <point x="552" y="235.488" type="curve" smooth="yes"/>
      <point x="552" y="394.17"/>
      <point x="468.564" y="479"/>
      <point x="338.135" y="479" type="curve" smooth="yes"/>
      <point x="233.6" y="479"/>
      <point x="154" y="425.394"/>
      <point x="122" y="343" type="curve"/>
      <point x="122" y="515"/>
      <point x="168.919" y="562.132"/>
      <point x="317.395" y="578" type="curve" smooth="yes"/>
      <point x="412.204" y="588.132"/>
      <point x="478.308" y="612"/>
      <point x="508" y="639" type="curve"/>
      <point x="508" y="749" type="line"/>
      <point x="453.923" y="707.644"/>
      <point x="369.882" y="693.413"/>
      <point x="325.491" y="688" type="curve" smooth="yes"/>
      <point x="98.531" y="660.323"/>
      <point x="30" y="551.386"/>
      <point x="30" y="333.003" type="curve" smooth="yes"/>
      <point x="30" y="86.699"/>
      <point x="117.161" y="-20"/>
    </contour>
    <contour>
      <point x="291.604" y="90" type="curve" smooth="yes"/>
      <point x="216.224" y="90"/>
      <point x="179" y="142"/>
      <point x="179" y="231" type="curve" smooth="yes"/>
      <point x="179" y="322"/>
      <point x="218.086" y="369"/>
      <point x="293.465" y="369" type="curve" smooth="yes"/>
      <point x="367.914" y="369"/>
      <point x="407" y="322"/>
      <point x="407" y="233" type="curve" smooth="yes"/>
      <point x="407" y="142"/>
      <point x="366.053" y="90"/>
    </contour>
  </outline>
</glyph>
<glyph name="uni0432" format="2">
  <advance width="536"/>
  <unicode hex="0432"/>
  <anchor x="263" y="-20" name="bottom"/>
  <anchor x="263" y="520" name="top"/>
  <outline>
    <contour>
      <point x="60" y="0" type="line"/>
      <point x="306" y="0" type="line" smooth="yes"/>
      <point x="442" y="0"/>
      <point x="506" y="44"/>
      <point x="506" y="135" type="curve" smooth="yes"/>
      <point x="506" y="216"/>
      <point x="456" y="261"/>
      <point x="353" y="265" type="curve"/>
      <point x="441" y="283"/>
      <point x="474" y="314"/>
      <point x="474" y="383" type="curve" smooth="yes"/>
      <point x="474" y="467"/>
      <point x="425" y="500"/>
      <point x="296" y="500" type="curve" smooth="yes"/>
      <point x="60" y="500" type="line"/>
    </contour>
    <contour>
      <point x="286" y="110" type="curve" smooth="yes"/>
      <point x="205" y="110" type="line"/>
      <point x="205" y="207" type="line"/>
      <point x="280" y="207" type="line" smooth="yes"/>
      <point x="348" y="207"/>
      <point x="370" y="192"/>
      <point x="370" y="159" type="curve" smooth="yes"/>
      <point x="370" y="129"/>
      <point x="351" y="110"/>
    </contour>
    <contour>
      <point x="261" y="299" type="curve" smooth="yes"/>
      <point x="205" y="299" type="line"/>
      <point x="205" y="390" type="line"/>
      <point x="266" y="390" type="line" smooth="yes"/>
      <point x="317" y="390"/>
      <point x="338" y="376"/>
      <point x="338" y="347" type="curve" smooth="yes"/>
      <point x="338" y="315"/>
      <point x="312" y="299"/>
    </contour>
  </outline>
</glyph>
<glyph name="uni0436" format="2">
  <advance width="800"/>
  <unicode hex="0436"/>
  <anchor x="398" y="-20" name="bottom"/>
  <anchor x="400" y="520" name="top"/>
  <outline>
    <contour>
      <point x="119.46" y="236.62" type="curve"/>
      <point x="16" y="0" type="line"/>
      <point x="161" y="0" type="line" name="ab02"/>
      <point x="252.58" y="211" type="line" name="iv01"/>
      <point x="327" y="211" type="line"/>
      <point x="327" y="0" type="line"/>
      <point x="472" y="0" type="line" name="ab01"/>
      <point x="472" y="211" type="line"/>
      <point x="546.41" y="211" type="line" name="iv01"/>
      <point x="638" y="0" type="line" name="ab02"/>
      <point x="784" y="0" type="line"/>
      <point x="680.54" y="236.62" type="line"/>
      <point x="706.97" y="257.42"/>
      <point x="722.96" y="290.88"/>
      <point x="729" y="337" type="curve"/>
      <point x="746" y="500" type="line" name="av02"/>
      <point x="608" y="500" type="line"/>
      <point x="597" y="395" type="line" smooth="yes"/>
      <point x="591" y="345"/>
      <point x="577" y="321"/>
      <point x="523" y="321" type="curve" smooth="yes"/>
      <point x="472" y="321" type="line"/>
      <point x="472" y="500" type="line" name="av01"/>
      <point x="327" y="500" type="line"/>
      <point x="327" y="321" type="line"/>
      <point x="278" y="321" type="line" smooth="yes"/>
      <point x="223" y="321"/>
      <point x="209" y="346"/>
      <point x="203" y="396" type="curve" smooth="yes"/>
      <point x="192" y="500" type="line"/>
      <point x="54" y="500" type="line" name="av02"/>
      <point x="71" y="337" type="line"/>
      <point x="77.04" y="290.88"/>
      <point x="93.03" y="257.42"/>
    </contour>
  </outline>
</glyph>
<glyph name="uni0437" format="2">
  <advance width="495"/>
  <unicode hex="0437"/>
  <anchor x="270" y="-20" name="bottom"/>
  <anchor x="250" y="520" name="top"/>
  <outline>
    <contour>
      <point x="237" y="-20" type="curve" smooth="yes"/>
      <point x="372" y="-20"/>
      <point x="465" y="46"/>
      <point x="465" y="149" type="curve" smooth="yes"/>
      <point x="465" y="229.046"/>
      <point x="406.281" y="275"/>
      <point x="304" y="275" type="curve"/>
      <point x="388.894" y="275"/>
      <point x="438" y="316.411"/>
      <point x="438" y="388" type="curve" smooth="yes"/>
      <point x="438" y="473"/>
      <point x="366" y="520"/>
      <point x="246" y="520" type="curve" smooth="yes" name="at01"/>
      <point x="148" y="520"/>
      <point x="74" y="489"/>
      <point x="25" y="433" type="curve"/>
      <point x="113" y="345" type="line"/>
      <point x="145" y="389.688"/>
      <point x="180" y="410"/>
      <point x="228" y="410" type="curve" smooth="yes" name="sv01"/>
      <point x="272" y="410"/>
      <point x="296" y="392.813"/>
      <point x="296" y="362.484" type="curve" smooth="yes"/>
      <point x="296" y="329.121"/>
      <point x="268" y="318"/>
      <point x="179" y="314" type="curve"/>
      <point x="179" y="219" type="line"/>
      <point x="285" y="227"/>
      <point x="322" y="211"/>
      <point x="322" y="164" type="curve" smooth="yes"/>
      <point x="322" y="115.342"/>
      <point x="285" y="90"/>
      <point x="228" y="90" type="curve" smooth="yes"/>
      <point x="178" y="90"/>
      <point x="147" y="109.25"/>
      <point x="104" y="167" type="curve"/>
      <point x="17" y="80" type="line"/>
      <point x="73" y="12"/>
      <point x="143" y="-20"/>
    </contour>
  </outline>
</glyph>
<glyph name="uni043A" format="2">
  <advance width="588"/>
  <unicode hex="043A"/>
  <anchor x="288" y="-20" name="bottom"/>
  <anchor x="288" y="520" name="top"/>
  <outline>
    <contour>
      <point x="202" y="211" type="line" name="dv01"/>
      <point x="378" y="211" type="line" smooth="yes"/>
      <point x="458" y="211"/>
      <point x="502" y="248"/>
      <point x="513" y="332" type="curve"/>
      <point x="530" y="500" type="line" name="av02"/>
      <point x="396" y="500" type="line"/>
      <point x="386" y="400" type="line"/>
      <point x="380" y="350"/>
      <point x="366" y="321"/>
      <point x="310" y="321" type="curve" smooth="yes"/>
      <point x="202" y="321" type="line" name="dv02"/>
    </contour>
    <contour>
      <point x="69" y="0" type="line" name="ab01"/>
      <point x="214" y="0" type="line"/>
      <point x="214" y="500" type="line"/>
      <point x="69" y="500" type="line" name="av01"/>
    </contour>
    <contour>
      <point x="418" y="0" type="line" name="ab02"/>
      <point x="568" y="0" type="line"/>
      <point x="460" y="247" type="line"/>
      <point x="316" y="235" type="line" name="iv01"/>
    </contour>
  </outline>
</glyph>
<glyph name="uni043C" format="2">
  <advance width="689"/>
  <unicode hex="043C"/>
  <outline>
    <contour>
      <point x="60" y="0" type="line"/>
      <point x="195" y="0" type="line"/>
      <point x="195" y="289" type="line"/>
      <point x="309" y="90" type="line"/>
      <point x="380" y="90" type="line"/>
      <point x="494" y="289" type="line"/>
      <point x="494" y="0" type="line"/>
      <point x="629" y="0" type="line"/>
      <point x="629" y="500" type="line"/>
      <point x="498" y="500" type="line"/>
      <point x="344" y="235" type="line"/>
      <point x="190" y="500" type="line"/>
      <point x="60" y="500" type="line"/>
    </contour>
  </outline>
</glyph>
<glyph name="uni043D" format="2">
  <advance width="593"/>
  <unicode hex="043D"/>
  <anchor x="296" y="-20" name="bottom"/>
  <anchor x="296" y="520" name="top"/>
  <outline>
    <contour>
      <point x="60" y="0" type="line"/>
      <point x="205" y="0" type="line"/>
      <point x="205" y="195" type="line"/>
      <point x="388" y="195" type="line"/>
      <point x="388" y="0" type="line"/>
      <point x="533" y="0" type="line"/>
      <point x="533" y="500" type="line"/>
      <point x="388" y="500" type="line"/>
      <point x="388" y="315" type="line"/>
      <point x="205" y="315" type="line"/>
      <point x="205" y="500" type="line"/>
      <point x="60" y="500" type="line"/>
    </contour>
  </outline>
</glyph>
<glyph name="uni0446" format="2">
  <advance width="676"/>
  <unicode hex="0446"/>
  <outline>
    <contour>
      <point x="549" y="-140" type="curve"/>
      <point x="655" y="-140" type="line"/>
      <point x="655" y="69"/>
      <point x="634" y="118"/>
      <point x="534" y="118" type="curve"/>
      <point x="534" y="500" type="line"/>
      <point x="389" y="500" type="line"/>
      <point x="389" y="120" type="line"/>
      <point x="205" y="120" type="line"/>
      <point x="205" y="500" type="line"/>
      <point x="60" y="500" type="line"/>
      <point x="60" y="0" type="line"/>
      <point x="496" y="0" type="line" smooth="yes"/>
      <point x="563" y="0"/>
      <point x="549" y="-72"/>
    </contour>
  </outline>
</glyph>
<glyph name="uni0447" format="2">
  <advance width="575"/>
  <unicode hex="0447"/>
  <anchor x="288" y="-20" name="bottom"/>
  <anchor x="288" y="520" name="top"/>
  <outline>
    <contour>
      <point x="370" y="223.89" type="curve"/>
      <point x="370" y="0" type="line"/>
      <point x="515" y="0" type="line"/>
      <point x="515" y="500" type="line"/>
      <point x="370" y="500" type="line"/>
      <point x="370" y="359" type="line" smooth="yes"/>
      <point x="370" y="287.86"/>
      <point x="314" y="254"/>
      <point x="267" y="254" type="curve" smooth="yes"/>
      <point x="223.41" y="254"/>
      <point x="201" y="279.18"/>
      <point x="201" y="339.82" type="curve" smooth="yes"/>
      <point x="201" y="500" type="line"/>
      <point x="56" y="500" type="line"/>
      <point x="56" y="340" type="line" smooth="yes"/>
      <point x="56" y="203"/>
      <point x="145" y="144"/>
      <point x="231.6" y="144" type="curve" smooth="yes"/>
      <point x="287.75" y="144"/>
      <point x="342.24" y="171.31"/>
    </contour>
  </outline>
</glyph>
<glyph name="uni0448" format="2">
  <advance width="859"/>
  <unicode hex="0448"/>
  <outline>
    <contour>
      <point x="60" y="0" type="line"/>
      <point x="799" y="0" type="line"/>
      <point x="799" y="500" type="line"/>
      <point x="654" y="500" type="line"/>
      <point x="654" y="120" type="line"/>
      <point x="502" y="120" type="line"/>
      <point x="502" y="500" type="line"/>
      <point x="357" y="500" type="line"/>
      <point x="357" y="120" type="line"/>
      <point x="205" y="120" type="line"/>
      <point x="205" y="500" type="line"/>
      <point x="60" y="500" type="line"/>
    </contour>
  </outline>
</glyph>
<glyph name="uni0449" format="2">
  <advance width="944"/>
  <unicode hex="0449"/>
  <outline>
    <contour>
      <point x="814" y="-140" type="curve"/>
      <point x="920" y="-140" type="line"/>
      <point x="920" y="69"/>
      <point x="899" y="119"/>
      <point x="799" y="119" type="curve"/>
      <point x="799" y="500" type="line"/>
      <point x="654" y="500" type="line"/>
      <point x="654" y="120" type="line"/>
      <point x="502" y="120" type="line"/>
      <point x="502" y="500" type="line"/>
      <point x="357" y="500" type="line"/>
      <point x="357" y="120" type="line"/>
      <point x="205" y="120" type="line"/>
      <point x="205" y="500" type="line"/>
      <point x="60" y="500" type="line"/>
      <point x="60" y="0" type="line"/>
      <point x="761" y="0" type="line" smooth="yes"/>
      <point x="829" y="0"/>
      <point x="814" y="-102"/>
    </contour>
  </outline>
</glyph>
<glyph name="uni044A" format="2">
  <advance width="580"/>
  <unicode hex="044A"/>
  <outline>
    <contour>
      <point x="124" y="0" type="line"/>
      <point x="357" y="0" type="line" smooth="yes"/>
      <point x="476" y="0"/>
      <point x="550" y="69.976"/>
      <point x="550" y="181.301" type="curve" smooth="yes"/>
      <point x="550" y="288.386"/>
      <point x="477" y="352"/>
      <point x="356" y="352" type="curve" smooth="yes"/>
      <point x="165" y="352" type="line"/>
      <point x="165" y="242" type="line"/>
      <point x="327" y="242" type="line" smooth="yes"/>
      <point x="381" y="242"/>
      <point x="405" y="217.25"/>
      <point x="405" y="177.179" type="curve" smooth="yes"/>
      <point x="405" y="134.75"/>
      <point x="381" y="110"/>
      <point x="327" y="110" type="curve" smooth="yes"/>
      <point x="269" y="110" type="line"/>
      <point x="269" y="500" type="line"/>
      <point x="124" y="500" type="line"/>
    </contour>
    <contour>
      <point x="11" y="390" type="line"/>
      <point x="169" y="390" type="line"/>
      <point x="202" y="496" type="line"/>
      <point x="202" y="500" type="line"/>
      <point x="11" y="500" type="line"/>
    </contour>
  </outline>
</glyph>
<glyph name="uni044C" format="2">
  <advance width="516"/>
  <unicode hex="044C"/>
  <anchor x="258" y="-20" name="bottom"/>
  <anchor x="258" y="520" name="top"/>
  <outline>
    <contour>
      <point x="60" y="0" type="line"/>
      <point x="298.361" y="0" type="line" smooth="yes"/>
      <point x="420.221" y="0"/>
      <point x="486" y="69.976"/>
      <point x="486" y="181.301" type="curve" smooth="yes"/>
      <point x="486" y="288.386"/>
      <point x="421.053" y="352"/>
      <point x="296.827" y="352" type="curve" smooth="yes"/>
      <point x="101" y="352" type="line"/>
      <point x="101" y="242" type="line"/>
      <point x="271.716" y="242" type="line" smooth="yes"/>
      <point x="328.768" y="242"/>
      <point x="344" y="217.25"/>
      <point x="344" y="177.179" type="curve" smooth="yes"/>
      <point x="344" y="134.75"/>
      <point x="327.744" y="110"/>
      <point x="268.173" y="110" type="curve" smooth="yes"/>
      <point x="205" y="110" type="line"/>
      <point x="205" y="500" type="line"/>
      <point x="60" y="500" type="line"/>
    </contour>
  </outline>
</glyph>
<glyph name="uni044D" format="2">
  <advance width="563"/>
  <unicode hex="044D"/>
  <anchor x="301" y="-20" name="bottom"/>
  <anchor x="281" y="520" name="top"/>
  <outline>
    <contour>
      <point x="268" y="-20" type="curve" smooth="yes" name="dv01"/>
      <point x="429" y="-20"/>
      <point x="521" y="84"/>
      <point x="521" y="255" type="curve" smooth="yes"/>
      <point x="521" y="416"/>
      <point x="429" y="520"/>
      <point x="267" y="520" type="curve" smooth="yes" name="at01"/>
      <point x="174" y="520"/>
      <point x="97" y="490"/>
      <point x="47" y="433" type="curve"/>
      <point x="125" y="355" type="line"/>
      <point x="156" y="390.648"/>
      <point x="208" y="410"/>
      <point x="263" y="410" type="curve" smooth="yes" name="sv01"/>
      <point x="338" y="410"/>
      <point x="376" y="359.686"/>
      <point x="376" y="255.031" type="curve" smooth="yes"/>
      <point x="376" y="163.459"/>
      <point x="351" y="90"/>
      <point x="246" y="90" type="curve" smooth="yes" name="dv02"/>
      <point x="190" y="90"/>
      <point x="146" y="111.389"/>
      <point x="117" y="145" type="curve"/>
      <point x="39" y="67" type="line"/>
      <point x="89" y="10"/>
      <point x="165" y="-20"/>
    </contour>
    <contour>
      <point x="153" y="208" type="line"/>
      <point x="417" y="208" type="line"/>
      <point x="417" y="304" type="line"/>
      <point x="153" y="304" type="line"/>
    </contour>
  </outline>
</glyph>
<glyph name="uni044E" format="2">
  <advance width="838"/>
  <unicode hex="044E"/>
  <anchor x="418" y="-20" name="bottom"/>
  <anchor x="418" y="520" name="top"/>
  <outline>
    <contour>
      <point x="544" y="-20" type="curve" smooth="yes" name="dv01"/>
      <point x="718" y="-20"/>
      <point x="803" y="84"/>
      <point x="803" y="255" type="curve" smooth="yes"/>
      <point x="803" y="416"/>
      <point x="717" y="520"/>
      <point x="544" y="520" type="curve" smooth="yes" name="at01"/>
      <point x="382" y="520"/>
      <point x="285" y="416"/>
      <point x="285" y="255" type="curve" smooth="yes"/>
      <point x="285" y="84"/>
      <point x="383" y="-20"/>
    </contour>
    <contour>
      <point x="50" y="0" type="line"/>
      <point x="195" y="0" type="line"/>
      <point x="195" y="500" type="line"/>
      <point x="50" y="500" type="line"/>
    </contour>
    <contour>
      <point x="162" y="200" type="line"/>
      <point x="338" y="200" type="line"/>
      <point x="338" y="310" type="line"/>
      <point x="162" y="310" type="line"/>
    </contour>
    <contour>
      <point x="544" y="90" type="curve" smooth="yes" name="dv02"/>
      <point x="472" y="90"/>
      <point x="433" y="146.352"/>
      <point x="433" y="255.031" type="curve" smooth="yes"/>
      <point x="433" y="359.686"/>
      <point x="469" y="410"/>
      <point x="544" y="410" type="curve" smooth="yes" name="sv01"/>
      <point x="620" y="410"/>
      <point x="655" y="357.673"/>
      <point x="655" y="253.019" type="curve" smooth="yes"/>
      <point x="655" y="145.346"/>
      <point x="623" y="90"/>
    </contour>
  </outline>
</glyph>
<glyph name="uni044F" format="2">
  <advance width="540"/>
  <unicode hex="044F"/>
  <anchor x="270" y="-20" name="bottom"/>
  <anchor x="270" y="520" name="top"/>
  <outline>
    <contour>
      <point x="127" y="196" type="curve"/>
      <point x="27" y="0" type="line"/>
      <point x="172" y="0" type="line"/>
      <point x="254" y="162" type="line"/>
      <point x="335" y="162" type="line"/>
      <point x="335" y="0" type="line"/>
      <point x="480" y="0" type="line"/>
      <point x="480" y="500" type="line"/>
      <point x="246.258" y="500" type="line" smooth="yes"/>
      <point x="107.418" y="500"/>
      <point x="36.5" y="444"/>
      <point x="36.5" y="346" type="curve" smooth="yes"/>
      <point x="36.5" y="280"/>
      <point x="69.319" y="229"/>
    </contour>
    <contour>
      <point x="276.832" y="272" type="line"/>
      <point x="215.619" y="272"/>
      <point x="181.5" y="293"/>
      <point x="181.5" y="332" type="curve" smooth="yes"/>
      <point x="181.5" y="370"/>
      <point x="215.619" y="390"/>
      <point x="276.832" y="390" type="curve" smooth="yes"/>
      <point x="335" y="390" type="line"/>
      <point x="335" y="272" type="line"/>
    </contour>
  </outline>
</glyph>
<glyph name="uni0454" format="2">
  <advance width="563"/>
  <unicode hex="0454"/>
  <anchor x="259" y="-20" name="bottom"/>
  <anchor x="279" y="520" name="top"/>
  <outline>
    <contour>
      <point x="292" y="-20" type="curve" smooth="yes" name="dv01"/>
      <point x="395" y="-20"/>
      <point x="471" y="10"/>
      <point x="521" y="67" type="curve"/>
      <point x="443" y="145" type="line"/>
      <point x="414" y="111.389"/>
      <point x="370" y="90"/>
      <point x="314" y="90" type="curve" smooth="yes" name="dv02"/>
      <point x="209" y="90"/>
      <point x="184" y="163.459"/>
      <point x="184" y="255.031" type="curve" smooth="yes"/>
      <point x="184" y="359.686"/>
      <point x="222" y="410"/>
      <point x="297" y="410" type="curve" smooth="yes" name="sv01"/>
      <point x="352" y="410"/>
      <point x="404" y="390.648"/>
      <point x="435" y="355" type="curve"/>
      <point x="513" y="433" type="line"/>
      <point x="463" y="490"/>
      <point x="386" y="520"/>
      <point x="293" y="520" type="curve" smooth="yes" name="at01"/>
      <point x="131" y="520"/>
      <point x="39" y="416"/>
      <point x="39" y="255" type="curve" smooth="yes"/>
      <point x="39" y="84"/>
      <point x="131" y="-20"/>
    </contour>
    <contour>
      <point x="407" y="208" type="line"/>
      <point x="407" y="304" type="line"/>
      <point x="143" y="304" type="line"/>
      <point x="143" y="208" type="line"/>
    </contour>
  </outline>
</glyph>
<glyph name="uni0457" format="2">
  <advance width="272"/>
  <unicode hex="0457"/>
  <anchor x="136" y="-20" name="bottom"/>
  <anchor x="204" y="-2" name="ogonek"/>
  <anchor x="136" y="677" name="top"/>
  <outline>
    <contour>
      <point x="64" y="0" type="line"/>
      <point x="209" y="0" type="line"/>
      <point x="209" y="500" type="line"/>
      <point x="64" y="500" type="line"/>
    </contour>
    <contour>
      <point x="33.434" y="564.793" type="curve" smooth="yes"/>
      <point x="79.217" y="564.793"/>
      <point x="101.576" y="599.363"/>
      <point x="101.576" y="633" type="curve" smooth="yes"/>
      <point x="101.576" y="669.44"/>
      <point x="79.217" y="701.207"/>
      <point x="33.434" y="701.207" type="curve" smooth="yes"/>
      <point x="-14.218" y="701.207"/>
      <point x="-37.511" y="664.768"/>
      <point x="-37.511" y="633" type="curve" smooth="yes"/>
      <point x="-37.511" y="602.166"/>
      <point x="-14.218" y="564.793"/>
    </contour>
    <contour>
      <point x="240.369" y="564.793" type="curve" smooth="yes"/>
      <point x="286.152" y="564.793"/>
      <point x="308.511" y="599.363"/>
      <point x="308.511" y="633" type="curve" smooth="yes"/>
      <point x="308.511" y="669.44"/>
      <point x="286.152" y="701.207"/>
      <point x="240.369" y="701.207" type="curve" smooth="yes"/>
      <point x="192.717" y="701.207"/>
      <point x="169.424" y="664.768"/>
      <point x="169.424" y="633" type="curve" smooth="yes"/>
      <point x="169.424" y="602.166"/>
      <point x="192.717" y="564.793"/>
    </contour>
  </outline>
</glyph>
<glyph name="uni0459" format="2">
  <advance width="810"/>
  <unicode hex="0459"/>
  <outline>
    <contour>
      <point x="76" y="-20" type="curve" smooth="yes"/>
      <point x="184.908" y="-20"/>
      <point x="236.725" y="43.231"/>
      <point x="254.056" y="218.274" type="curve" smooth="yes"/>
      <point x="258.844" y="266.638"/>
      <point x="261" y="323.539"/>
      <point x="261" y="390" type="curve"/>
      <point x="365" y="390" type="line"/>
      <point x="365" y="0" type="line"/>
      <point x="597" y="0" type="line" smooth="yes"/>
      <point x="717" y="0"/>
      <point x="780" y="58.603"/>
      <point x="780" y="169.423" type="curve" smooth="yes"/>
      <point x="780" y="274.909"/>
      <point x="722" y="325"/>
      <point x="596" y="325" type="curve" smooth="yes"/>
      <point x="510" y="325" type="line"/>
      <point x="510" y="500" type="line"/>
      <point x="117" y="500" type="line"/>
      <point x="117" y="392.453"/>
      <point x="115.957" y="310.504"/>
      <point x="112.729" y="249.187" type="curve" smooth="yes"/>
      <point x="106.472" y="130.339"/>
      <point x="92.004" y="89"/>
      <point x="61" y="89" type="curve" smooth="yes"/>
      <point x="56" y="89"/>
      <point x="49" y="90"/>
      <point x="40" y="94" type="curve"/>
      <point x="17" y="-14" type="line"/>
      <point x="37" y="-18"/>
      <point x="57" y="-20"/>
    </contour>
    <contour>
      <point x="577.08" y="110" type="curve" smooth="yes"/>
      <point x="510" y="110" type="line"/>
      <point x="510" y="215" type="line"/>
      <point x="579.144" y="215" type="line" smooth="yes"/>
      <point x="618.36" y="215"/>
      <point x="639" y="198.941"/>
      <point x="639" y="165.584" type="curve" smooth="yes"/>
      <point x="639" y="129.762"/>
      <point x="616.296" y="110"/>
    </contour>
  </outline>
</glyph>
<glyph name="uni045A" format="2">
  <advance width="810"/>
  <unicode hex="045A"/>
  <outline>
    <contour>
      <point x="60" y="0" type="line"/>
      <point x="205" y="0" type="line"/>
      <point x="205" y="215" type="line"/>
      <point x="365" y="215" type="line"/>
      <point x="365" y="0" type="line"/>
      <point x="510" y="0" type="line"/>
      <point x="510" y="500" type="line"/>
      <point x="365" y="500" type="line"/>
      <point x="365" y="325" type="line"/>
      <point x="205" y="325" type="line"/>
      <point x="205" y="500" type="line"/>
      <point x="60" y="500" type="line"/>
    </contour>
    <contour>
      <point x="377" y="0" type="line"/>
      <point x="597" y="0" type="line" smooth="yes"/>
      <point x="717" y="0"/>
      <point x="780" y="58.607"/>
      <point x="780" y="169.426" type="curve" smooth="yes"/>
      <point x="780" y="274.918"/>
      <point x="722" y="325"/>
      <point x="596" y="325" type="curve" smooth="yes"/>
      <point x="443" y="325" type="line"/>
      <point x="443" y="215" type="line"/>
      <point x="579.792" y="215" type="line" smooth="yes"/>
      <point x="618.583" y="215"/>
      <point x="639" y="198.941"/>
      <point x="639" y="165.588" type="curve" smooth="yes"/>
      <point x="639" y="129.765"/>
      <point x="616.307" y="110"/>
      <point x="577.11" y="110" type="curve" smooth="yes"/>
      <point x="508" y="110" type="line"/>
      <point x="508" y="500" type="line"/>
      <point x="377" y="500" type="line"/>
    </contour>
  </outline>
</glyph>
<glyph name="uni045F" format="2">
  <advance width="605"/>
  <unicode hex="045F"/>
  <outline>
    <contour>
      <point x="255" y="-141" type="curve"/>
      <point x="360" y="-141" type="line"/>
      <point x="376" y="-88"/>
      <point x="372" y="-52"/>
      <point x="354" y="0" type="curve"/>
      <point x="535" y="0" type="line"/>
      <point x="535" y="500" type="line"/>
      <point x="390" y="500" type="line"/>
      <point x="390" y="110" type="line"/>
      <point x="215" y="110" type="line"/>
      <point x="215" y="500" type="line"/>
      <point x="70" y="500" type="line"/>
      <point x="70" y="0" type="line"/>
      <point x="251" y="0" type="line"/>
      <point x="266" y="-42"/>
      <point x="264" y="-97"/>
    </contour>
  </outline>
</glyph>
<glyph name="uni1E9E" format="2">
  <advance width="715"/>
  <unicode hex="1E9E"/>
  <outline>
    <contour>
      <point x="471.838" y="-20" type="curve" smooth="yes"/>
      <point x="608.284" y="-20"/>
      <point x="696" y="54"/>
      <point x="696" y="160" type="curve" smooth="yes"/>
      <point x="696" y="340"/>
      <point x="493" y="346"/>
      <point x="493" y="406" type="curve" smooth="yes"/>
      <point x="493" y="433"/>
      <point x="511.256" y="465.349"/>
      <point x="533" y="495" type="curve" smooth="yes"/>
      <point x="639.53371" y="640.27373" type="line"/>
      <point x="575.54539" y="687.88764"/>
      <point x="478.1392" y="720"/>
      <point x="355.803" y="720" type="curve" smooth="yes"/>
      <point x="151.153" y="720"/>
      <point x="56" y="640.282"/>
      <point x="56" y="479" type="curve"/>
      <point x="56" y="0" type="line"/>
      <point x="202" y="0" type="line"/>
      <point x="202" y="463.887" type="line" smooth="yes"/>
      <point x="202" y="562.413"/>
      <point x="237.813" y="596"/>
      <point x="342.87" y="596" type="curve" smooth="yes"/>
      <point x="398.426" y="596"/>
      <point x="436.313" y="588.26"/>
      <point x="461.629" y="578.64" type="curve"/>
      <point x="459.219" y="613.957" type="line"/>
      <point x="403.376" y="536.643" type="line" smooth="yes"/>
      <point x="365.447" y="484.13"/>
      <point x="347" y="445.778"/>
      <point x="347" y="394.958" type="curve" smooth="yes"/>
      <point x="347" y="237.518"/>
      <point x="550" y="245.447"/>
      <point x="550" y="155.802" type="curve" smooth="yes"/>
      <point x="550" y="122.918"/>
      <point x="523.609" y="100"/>
      <point x="480.253" y="100" type="curve" smooth="yes"/>
      <point x="435.011" y="100"/>
      <point x="386" y="124"/>
      <point x="362" y="164" type="curve"/>
      <point x="273" y="75" type="line"/>
      <point x="312" y="18"/>
      <point x="374.376" y="-20"/>
    </contour>
  </outline>
</glyph>
<glyph name="quotesinglbase" format="2">
  <advance width="308"/>
  <unicode hex="201A"/>
  <outline>
    <contour>
      <point x="92" y="-141" type="curve"/>
      <point x="101" y="-153" type="line"/>
      <point x="183" y="-114"/>
      <point x="234" y="-33"/>
      <point x="234" y="42" type="curve" smooth="yes"/>
      <point x="234" y="104"/>
      <point x="200" y="138"/>
      <point x="155" y="138" type="curve" smooth="yes"/>
      <point x="109" y="138"/>
      <point x="76" y="104"/>
      <point x="76" y="61" type="curve" smooth="yes"/>
      <point x="76" y="18"/>
      <point x="109" y="-20"/>
      <point x="154" y="-20" type="curve" smooth="yes"/>
      <point x="164" y="-20"/>
      <point x="174" y="-18"/>
      <point x="187" y="-13" type="curve"/>
      <point x="180" y="-58"/>
      <point x="138" y="-113"/>
    </contour>
  </outline>
</glyph>
<glyph name="dagger" format="2">
  <advance width="701"/>
  <unicode hex="2020"/>
  <outline>
    <contour>
      <point x="325" y="-104" type="line"/>
      <point x="379" y="-104" type="line"/>
      <point x="408" y="391" type="line"/>
      <point x="650" y="378" type="line"/>
      <point x="650" y="493" type="line"/>
      <point x="410" y="480" type="line"/>
      <point x="415" y="696" type="line"/>
      <point x="290" y="696" type="line"/>
      <point x="294" y="479" type="line"/>
      <point x="50" y="493" type="line"/>
      <point x="50" y="378" type="line"/>
      <point x="296" y="391" type="line"/>
    </contour>
  </outline>
</glyph>
<glyph name="uni2070" format="2">
  <advance width="438"/>
  <unicode hex="2070"/>
  <outline>
    <contour>
      <point x="222" y="334" type="curve" smooth="yes"/>
      <point x="343" y="334"/>
      <point x="408" y="419"/>
      <point x="408" y="583" type="curve" smooth="yes"/>
      <point x="408" y="746"/>
      <point x="344" y="832"/>
      <point x="225" y="832" type="curve" smooth="yes"/>
      <point x="101" y="832"/>
      <point x="32" y="740"/>
      <point x="32" y="579" type="curve" smooth="yes"/>
      <point x="32" y="421"/>
      <point x="99" y="334"/>
    </contour>
    <contour>
      <point x="221" y="416" type="curve" smooth="yes"/>
      <point x="169" y="416"/>
      <point x="137" y="470"/>
      <point x="137" y="581" type="curve" smooth="yes"/>
      <point x="137" y="694"/>
      <point x="170" y="750"/>
      <point x="222" y="750" type="curve" smooth="yes"/>
      <point x="273" y="750"/>
      <point x="303" y="698"/>
      <point x="303" y="584" type="curve" smooth="yes"/>
      <point x="303" y="469"/>
      <point x="272" y="416"/>
    </contour>
  </outline>
</glyph>
<glyph name="uni2074" format="2">
  <advance width="460"/>
  <unicode hex="2074"/>
  <outline>
    <contour>
      <point x="257" y="344" type="line"/>
      <point x="362" y="344" type="line"/>
      <point x="362" y="448" type="line"/>
      <point x="450" y="448" type="line"/>
      <point x="450" y="528" type="line"/>
      <point x="362" y="528" type="line"/>
      <point x="362" y="830" type="line"/>
      <point x="221" y="830" type="line"/>
      <point x="9" y="500" type="line"/>
      <point x="9" y="448" type="line"/>
      <point x="257" y="448" type="line"/>
    </contour>
    <contour>
      <point x="132" y="528" type="line"/>
      <point x="257" y="725" type="line"/>
      <point x="257" y="528" type="line"/>
    </contour>
  </outline>
</glyph>
<glyph name="uni2075" format="2">
  <advance width="420"/>
  <unicode hex="2075"/>
  <outline>
    <contour>
      <point x="201" y="340" type="curve" smooth="yes"/>
      <point x="317" y="340"/>
      <point x="394" y="405"/>
      <point x="394" y="510" type="curve" smooth="yes"/>
      <point x="394" y="606"/>
      <point x="330" y="663"/>
      <point x="240" y="663" type="curve" smooth="yes"/>
      <point x="203" y="663"/>
      <point x="180" y="653"/>
      <point x="160" y="640" type="curve"/>
      <point x="177" y="748" type="line"/>
      <point x="364" y="748" type="line"/>
      <point x="372" y="832" type="line"/>
      <point x="85" y="832" type="line"/>
      <point x="36" y="520" type="line"/>
      <point x="93" y="558"/>
      <point x="154" y="589"/>
      <point x="208" y="589" type="curve" smooth="yes"/>
      <point x="259" y="589"/>
      <point x="289" y="562"/>
      <point x="289" y="513" type="curve" smooth="yes"/>
      <point x="289" y="459"/>
      <point x="252" y="424"/>
      <point x="193" y="424" type="curve" smooth="yes"/>
      <point x="149" y="424"/>
      <point x="110" y="443"/>
      <point x="81" y="481" type="curve"/>
      <point x="23" y="423" type="line"/>
      <point x="77" y="363"/>
      <point x="132" y="340"/>
    </contour>
  </outline>
</glyph>
<glyph name="uni20B3" format="2">
  <advance width="718"/>
  <unicode hex="20B3"/>
  <outline>
    <contour>
      <point x="526.5" y="0" type="line"/>
      <point x="669.5" y="0" type="line"/>
      <point x="442.5" y="700" type="line"/>
      <point x="328.5" y="700" type="line"/>
    </contour>
    <contour>
      <point x="13" y="136" type="line"/>
      <point x="705" y="136" type="line"/>
      <point x="705" y="199" type="line"/>
      <point x="13" y="199" type="line"/>
    </contour>
    <contour>
      <point x="48.5" y="0" type="line"/>
      <point x="191.5" y="0" type="line"/>
      <point x="389.5" y="700" type="line"/>
      <point x="275.5" y="700" type="line"/>
    </contour>
    <contour>
      <point x="13" y="275" type="line"/>
      <point x="705" y="275" type="line"/>
      <point x="705" y="338" type="line"/>
      <point x="13" y="338" type="line"/>
    </contour>
  </outline>
</glyph>
<glyph name="uni20B4" format="2">
  <advance width="734"/>
  <unicode hex="20B4"/>
  <outline>
    <contour>
      <point x="366" y="-20" type="curve" smooth="yes"/>
      <point x="489" y="-20"/>
      <point x="574" y="28"/>
      <point x="636" y="105" type="curve"/>
      <point x="551" y="190" type="line"/>
      <point x="506" y="136.404"/>
      <point x="451" y="100"/>
      <point x="376" y="100" type="curve" smooth="yes"/>
      <point x="301" y="100"/>
      <point x="253" y="136.058"/>
      <point x="253" y="194.152" type="curve" smooth="yes"/>
      <point x="253" y="236.552"/>
      <point x="279.044" y="256.145"/>
      <point x="340.36" y="272" type="curve"/>
      <point x="713" y="272" type="line"/>
      <point x="713" y="318" type="line"/>
      <point x="21" y="318" type="line"/>
      <point x="21" y="272" type="line"/>
      <point x="122.794" y="272" type="line"/>
      <point x="112.592" y="249.648"/>
      <point x="108" y="224.287"/>
      <point x="108" y="195.347" type="curve" smooth="yes"/>
      <point x="108" y="63.134"/>
      <point x="204" y="-20"/>
    </contour>
    <contour>
      <point x="21" y="384" type="line"/>
      <point x="713" y="384" type="line"/>
      <point x="713" y="430" type="line"/>
      <point x="619.339" y="430" type="line"/>
      <point x="627.252" y="451.495"/>
      <point x="631" y="475.293"/>
      <point x="631" y="501.648" type="curve" smooth="yes"/>
      <point x="631" y="634.863"/>
      <point x="535" y="720"/>
      <point x="380" y="720" type="curve" smooth="yes"/>
      <point x="263" y="720"/>
      <point x="177" y="672"/>
      <point x="114" y="595" type="curve"/>
      <point x="199" y="510" type="line"/>
      <point x="244.157" y="563.596"/>
      <point x="299.35" y="600"/>
      <point x="366.584" y="600" type="curve" smooth="yes"/>
      <point x="443.853" y="600"/>
      <point x="486" y="557.932"/>
      <point x="486" y="500.84" type="curve" smooth="yes"/>
      <point x="486" y="468.521"/>
      <point x="472.822" y="446.495"/>
      <point x="444.837" y="430" type="curve"/>
      <point x="21" y="430" type="line"/>
    </contour>
  </outline>
</glyph>
<glyph name="product" format="2">
  <advance width="766"/>
  <unicode hex="220F"/>
  <outline>
    <contour>
      <point x="77.5" y="-125.366" type="line"/>
      <point x="222.5" y="-125.366" type="line"/>
      <point x="222.5" y="580" type="line"/>
      <point x="544" y="580" type="line"/>
      <point x="544" y="-125.366" type="line"/>
      <point x="689" y="-125.366" type="line"/>
      <point x="689" y="700" type="line"/>
      <point x="77.5" y="700" type="line"/>
    </contour>
  </outline>
</glyph>
<glyph name="radical" format="2">
  <advance width="660"/>
  <unicode hex="221A"/>
  <outline>
    <contour>
      <point x="232" y="-126.199" type="line"/>
      <point x="401" y="-126.199" type="line"/>
      <point x="706.802" y="814" type="line"/>
      <point x="553.802" y="814" type="line"/>
      <point x="313" y="-8.199" type="line"/>
      <point x="225" y="285.801" type="line"/>
      <point x="1" y="285.801" type="line"/>
      <point x="1" y="175.801" type="line"/>
      <point x="110" y="175.801" type="line"/>
    </contour>
  </outline>
</glyph>
<glyph name="f_f" format="2">
  <advance width="806"/>
  <unicode hex="FB00"/>
  <anchor x="403" y="0" name="caret_1"/>
  <outline>
    <contour>
      <point x="492" y="0" type="line" name="ab01"/>
      <point x="637" y="0" type="line"/>
      <point x="637" y="390" type="line" name="sv01"/>
      <point x="782" y="390" type="line"/>
      <point x="782" y="500" type="line" name="sv02"/>
      <point x="637" y="500" type="line"/>
      <point x="637" y="569" type="line" smooth="yes"/>
      <point x="637" y="620"/>
      <point x="656" y="637"/>
      <point x="693" y="637" type="curve" smooth="yes" name="dv01"/>
      <point x="709" y="637"/>
      <point x="740" y="634"/>
      <point x="758" y="627" type="curve"/>
      <point x="779" y="728" type="line"/>
      <point x="720" y="746"/>
      <point x="690" y="751"/>
      <point x="659" y="751" type="curve" smooth="yes" name="dv02"/>
      <point x="547" y="751"/>
      <point x="492" y="684"/>
      <point x="492" y="588" type="curve" smooth="yes"/>
      <point x="492" y="500" type="line" name="dv04"/>
      <point x="405" y="500" type="line"/>
      <point x="405" y="390" type="line"/>
      <point x="492" y="390" type="line" name="dv03"/>
    </contour>
    <contour>
      <point x="99" y="0" type="line" name="ab01"/>
      <point x="244" y="0" type="line"/>
      <point x="244" y="390" type="line" name="sv01"/>
      <point x="389" y="390" type="line"/>
      <point x="389" y="500" type="line" name="sv02"/>
      <point x="244" y="500" type="line"/>
      <point x="244" y="569" type="line" smooth="yes"/>
      <point x="244" y="620"/>
      <point x="263" y="637"/>
      <point x="300" y="637" type="curve" smooth="yes" name="dv01"/>
      <point x="316" y="637"/>
      <point x="347" y="634"/>
      <point x="365" y="627" type="curve"/>
      <point x="386" y="728" type="line"/>
      <point x="327" y="746"/>
      <point x="297" y="751"/>
      <point x="266" y="751" type="curve" smooth="yes" name="dv02"/>
      <point x="154" y="751"/>
      <point x="99" y="684"/>
      <point x="99" y="588" type="curve" smooth="yes"/>
      <point x="99" y="500" type="line" name="dv04"/>
      <point x="12" y="500" type="line"/>
      <point x="12" y="390" type="line"/>
      <point x="99" y="390" type="line" name="dv03"/>
    </contour>
    <contour>
      <point x="229" y="390" type="line"/>
      <point x="498" y="390" type="line"/>
      <point x="498" y="500" type="line"/>
      <point x="229" y="500" type="line"/>
    </contour>
  </outline>
</glyph>
<glyph name="fi" format="2">
  <advance width="685"/>
  <unicode hex="FB01"/>
  <anchor x="342.5" y="0" name="caret_1"/>
  <outline>
    <contour>
      <point x="99" y="0" type="line" name="ab01"/>
      <point x="244" y="0" type="line"/>
      <point x="244" y="390" type="line" name="sv01"/>
      <point x="522.389" y="390" type="line"/>
      <point x="522.389" y="500" type="line" name="sv02"/>
      <point x="244" y="500" type="line"/>
      <point x="244" y="569" type="line" smooth="yes"/>
      <point x="244" y="620"/>
      <point x="263" y="637"/>
      <point x="300" y="637" type="curve" smooth="yes" name="dv01"/>
      <point x="316" y="637"/>
      <point x="347" y="634"/>
      <point x="365" y="627" type="curve"/>
      <point x="386" y="728" type="line"/>
      <point x="327" y="746"/>
      <point x="297" y="751"/>
      <point x="266" y="751" type="curve" smooth="yes" name="dv02"/>
      <point x="154" y="751"/>
      <point x="99" y="684"/>
      <point x="99" y="588" type="curve" smooth="yes"/>
      <point x="99" y="500" type="line" name="dv04"/>
      <point x="12" y="500" type="line"/>
      <point x="12" y="390" type="line"/>
      <point x="99" y="390" type="line" name="dv03"/>
    </contour>
    <contour>
      <point x="477" y="0" type="line"/>
      <point x="622" y="0" type="line"/>
      <point x="622" y="500" type="line"/>
      <point x="477" y="500" type="line"/>
    </contour>
    <contour>
      <point x="551" y="560" type="curve" smooth="yes"/>
      <point x="602" y="560"/>
      <point x="625" y="598"/>
      <point x="625" y="635" type="curve" smooth="yes"/>
      <point x="625" y="672"/>
      <point x="600" y="706"/>
      <point x="552" y="706" type="curve" smooth="yes"/>
      <point x="500" y="706"/>
      <point x="474" y="668"/>
      <point x="474" y="634" type="curve" smooth="yes"/>
      <point x="474" y="600"/>
      <point x="500" y="560"/>
    </contour>
  </outline>
</glyph>
<glyph name="C.ss09" format="2">
  <advance width="753"/>
  <anchor x="397" y="-19" name="bottom"/>
  <anchor x="377" y="719" name="top"/>
  <outline>
    <contour>
      <point x="383" y="-20" type="curve" smooth="yes"/>
      <point x="556" y="-20"/>
      <point x="682" y="84"/>
      <point x="720" y="261" type="curve"/>
      <point x="577" y="261" type="line"/>
      <point x="561" y="163.394"/>
      <point x="499" y="100"/>
      <point x="391" y="100" type="curve" smooth="yes"/>
      <point x="256" y="100"/>
      <point x="178" y="198.394"/>
      <point x="178" y="347.992" type="curve" smooth="yes"/>
      <point x="178" y="501.606"/>
      <point x="260" y="600"/>
      <point x="396" y="600" type="curve" smooth="yes"/>
      <point x="480" y="600"/>
      <point x="539" y="562.675"/>
      <point x="567" y="485" type="curve"/>
      <point x="710" y="485" type="line"/>
      <point x="662" y="637"/>
      <point x="553" y="720"/>
      <point x="392" y="720" type="curve" smooth="yes"/>
      <point x="174" y="720"/>
      <point x="33" y="569"/>
      <point x="33" y="354" type="curve" smooth="yes"/>
      <point x="33" y="146"/>
      <point x="164" y="-20"/>
    </contour>
  </outline>
</glyph>
<glyph name="C.ss10" format="2">
  <advance width="715"/>
  <anchor x="397" y="-19" name="bottom"/>
  <anchor x="377" y="719" name="top"/>
  <outline>
    <contour>
      <point x="395" y="-20" type="curve" smooth="yes"/>
      <point x="512" y="-20"/>
      <point x="612" y="27"/>
      <point x="682" y="117" type="curve"/>
      <point x="643" y="255" type="line"/>
      <point x="564" y="134.221"/>
      <point x="487" y="100"/>
      <point x="399" y="100" type="curve" smooth="yes"/>
      <point x="260" y="100"/>
      <point x="178" y="185.341"/>
      <point x="178" y="347.992" type="curve" smooth="yes"/>
      <point x="178" y="500.602"/>
      <point x="249" y="600"/>
      <point x="391" y="600" type="curve" smooth="yes"/>
      <point x="475" y="600"/>
      <point x="552" y="565.779"/>
      <point x="634" y="445" type="curve"/>
      <point x="673" y="583" type="line"/>
      <point x="603" y="673"/>
      <point x="505" y="720"/>
      <point x="385" y="720" type="curve" smooth="yes"/>
      <point x="174" y="720"/>
      <point x="33" y="573"/>
      <point x="33" y="357" type="curve" smooth="yes"/>
      <point x="33" y="137"/>
      <point x="180" y="-20"/>
    </contour>
  </outline>
</glyph>
<glyph name="C.ss12" format="2">
  <advance width="649"/>
  <anchor x="367" y="-19" name="bottom"/>
  <anchor x="347" y="719" name="top"/>
  <outline>
    <contour>
      <point x="361" y="-20" type="curve" smooth="yes"/>
      <point x="458.396" y="-20"/>
      <point x="567.636" y="27.812"/>
      <point x="615.252" y="93.825" type="curve"/>
      <point x="607.677" y="184.728" type="line"/>
      <point x="531.924" y="129.557"/>
      <point x="442.356" y="100"/>
      <point x="365" y="100" type="curve" smooth="yes"/>
      <point x="232.794" y="100"/>
      <point x="178" y="171.933"/>
      <point x="178" y="345.491" type="curve" smooth="yes"/>
      <point x="178" y="525.653"/>
      <point x="233.47" y="600"/>
      <point x="367.89" y="600" type="curve" smooth="yes"/>
      <point x="445.246" y="600"/>
      <point x="531.924" y="569.547"/>
      <point x="607.677" y="515.027" type="curve"/>
      <point x="615.252" y="605.93" type="line"/>
      <point x="567.636" y="671.943"/>
      <point x="460.396" y="720"/>
      <point x="363" y="720" type="curve" smooth="yes"/>
      <point x="157" y="720"/>
      <point x="33" y="569"/>
      <point x="33" y="349" type="curve" smooth="yes"/>
      <point x="33" y="129"/>
      <point x="156" y="-20"/>
    </contour>
  </outline>
</glyph>
<glyph name="Ccedilla.ss09" format="2">
  <advance width="753"/>
  <anchor x="377" y="-217" name="bottom"/>
  <anchor x="377" y="719" name="top"/>
  <outline>
    <contour>
      <point x="383" y="-20" type="curve" smooth="yes"/>
      <point x="556" y="-20"/>
      <point x="682" y="84"/>
      <point x="720" y="261" type="curve"/>
      <point x="577" y="261" type="line"/>
      <point x="561" y="163.394"/>
      <point x="499" y="100"/>
      <point x="391" y="100" type="curve" smooth="yes"/>
      <point x="256" y="100"/>
      <point x="178" y="198.394"/>
      <point x="178" y="347.992" type="curve" smooth="yes"/>
      <point x="178" y="501.606"/>
      <point x="260" y="600"/>
      <point x="396" y="600" type="curve" smooth="yes"/>
      <point x="480" y="600"/>
      <point x="539" y="562.675"/>
      <point x="567" y="485" type="curve"/>
      <point x="710" y="485" type="line"/>
      <point x="662" y="637"/>
      <point x="553" y="720"/>
      <point x="392" y="720" type="curve" smooth="yes"/>
      <point x="174" y="720"/>
      <point x="33" y="569"/>
      <point x="33" y="354" type="curve" smooth="yes"/>
      <point x="33" y="146"/>
      <point x="164" y="-20"/>
    </contour>
    <contour>
      <point x="357" y="-217" type="curve" smooth="yes"/>
      <point x="452" y="-217"/>
      <point x="501" y="-187"/>
      <point x="501" y="-134" type="curve" smooth="yes"/>
      <point x="501" y="-88"/>
      <point x="465" y="-63"/>
      <point x="403" y="-63" type="curve"/>
      <point x="447.665" y="17.274" type="line"/>
      <point x="361.665" y="17.274" type="line"/>
      <point x="304" y="-95" type="line"/>
      <point x="320" y="-93"/>
      <point x="333" y="-91"/>
      <point x="347" y="-91" type="curve" smooth="yes"/>
      <point x="381" y="-91"/>
      <point x="401" y="-104"/>
      <point x="401" y="-131" type="curve" smooth="yes"/>
      <point x="401" y="-157"/>
      <point x="381" y="-171"/>
      <point x="348" y="-171" type="curve" smooth="yes"/>
      <point x="328" y="-171"/>
      <point x="300" y="-166"/>
      <point x="280" y="-160" type="curve"/>
      <point x="260" y="-204" type="line"/>
      <point x="284" y="-212"/>
      <point x="318" y="-217"/>
    </contour>
  </outline>
</glyph>
<glyph name="Ccedilla.ss12" format="2">
  <advance width="649"/>
  <anchor x="347" y="-217" name="bottom"/>
  <anchor x="347" y="719" name="top"/>
  <outline>
    <contour>
      <point x="361" y="-20" type="curve" smooth="yes"/>
      <point x="458.396" y="-20"/>
      <point x="567.636" y="27.812"/>
      <point x="615.252" y="93.825" type="curve"/>
      <point x="607.677" y="184.728" type="line"/>
      <point x="531.924" y="129.557"/>
      <point x="442.356" y="100"/>
      <point x="365" y="100" type="curve" smooth="yes"/>
      <point x="232.794" y="100"/>
      <point x="178" y="171.933"/>
      <point x="178" y="345.491" type="curve" smooth="yes"/>
      <point x="178" y="525.653"/>
      <point x="233.47" y="600"/>
      <point x="367.89" y="600" type="curve" smooth="yes"/>
      <point x="445.246" y="600"/>
      <point x="531.924" y="569.547"/>
      <point x="607.677" y="515.027" type="curve"/>
      <point x="615.252" y="605.93" type="line"/>
      <point x="567.636" y="671.943"/>
      <point x="460.396" y="720"/>
      <point x="363" y="720" type="curve" smooth="yes"/>
      <point x="157" y="720"/>
      <point x="33" y="569"/>
      <point x="33" y="349" type="curve" smooth="yes"/>
      <point x="33" y="129"/>
      <point x="156" y="-20"/>
    </contour>
    <contour>
      <point x="327" y="-217" type="curve" smooth="yes"/>
      <point x="422" y="-217"/>
      <point x="471" y="-187"/>
      <point x="471" y="-134" type="curve" smooth="yes"/>
      <point x="471" y="-88"/>
      <point x="435" y="-63"/>
      <point x="373" y="-63" type="curve"/>
      <point x="417.665" y="17.274" type="line"/>
      <point x="331.665" y="17.274" type="line"/>
      <point x="274" y="-95" type="line"/>
      <point x="290" y="-93"/>
      <point x="303" y="-91"/>
      <point x="317" y="-91" type="curve" smooth="yes"/>
      <point x="351" y="-91"/>
      <point x="371" y="-104"/>
      <point x="371" y="-131" type="curve" smooth="yes"/>
      <point x="371" y="-157"/>
      <point x="351" y="-171"/>
      <point x="318" y="-171" type="curve" smooth="yes"/>
      <point x="298" y="-171"/>
      <point x="270" y="-166"/>
      <point x="250" y="-160" type="curve"/>
      <point x="230" y="-204" type="line"/>
      <point x="254" y="-212"/>
      <point x="288" y="-217"/>
    </contour>
  </outline>
</glyph>
<glyph name="Decyr.ss08" format="2">
  <advance width="843"/>
  <anchor x="421" y="0" name="bottom"/>
  <anchor x="421" y="700" name="top"/>
  <outline>
    <contour>
      <point x="567" y="93" type="line"/>
      <point x="724" y="93" type="line"/>
      <point x="520" y="700" type="line"/>
      <point x="382" y="700" type="line"/>
    </contour>
    <contour>
      <point x="9" y="-140" type="curve"/>
      <point x="129" y="-140" type="line"/>
      <point x="129" y="-37"/>
      <point x="126" y="0"/>
      <point x="185" y="0" type="curve" smooth="yes"/>
      <point x="650" y="0" type="line" smooth="yes"/>
      <point x="721" y="0"/>
      <point x="713" y="-32"/>
      <point x="713" y="-140" type="curve"/>
      <point x="833" y="-140" type="line"/>
      <point x="833" y="103"/>
      <point x="798" y="120"/>
      <point x="701" y="120" type="curve" smooth="yes"/>
      <point x="148" y="120" type="line" smooth="yes"/>
      <point x="52" y="120"/>
      <point x="9" y="103"/>
    </contour>
    <contour>
      <point x="119" y="93" type="line"/>
      <point x="276" y="93" type="line"/>
      <point x="463" y="700" type="line"/>
      <point x="323" y="700" type="line"/>
    </contour>
  </outline>
</glyph>
<glyph name="Eng.ss10" format="2">
  <advance width="732"/>
  <anchor x="360" y="-210" name="bottom"/>
  <anchor x="366" y="719" name="top"/>
  <outline>
    <contour>
      <point x="67.5" y="0" type="line"/>
      <point x="212.5" y="0" type="line" name="ab01"/>
      <point x="212.5" y="468" type="line" name="iv01"/>
      <point x="528.5" y="0" type="line" name="ab02"/>
      <point x="664.5" y="90.414" type="line"/>
      <point x="665" y="700" type="line" name="at01"/>
      <point x="519.75" y="700" type="line"/>
      <point x="519.75" y="232" type="line" name="iv02"/>
      <point x="203.575" y="700" type="line" name="at02"/>
      <point x="67.5" y="700" type="line"/>
    </contour>
    <contour>
      <point x="452.172" y="-231" type="curve" smooth="yes"/>
      <point x="587.701" y="-231"/>
      <point x="664.5" y="-143"/>
      <point x="664.5" y="20" type="curve" smooth="yes"/>
      <point x="664.5" y="489" type="line"/>
      <point x="520.25" y="489" type="line"/>
      <point x="520.25" y="33.24" type="line" smooth="yes"/>
      <point x="520.25" y="-72.937"/>
      <point x="502.643" y="-111"/>
      <point x="435.57" y="-111" type="curve" smooth="yes"/>
      <point x="361.79" y="-111"/>
      <point x="314.839" y="-63.695"/>
      <point x="261.75" y="44" type="curve"/>
      <point x="222.75" y="-94" type="line"/>
      <point x="279.6" y="-180"/>
      <point x="348.267" y="-231"/>
    </contour>
  </outline>
</glyph>
<glyph name="Ereversedcyr.ss09" format="2">
  <advance width="773"/>
  <anchor x="387" y="719" name="top"/>
  <outline>
    <contour>
      <point x="380" y="-20" type="curve" smooth="yes"/>
      <point x="599" y="-20"/>
      <point x="730" y="146"/>
      <point x="730" y="354" type="curve" smooth="yes"/>
      <point x="730" y="569"/>
      <point x="589" y="720"/>
      <point x="371" y="720" type="curve" smooth="yes"/>
      <point x="210" y="720"/>
      <point x="101" y="637"/>
      <point x="53" y="485" type="curve"/>
      <point x="196" y="485" type="line"/>
      <point x="224" y="562.675"/>
      <point x="283" y="600"/>
      <point x="367" y="600" type="curve" smooth="yes"/>
      <point x="503" y="600"/>
      <point x="585" y="501.606"/>
      <point x="585" y="347.992" type="curve" smooth="yes"/>
      <point x="585" y="198.394"/>
      <point x="507" y="100"/>
      <point x="372" y="100" type="curve" smooth="yes"/>
      <point x="264" y="100"/>
      <point x="202" y="163.394"/>
      <point x="186" y="261" type="curve"/>
      <point x="43" y="261" type="line"/>
      <point x="81" y="84"/>
      <point x="207" y="-20"/>
    </contour>
    <contour>
      <point x="276" y="300" type="line"/>
      <point x="611" y="300" type="line"/>
      <point x="611" y="420" type="line"/>
      <point x="276" y="420" type="line"/>
    </contour>
  </outline>
</glyph>
<glyph name="Eukrcyr.ss09" format="2">
  <advance width="773"/>
  <anchor x="386" y="719" name="top"/>
  <outline>
    <contour>
      <point x="393" y="-20" type="curve" smooth="yes"/>
      <point x="566" y="-20"/>
      <point x="692" y="84"/>
      <point x="730" y="261" type="curve"/>
      <point x="587" y="261" type="line"/>
      <point x="571" y="163.394"/>
      <point x="509" y="100"/>
      <point x="401" y="100" type="curve" smooth="yes"/>
      <point x="266" y="100"/>
      <point x="188" y="198.394"/>
      <point x="188" y="347.992" type="curve" smooth="yes"/>
      <point x="188" y="501.606"/>
      <point x="270" y="600"/>
      <point x="406" y="600" type="curve" smooth="yes"/>
      <point x="490" y="600"/>
      <point x="549" y="562.675"/>
      <point x="577" y="485" type="curve"/>
      <point x="720" y="485" type="line"/>
      <point x="672" y="637"/>
      <point x="563" y="720"/>
      <point x="402" y="720" type="curve" smooth="yes"/>
      <point x="184" y="720"/>
      <point x="43" y="569"/>
      <point x="43" y="354" type="curve" smooth="yes"/>
      <point x="43" y="146"/>
      <point x="174" y="-20"/>
    </contour>
    <contour>
      <point x="497" y="300" type="line"/>
      <point x="497" y="420" type="line"/>
      <point x="162" y="420" type="line"/>
      <point x="162" y="300" type="line"/>
    </contour>
  </outline>
</glyph>
<glyph name="Eukrcyr.ss12" format="2">
  <advance width="669"/>
  <anchor x="366" y="719" name="top"/>
  <outline>
    <contour>
      <point x="371.748" y="-20" type="curve" smooth="yes"/>
      <point x="469.144" y="-20"/>
      <point x="578.384" y="27.812"/>
      <point x="626" y="93.825" type="curve"/>
      <point x="618.425" y="184.728" type="line"/>
      <point x="542.672" y="129.557"/>
      <point x="453.104" y="100"/>
      <point x="375.748" y="100" type="curve" smooth="yes"/>
      <point x="243.542" y="100"/>
      <point x="188.748" y="171.933"/>
      <point x="188.748" y="345.491" type="curve" smooth="yes"/>
      <point x="188.748" y="525.653"/>
      <point x="244.218" y="600"/>
      <point x="378.638" y="600" type="curve" smooth="yes"/>
      <point x="455.994" y="600"/>
      <point x="542.672" y="569.547"/>
      <point x="618.425" y="515.027" type="curve"/>
      <point x="626" y="605.93" type="line"/>
      <point x="578.384" y="671.943"/>
      <point x="471.144" y="720"/>
      <point x="373.748" y="720" type="curve" smooth="yes"/>
      <point x="167.748" y="720"/>
      <point x="43.748" y="569"/>
      <point x="43.748" y="349" type="curve" smooth="yes"/>
      <point x="43.748" y="129"/>
      <point x="166.748" y="-20"/>
    </contour>
    <contour>
      <point x="493.748" y="300" type="line"/>
      <point x="493.748" y="420" type="line"/>
      <point x="138.748" y="420" type="line"/>
      <point x="138.748" y="300" type="line"/>
    </contour>
  </outline>
</glyph>
<glyph name="G.ss15" format="2">
  <advance width="747"/>
  <anchor x="383" y="-19" name="bottom"/>
  <anchor x="383" y="719" name="top"/>
  <outline>
    <contour>
      <point x="373" y="-19" type="curve" smooth="yes"/>
      <point x="576" y="-19"/>
      <point x="714" y="119"/>
      <point x="714" y="330" type="curve" smooth="yes"/>
      <point x="714" y="384" type="line"/>
      <point x="367" y="384" type="line"/>
      <point x="367" y="264" type="line"/>
      <point x="567" y="264" type="line"/>
      <point x="567" y="309" type="line"/>
      <point x="567" y="167"/>
      <point x="504" y="101"/>
      <point x="381" y="101" type="curve" smooth="yes"/>
      <point x="243" y="101"/>
      <point x="178" y="183"/>
      <point x="178" y="351" type="curve" smooth="yes"/>
      <point x="178" y="516"/>
      <point x="241" y="600"/>
      <point x="396" y="600" type="curve" smooth="yes"/>
      <point x="491" y="600"/>
      <point x="568" y="568"/>
      <point x="652" y="490" type="curve"/>
      <point x="662" y="585" type="line"/>
      <point x="583" y="678"/>
      <point x="492" y="720"/>
      <point x="378" y="720" type="curve" smooth="yes"/>
      <point x="165" y="720"/>
      <point x="33" y="572"/>
      <point x="33" y="349" type="curve" smooth="yes"/>
      <point x="33" y="126"/>
      <point x="164" y="-19"/>
    </contour>
  </outline>
</glyph>
<glyph name="IJ.liga.ss07" format="2">
  <advance width="640"/>
  <outline>
    <contour>
      <point x="90" y="-24" type="curve"/>
      <point x="90" y="-144" type="line"/>
      <point x="496.81" y="-144"/>
      <point x="576" y="-76"/>
      <point x="576" y="138" type="curve" smooth="yes"/>
      <point x="576" y="700" type="line"/>
      <point x="430" y="700" type="line"/>
      <point x="430" y="129" type="line" smooth="yes"/>
      <point x="430" y="4"/>
      <point x="388" y="-24"/>
    </contour>
    <contour>
      <point x="90" y="50" type="line" name="ab01"/>
      <point x="236" y="50" type="line"/>
      <point x="236" y="700" type="line" name="at01"/>
      <point x="90" y="700" type="line"/>
    </contour>
  </outline>
</glyph>
<glyph name="IJ.liga.ss12" format="2">
  <advance width="610"/>
  <outline>
    <contour>
      <point x="303.434" y="-20" type="curve" smooth="yes"/>
      <point x="459.124" y="-20"/>
      <point x="545.5" y="57"/>
      <point x="545.5" y="232" type="curve" smooth="yes"/>
      <point x="545.5" y="700" type="line"/>
      <point x="400.5" y="700" type="line"/>
      <point x="400.5" y="227" type="line" smooth="yes"/>
      <point x="400.5" y="124"/>
      <point x="366.616" y="100"/>
      <point x="277.387" y="100" type="curve" smooth="yes"/>
      <point x="236.725" y="100"/>
      <point x="179.122" y="105"/>
      <point x="116" y="130" type="curve"/>
      <point x="104" y="31" type="line"/>
      <point x="150.944" y="5"/>
      <point x="208.528" y="-20"/>
    </contour>
    <contour>
      <point x="90" y="200" type="line"/>
      <point x="235" y="200" type="line"/>
      <point x="235" y="700" type="line"/>
      <point x="90" y="700" type="line"/>
    </contour>
  </outline>
</glyph>
<glyph name="J.ss07" format="2">
  <advance width="380"/>
  <anchor x="158" y="-89" name="bottom"/>
  <anchor x="258" y="719" name="top"/>
  <outline>
    <contour>
      <point x="10" y="-24" type="curve"/>
      <point x="10" y="-144" type="line"/>
      <point x="242" y="-144"/>
      <point x="326" y="-66"/>
      <point x="326" y="148" type="curve" smooth="yes"/>
      <point x="326" y="700" type="line"/>
      <point x="180" y="700" type="line"/>
      <point x="180" y="129" type="line" smooth="yes"/>
      <point x="180" y="4"/>
      <point x="134" y="-24"/>
    </contour>
  </outline>
</glyph>
<glyph name="J.ss10" format="2">
  <advance width="558"/>
  <anchor x="256" y="-20" name="bottom"/>
  <anchor x="435" y="719" name="top"/>
  <outline>
    <contour>
      <point x="268.743" y="-20" type="curve" smooth="yes"/>
      <point x="418.588" y="-20"/>
      <point x="503.5" y="68"/>
      <point x="503.5" y="231" type="curve" smooth="yes"/>
      <point x="503.5" y="700" type="line"/>
      <point x="358.5" y="700" type="line"/>
      <point x="358.5" y="244.24" type="line" smooth="yes"/>
      <point x="358.5" y="138.063"/>
      <point x="337.465" y="100"/>
      <point x="257.331" y="100" type="curve" smooth="yes"/>
      <point x="169.183" y="100"/>
      <point x="113.089" y="147.305"/>
      <point x="60" y="255" type="curve"/>
      <point x="21" y="117" type="line"/>
      <point x="77.941" y="31"/>
      <point x="153.862" y="-20"/>
    </contour>
  </outline>
</glyph>
